<?xml version="1.0" encoding="UTF-8"?>
<svg version="1.1" xmlns="http://www.w3.org/2000/svg" width="336" height="118">
<path d="M0 0 C5.5405921 5.00004652 9.65784857 10.49980274 10.23510742 18.09228516 C10.29499156 21.71211684 10.26152269 25.31798013 10.1875 28.9375 C10.17396484 30.19369141 10.16042969 31.44988281 10.14648438 32.74414062 C10.11128591 35.82987279 10.06204305 38.91471024 10 42 C9.55785156 41.55527344 9.11570313 41.11054687 8.66015625 40.65234375 C7.27129871 39.27002201 5.85728971 37.91303168 4.4375 36.5625 C2.34740825 34.36522406 1.12720706 32.76678097 0 30 C-0.495 30.33 -0.99 30.66 -1.5 31 C-5.37884426 32.5515377 -9.99431063 32.8343339 -13.90625 31.20703125 C-16.24822405 30.74701979 -16.24822405 30.74701979 -18.65625 32.84375 C-26.20340335 39.46120015 -26.20340335 39.46120015 -31 48 C-30.26200123 52.5740549 -28.55558967 56.1666155 -26 60 C-23.94074861 60.72382467 -23.94074861 60.72382467 -22 61 C-21.16121545 59.71186658 -20.32913217 58.41936744 -19.5 57.125 C-19.0359375 56.40570313 -18.571875 55.68640625 -18.09375 54.9453125 C-16.83663499 53.08139534 -16.83663499 53.08139534 -17 51 C-17.94875 50.731875 -18.8975 50.46375 -19.875 50.1875 C-23 49 -23 49 -25 46 C-21.535 45.505 -21.535 45.505 -18 45 C-19.32 44.34 -20.64 43.68 -22 43 C-22 42.34 -22 41.68 -22 41 C-14.75294118 41.82352941 -14.75294118 41.82352941 -12 45 C-10.9063907 50.24932462 -12.37598208 52.9410605 -15.0625 57.5 C-17.79185337 62.05239454 -17.79185337 62.05239454 -17.875 67.1875 C-17.58625 68.115625 -17.2975 69.04375 -17 70 C-13.67465243 71.10844919 -11.37817425 70.84454356 -8 70 C-8.433125 69.566875 -8.86625 69.13375 -9.3125 68.6875 C-10.875 67.125 -12.4375 65.5625 -14 64 C-12.12756019 62.12756019 -9.06340482 62.82619608 -6.5625 62.8125 C-4.80099609 62.79123047 -4.80099609 62.79123047 -3.00390625 62.76953125 C0 63 0 63 2 65 C0.7934375 65.680625 0.7934375 65.680625 -0.4375 66.375 C-3.08856572 67.74725665 -3.08856572 67.74725665 -4 70 C-1.36 70.33 1.28 70.66 4 71 C4.56989423 68.19802004 5.04753377 65.83090032 5 63 C3.26212435 60.26513223 3.26212435 60.26513223 1 58 C-1.12705782 53.95859014 -1.49525746 50.53986004 -1 46 C1.21863029 43.09282927 2.51944929 42.16018357 6 41 C5.67 42.32 5.34 43.64 5 45 C6.65 45.33 8.3 45.66 10 46 C9.67 46.99 9.34 47.98 9 49 C5.9375 50.1875 5.9375 50.1875 3 51 C3.99 53.31 4.98 55.62 6 58 C7.32 56.68 8.64 55.36 10 54 C10.01401855 54.96039185 10.01401855 54.96039185 10.02832031 55.94018555 C10.08218847 58.85672375 10.16580199 61.77168625 10.25 64.6875 C10.26417969 65.69490234 10.27835938 66.70230469 10.29296875 67.74023438 C10.48142044 73.45032066 10.69622011 76.84519711 15 81 C17.96034999 87.36475247 17.90323622 94.1476751 15.8125 100.75 C11.9220969 107.72589521 7.59378174 112.22150002 0 115 C-8.0771702 116.46214468 -14.19264056 114.30768735 -21 110 C-22.34619978 109.01738922 -23.68376746 108.02240387 -25 107 C-23.68 108.65 -22.36 110.3 -21 112 C-25.91586083 111.54271062 -28.49915267 110.50084733 -32 107 C-36.25342353 101.05718853 -38.49942522 96.49137823 -38 89 C-37.15787416 86.566648 -36.09950717 84.33645275 -35 82 C-35 81.34 -35 80.68 -35 80 C-38.91665339 85.63018924 -40.0249369 90.15155799 -39 97 C-37.53888984 99.79897943 -37.53888984 99.79897943 -36 102 C-36.41015625 104.1328125 -36.41015625 104.1328125 -37 106 C-44.55969147 99.07855641 -49.16350197 94.48285972 -50.5 84.125 C-50.27344525 77.7688806 -46.43213647 72.1482047 -43 67 C-44.485 67.495 -44.485 67.495 -46 68 C-46 55.79 -46 43.58 -46 31 C-45.01 31 -44.02 31 -43 31 C-43.94875 30.2575 -44.8975 29.515 -45.875 28.75 C-49.49201496 25.91929264 -50.78597622 23.4739725 -51.44921875 18.90625 C-51.56716797 17.22015625 -51.56716797 17.22015625 -51.6875 15.5 C-51.77386719 14.3759375 -51.86023437 13.251875 -51.94921875 12.09375 C-52 9 -52 9 -51 5 C-41.43 5 -31.86 5 -22 5 C-25.54988771 4.11252807 -28.14180778 3.89454533 -31.75 3.9375 C-32.73484375 3.94652344 -33.7196875 3.95554687 -34.734375 3.96484375 C-35.85585938 3.98224609 -35.85585938 3.98224609 -37 4 C-37 3.34 -37 2.68 -37 2 C-25.72427373 -3.40617013 -11.51140495 -6.6975447 0 0 Z M-50 9 C-45.51682502 14.02659013 -41.60054302 16.7924499 -34.8828125 17.1796875 C-31.91518641 17.18667015 -28.96446411 17.13142944 -26 17 C-29.02450871 14.98366086 -29.72420388 14.78346003 -33.125 14.625 C-37.59070618 14.2309671 -41.04669433 12.8912171 -45.0546875 10.9375 C-47.13335054 9.88499918 -47.13335054 9.88499918 -50 9 Z M-41 33 C-40.67 33.66 -40.34 34.32 -40 35 C-39.34 34.67 -38.68 34.34 -38 34 C-38.99 33.67 -39.98 33.34 -41 33 Z M-12.0625 73.8125 C-13.031875 74.534375 -14.00125 75.25625 -15 76 C-14.42655063 78.86724686 -14.1385485 79.8614515 -12 82 C-9.10839021 81.7269226 -9.10839021 81.7269226 -6 81 C-5.05125 80.814375 -4.1025 80.62875 -3.125 80.4375 C-2.42375 80.293125 -1.7225 80.14875 -1 80 C-0.67 80.66 -0.34 81.32 0 82 C0.33 79.69 0.66 77.38 1 75 C-5.50672355 71.9173561 -5.50672355 71.9173561 -12.0625 73.8125 Z M-20 86 C-21.70385166 87.70385166 -21.33267101 89.79334922 -21.4375 92.125 C-21.39661514 97.36507653 -20.36607337 100.02356017 -16.66796875 103.6953125 C-14.57376744 105.33339971 -12.56907516 106.31995069 -10 107 C-10 106.34 -10 105.68 -10 105 C-7.03 105 -4.06 105 -1 105 C-0.67 105.66 -0.34 106.32 0 107 C4.96657197 103.90968855 8.12882831 101.61351507 10 96 C10.13156527 92.31617231 10.16982138 89.50946415 9 86 C8.34 86 7.68 86 7 86 C6.54109375 86.4640625 6.0821875 86.928125 5.609375 87.40625 C3.84491557 89.15357876 2.58316732 89.71605578 0.25 90.5 C-0.45125 90.75136719 -1.1525 91.00273438 -1.875 91.26171875 C-2.57625 91.50535156 -3.2775 91.74898438 -4 92 C-9.86783253 94.05374139 -12.06555399 95.71799717 -15 101 C-17.8503026 97.79054398 -18.43451699 95.50011452 -18.6875 91.25 C-18.75324219 90.26515625 -18.81898437 89.2803125 -18.88671875 88.265625 C-18.92410156 87.51796875 -18.96148437 86.7703125 -19 86 C-19.33 86 -19.66 86 -20 86 Z M-29 87 C-30.79751401 92.39254202 -30.70522993 97.32507891 -28.5 102.5625 C-28.005 103.366875 -27.51 104.17125 -27 105 C-25.66954358 102.33908717 -26.27226823 101.11962725 -26.9375 98.25 C-27.76531547 94.41649214 -28.20741734 90.94092954 -28 87 C-28.33 87 -28.66 87 -29 87 Z " fill="#030303" transform="translate(52,3)"/>
<path d="M0 0 C22 0 22 0 32 3 C35.02230419 7.14688249 36.36333331 10.00887423 36 15.125 C35.17765463 19.15765516 33.80358798 21.91605322 31 25 C28.09322221 26.61376284 25.12228262 27.86583751 22 29 C22.59638333 30.27450447 23.20247416 31.54446877 23.8125 32.8125 C24.14894531 33.52019531 24.48539062 34.22789063 24.83203125 34.95703125 C26.02674626 37.0467836 27.25257655 38.36097751 29 40 C31.37046853 42.63447805 33.68325846 45.3182576 36 48 C36.51691406 48.58910156 37.03382813 49.17820313 37.56640625 49.78515625 C41 53.76655983 41 53.76655983 41 56 C30.92390524 56.78176597 30.92390524 56.78176597 27.5625 53.9375 C26.46590378 51.87589911 25.37384783 49.81187983 24.28515625 47.74609375 C21.97487355 43.71778638 19.06369899 40.47662522 15.875 37.125 C15.33746094 36.54492188 14.79992187 35.96484375 14.24609375 35.3671875 C11.43979724 32.28236184 11.43979724 32.28236184 8 30 C8 38.58 8 47.16 8 56 C5.36 56 2.72 56 0 56 C0 37.52 0 19.04 0 0 Z M8 5 C8 11.93 8 18.86 8 26 C16.27947578 26.42279644 16.27947578 26.42279644 23 24 C23 23.34 23 22.68 23 22 C23.99 21.67 24.98 21.34 26 21 C26.22331199 19.41870971 26.42804644 17.83478911 26.625 16.25 C26.74101562 15.36828125 26.85703125 14.4865625 26.9765625 13.578125 C27.00313284 10.65538722 26.74176968 9.34273114 25 7 C21.22429492 4.89724306 17.95222657 4.78126975 13.6875 4.875 C11.810625 4.91625 9.93375 4.9575 8 5 Z " fill="#080808" transform="translate(255,24)"/>
<path d="M0 0 C2.64 0 5.28 0 8 0 C7.98952637 0.97759277 7.97905273 1.95518555 7.96826172 2.96240234 C7.93171026 6.63391369 7.90897338 10.30540939 7.89013672 13.97705078 C7.88015841 15.55780758 7.86657093 17.13854631 7.84912109 18.71923828 C7.03410263 33.68267321 7.03410263 33.68267321 12.375 47 C18.10691309 51.36717188 22.89104294 51.80440815 30 51 C33.91130151 49.75965934 36.39694567 47.93432957 38.65551758 44.43505859 C40.36667769 40.06316413 40.47649177 36.31685537 40.51171875 31.6640625 C40.52966995 30.78471039 40.54762115 29.90535828 40.56611633 28.99935913 C40.62002812 26.20795395 40.65405329 23.41671789 40.6875 20.625 C40.72069 18.72523698 40.75518121 16.82549623 40.79101562 14.92578125 C40.87574349 10.28397656 40.94264561 5.64222035 41 1 C45.75 0 45.75 0 48 0 C47.87987448 3.91045274 47.75555399 7.82074965 47.62768555 11.73095703 C47.56413115 13.69947721 47.50370404 15.66809757 47.44335938 17.63671875 C46.64383713 41.86839298 46.64383713 41.86839298 42 49 C41.401875 49.928125 40.80375 50.85625 40.1875 51.8125 C35.79767828 56.20232172 30.75542893 57.37106919 24.74462891 57.46801758 C24.02452637 57.45794678 23.30442383 57.44787598 22.5625 57.4375 C21.43980713 57.42722778 21.43980713 57.42722778 20.29443359 57.41674805 C14.57504664 57.25000025 10.69451364 56.4739401 6 53 C4.1875 50.75 4.1875 50.75 3 48 C2.48655029 46.81986328 1.97310059 45.63972656 1.4440918 44.42382812 C-0.30099086 39.72400399 -0.38524356 35.43688591 -0.29296875 30.46875 C-0.28872391 29.59222778 -0.28447906 28.71570557 -0.28010559 27.81262207 C-0.2634513 25.04142177 -0.22582509 22.27097664 -0.1875 19.5 C-0.17243599 17.60938558 -0.1587506 15.71875964 -0.14648438 13.828125 C-0.11359139 9.21846361 -0.06190255 4.60935938 0 0 Z " fill="#040404" transform="translate(202,24)"/>
<path d="M0 0 C3.3 0 6.6 0 10 0 C10.54527344 1.03447266 10.54527344 1.03447266 11.1015625 2.08984375 C14.42433736 8.30087677 17.97499607 14.21940926 22 20 C26.71642877 13.61175354 30.669958 7.21253337 34 0 C36.64 0 39.28 0 42 0 C40.7580393 3.43927579 39.44259716 6.25207819 37 9 C36.34 9 35.68 9 35 9 C34.61908203 10.0828125 34.61908203 10.0828125 34.23046875 11.1875 C32.52224729 15.09200619 29.97236635 18.15367843 27.36328125 21.5 C25.80543723 23.87071515 25.80543723 23.87071515 26.03125 26.359375 C27.33682541 29.91812087 29.193592 33.04647337 31.1875 36.25 C31.59025146 36.9109668 31.99300293 37.57193359 32.40795898 38.25292969 C35.13023244 42.69147799 37.97441906 47.02926893 41.00390625 51.265625 C42 53 42 53 42 56 C38.7 56 35.4 56 32 56 C31.55269531 55.0821875 31.10539062 54.164375 30.64453125 53.21875 C27.38838763 46.59091344 24.074884 40.17406667 20 34 C14.87158894 41.08991871 10.1998845 47.79160064 7 56 C4.36 56 1.72 56 -1 56 C0.51133035 51.50822489 3.01620343 48.01292393 5.8125 44.25 C6.70203111 42.99325512 7.59005972 41.73544538 8.4765625 40.4765625 C9.94229362 38.41306895 11.40069675 36.5482782 13.0859375 34.6484375 C14.99928559 32.23108552 15.80159859 31.10356499 16 28 C14.10667951 22.78198731 11.00713085 18.12380919 7.90551758 13.55297852 C7 12 7 12 7 10 C6.34 10 5.68 10 5 10 C3.7109375 8.3203125 3.7109375 8.3203125 2.375 6.125 C1.92898437 5.40570312 1.48296875 4.68640625 1.0234375 3.9453125 C0 2 0 2 0 0 Z " fill="#0B0B0B" transform="translate(157,24)"/>
<path d="M0 0 C2.97 0 5.94 0 9 0 C8.98428955 1.778302 8.98428955 1.778302 8.96826172 3.5925293 C8.93200258 8.00005054 8.90907796 12.40755865 8.89013672 16.81518555 C8.88009263 18.7211326 8.86645484 20.62706429 8.84912109 22.53295898 C8.82480282 25.27591752 8.81350088 28.01867191 8.8046875 30.76171875 C8.79436493 31.61086349 8.78404236 32.46000824 8.77340698 33.33488464 C8.77246312 38.33625143 8.84949068 42.68586497 12.4375 46.546875 C18.718252 51.38305404 23.11996112 51.74165072 31 51 C35.53861925 48.85012772 37.85253931 46.52096988 40 42 C41.2318333 37.80926902 41.22697542 33.63428358 41.31640625 29.296875 C41.33718735 28.45908508 41.35796844 27.62129517 41.37937927 26.75811768 C41.4446255 24.08882644 41.50364358 21.41943902 41.5625 18.75 C41.60570894 16.93749016 41.64932399 15.12498995 41.69335938 13.3125 C41.80028129 8.87509791 41.90161866 4.43759932 42 0 C43.98 0 45.96 0 48 0 C47.8807069 4.53505583 47.75640357 9.0699382 47.62768555 13.60473633 C47.58467981 15.14376199 47.54298471 16.68282491 47.50268555 18.22192383 C46.77018965 46.08389751 46.77018965 46.08389751 39.30078125 53.7421875 C32.37774538 58.55702973 22.0942041 58.27900708 14 57 C8.78440606 54.83185471 4.47321674 52.37738839 2.12451172 46.99291992 C-0.79406952 37.5512814 -0.33212929 28.08270886 -0.1875 18.3125 C-0.17242264 16.53191239 -0.15873965 14.7513124 -0.14648438 12.97070312 C-0.11372792 8.64682493 -0.06211542 4.32355201 0 0 Z " fill="#0C0C0C" transform="translate(106,24)"/>
<path d="M0 0 C3.3 0 6.6 0 10 0 C14.95 8.58 19.9 17.16 25 26 C26.19625 23.751875 27.3925 21.50375 28.625 19.1875 C32.04386496 12.76992651 35.5013224 6.37448457 39 0 C41.31 0 43.62 0 46 0 C44.45724733 5.86626943 41.38715169 10.46987162 38.125 15.5 C37.59519531 16.32886719 37.06539063 17.15773438 36.51953125 18.01171875 C35.74029297 19.22794922 35.74029297 19.22794922 34.9453125 20.46875 C34.19024414 21.65766846 34.19024414 21.65766846 33.41992188 22.87060547 C32 25 32 25 29.6640625 27.7890625 C27.00281294 32.92414967 27.32076924 38.17485905 27.25 43.875 C27.20552734 45.62296875 27.20552734 45.62296875 27.16015625 47.40625 C27.08971399 50.27090195 27.03688887 53.13475205 27 56 C24.36 56 21.72 56 19 56 C19.07069702 55.06486572 19.07069702 55.06486572 19.14282227 54.11083984 C20.11648263 39.24711326 19.17356651 30.66419755 10 19 C9.02895399 17.21604269 8.10516452 15.40481585 7.25 13.5625 C5.7885992 10.47166277 4.2170297 7.75315032 2.1875 5 C0 2 0 2 0 0 Z " fill="#030303" transform="translate(290,24)"/>
<path d="M0 0 C2.64 0 5.28 0 8 0 C8 16.83 8 33.66 8 51 C15.26 50.67 22.52 50.34 30 50 C30 51.98 30 53.96 30 56 C20.1 56 10.2 56 0 56 C0 37.52 0 19.04 0 0 Z " fill="#020202" transform="translate(74,24)"/>
<path d="M0 0 C0.495 1.485 0.495 1.485 1 3 C0.67 3.33 0.34 3.66 0 4 C2.475 4.495 2.475 4.495 5 5 C4.67 5.99 4.34 6.98 4 8 C0.9375 9.1875 0.9375 9.1875 -2 10 C-1.01 12.31 -0.02 14.62 1 17 C2.32 15.68 3.64 14.36 5 13 C5.01401855 13.96039185 5.01401855 13.96039185 5.02832031 14.94018555 C5.08218847 17.85672375 5.16580199 20.77168625 5.25 23.6875 C5.26417969 24.69490234 5.27835938 25.70230469 5.29296875 26.74023438 C5.48142044 32.45032066 5.69622011 35.84519711 10 40 C12.96034999 46.36475247 12.90323622 53.1476751 10.8125 59.75 C6.9220969 66.72589521 2.59378174 71.22150002 -5 74 C-12.96468558 75.4417825 -19.40655908 73.54958971 -26 69 C-30.96978438 64.94597299 -32.80401156 60.79105449 -33.765625 54.51171875 C-34.09572516 50.9741454 -34.13150891 47.55074065 -34 44 C-32.68 43.34 -31.36 42.68 -30 42 C-30.15726563 42.54140625 -30.31453125 43.0828125 -30.4765625 43.640625 C-31.94033094 50.23850661 -32.18582782 56.91931192 -28.5 62.75 C-27.69290967 63.85302346 -26.86886451 64.94495023 -26 66 C-24.515 65.01 -24.515 65.01 -23 64 C-23.99 62.948125 -23.99 62.948125 -25 61.875 C-27.30233203 58.56539771 -27.36630156 56.93774177 -27 53 C-27.66 52.67 -28.32 52.34 -29 52 C-28.34 49.69 -27.68 47.38 -27 45 C-26.34 45.33 -25.68 45.66 -25 46 C-25.05800781 46.72445312 -25.11601562 47.44890625 -25.17578125 48.1953125 C-25.61212493 54.82749258 -25.61212493 54.82749258 -22.75 60.5625 C-20.49719744 62.55930227 -18.79811881 63.9636597 -16 65 C-15.67 64.67 -15.34 64.34 -15 64 C-13.54332311 63.92745633 -12.0833275 63.91626222 -10.625 63.9375 C-9.43777344 63.95103516 -9.43777344 63.95103516 -8.2265625 63.96484375 C-7.49179687 63.97644531 -6.75703125 63.98804688 -6 64 C-2.42424104 64 -0.94704065 62.91159393 2 61 C2.33 61.66 2.66 62.32 3 63 C5.02463255 63.65213292 5.02463255 63.65213292 7 64 C10.20940193 55.57531995 10.72107545 49.47319849 7.94921875 40.8203125 C7.08090711 38.64087445 7.08090711 38.64087445 4 38 C3.505 34.04 3.505 34.04 3 30 C1.68 30.33 0.36 30.66 -1 31 C-0.88140625 30.40832031 -0.7628125 29.81664063 -0.640625 29.20703125 C0.31025665 23.96236124 0.31025665 23.96236124 -1.8125 19.25 C-2.534375 18.5075 -3.25625 17.765 -4 17 C-6.12705782 12.95859014 -6.49525746 9.53986004 -6 5 C-4.13291495 2.63502561 -2.67938569 1.33969285 0 0 Z " fill="#0F0F0F" transform="translate(57,44)"/>
<path d="M0 0 C-0.33 0.66 -0.66 1.32 -1 2 C-6.61 2 -12.22 2 -18 2 C-18 9.26 -18 16.52 -18 24 C-14.04 24 -10.08 24 -6 24 C-5.19955576 28.00222119 -4.55450162 31.96005961 -4 36 C-5.32 36 -6.64 36 -8 36 C-7.67 35.01 -7.34 34.02 -7 33 C-7.78375 32.7525 -8.5675 32.505 -9.375 32.25 C-12.32317108 30.84610901 -12.9024777 29.99324263 -14 27 C-15.65 27 -17.3 27 -19 27 C-18.9278125 27.79921875 -18.855625 28.5984375 -18.78125 29.421875 C-18.14709065 36.92609394 -17.55844134 44.46752878 -18 52 C-19 53 -19 53 -22.0625 53.0625 C-23.031875 53.041875 -24.00125 53.02125 -25 53 C-25.02714735 50.77090129 -25.04646254 48.54170633 -25.0625 46.3125 C-25.07990234 44.45044922 -25.07990234 44.45044922 -25.09765625 42.55078125 C-25 39 -25 39 -24.49609375 36.515625 C-23.82759591 33.12576193 -23.94516899 29.88842655 -24 26.4375 C-24.12652097 18.45877141 -24.12652097 18.45877141 -23 15 C-23.66 15 -24.32 15 -25 15 C-25 10.05 -25 5.1 -25 0 C-21.95866211 -0.19572967 -18.91723937 -0.38183916 -15.875 -0.5625 C-15.0190625 -0.61857422 -14.163125 -0.67464844 -13.28125 -0.73242188 C-8.67818141 -0.99798352 -4.54180454 -1.00515346 0 0 Z " fill="#030303" transform="translate(281,26)"/>
<path d="M0 0 C1.4540625 0.0309375 1.4540625 0.0309375 2.9375 0.0625 C2.81737448 3.97295274 2.69305399 7.88324965 2.56518555 11.79345703 C2.50163115 13.76197721 2.44120404 15.73059757 2.38085938 17.69921875 C1.58133713 41.93089298 1.58133713 41.93089298 -3.0625 49.0625 C-3.660625 49.990625 -4.25875 50.91875 -4.875 51.875 C-9.26472084 56.26472084 -14.30730382 57.43402345 -20.31811523 57.53027344 C-21.03813721 57.5202832 -21.75815918 57.51029297 -22.5 57.5 C-23.24773682 57.49387695 -23.99547363 57.48775391 -24.76586914 57.48144531 C-30.46554667 57.31950496 -34.37596839 56.50566608 -39.0625 53.0625 C-40.25390625 50.921875 -40.25390625 50.921875 -41.0625 49.0625 C-39.5775 48.5675 -39.5775 48.5675 -38.0625 48.0625 C-38.0315625 48.9596875 -38.0315625 48.9596875 -38 49.875 C-37.18434299 52.33734645 -37.18434299 52.33734645 -34.375 53.8125 C-28.60897496 56.05349713 -22.13158032 55.28977485 -16.0625 55.0625 C-18.01401627 53.11098373 -21.51418745 53.35281251 -24.125 53 C-25.41535156 52.82339844 -26.70570313 52.64679688 -28.03515625 52.46484375 C-29.03417969 52.33207031 -30.03320312 52.19929688 -31.0625 52.0625 C-31.0625 51.4025 -31.0625 50.7425 -31.0625 50.0625 C-32.0525 50.0625 -33.0425 50.0625 -34.0625 50.0625 C-34.7225 48.0825 -35.3825 46.1025 -36.0625 44.0625 C-35.59199219 44.48402344 -35.12148437 44.90554687 -34.63671875 45.33984375 C-34.01410156 45.88769531 -33.39148438 46.43554688 -32.75 47 C-32.13511719 47.54527344 -31.52023438 48.09054688 -30.88671875 48.65234375 C-26.36835766 52.14512395 -20.48427975 51.60013458 -15.0625 51.0625 C-11.14854774 49.83059056 -8.66283474 47.99217892 -6.40478516 44.49536133 C-4.6975158 40.12906187 -4.60390778 36.40692422 -4.5859375 31.76171875 C-4.57035797 30.88473831 -4.55477844 30.00775787 -4.53872681 29.10420227 C-4.49141 26.31947635 -4.46349429 23.53499954 -4.4375 20.75 C-4.4010299 17.94732099 -4.36049242 15.14478396 -4.31484985 12.34223938 C-4.28757894 10.6017541 -4.26624696 8.86116402 -4.25131226 7.12052917 C-4.15891147 0.08487574 -4.15891147 0.08487574 0 0 Z " fill="#101010" transform="translate(247.0625,23.9375)"/>
<path d="M0 0 C3.82601307 1.45124634 5.22329124 3.35774704 7 7 C7 7.99 7 8.98 7 10 C7.639375 10.268125 8.27875 10.53625 8.9375 10.8125 C11 12 11 12 12 15 C12.61101562 15.60457031 13.22203125 16.20914063 13.8515625 16.83203125 C16.26506256 19.26747222 17.70886734 21.69550122 19.375 24.6875 C22.01714792 29.35548487 24.81978698 33.79432273 27.93359375 38.16015625 C29 40 29 40 29 43 C25.7 43 22.4 43 19 43 C17.89324381 40.8137775 16.78955622 38.62609052 15.6875 36.4375 C15.37876953 35.82841797 15.07003906 35.21933594 14.75195312 34.59179688 C9 23.1484375 9 23.1484375 9 19 C6.83125748 19.50603992 5.00032373 19.99983813 3 21 C3.268125 19.845 3.53625 18.69 3.8125 17.5 C4.45441421 12.78985029 2.7538876 10.56379755 0.08203125 6.83203125 C-1 5 -1 5 -0.8125 2 C-0.544375 1.34 -0.27625 0.68 0 0 Z " fill="#060606" transform="translate(170,37)"/>
<path d="M0 0 C7.24705882 0.82352941 7.24705882 0.82352941 10 4 C11.0936093 9.24932462 9.62401792 11.9410605 6.9375 16.5 C4.20814663 21.05239454 4.20814663 21.05239454 4.125 26.1875 C4.41375 27.115625 4.7025 28.04375 5 29 C8.32534757 30.10844919 10.62182575 29.84454356 14 29 C13.566875 28.566875 13.13375 28.13375 12.6875 27.6875 C11.125 26.125 9.5625 24.5625 8 23 C9.87243981 21.12756019 12.93659518 21.82619608 15.4375 21.8125 C17.19900391 21.79123047 17.19900391 21.79123047 18.99609375 21.76953125 C22 22 22 22 24 24 C22.7934375 24.680625 22.7934375 24.680625 21.5625 25.375 C18.91143428 26.74725665 18.91143428 26.74725665 18 29 C20.64 29.66 23.28 30.32 26 31 C22 32 22 32 20 31 C20 31.66 20 32.32 20 33 C18.63875 32.7215625 18.63875 32.7215625 17.25 32.4375 C14.19163521 31.80275577 14.19163521 31.80275577 12.0625 32.5625 C8.62598369 33.29145801 6.18981807 32.29955551 3 31 C1.5 28.5 1.5 28.5 1 26 C1.33 25.34 1.66 24.68 2 24 C1.34 23.67 0.68 23.34 0 23 C0 19.587131 0.6408698 18.70037405 2.5 15.9375 C4.48435196 13.20019726 4.48435196 13.20019726 5 10 C4.05125 9.731875 3.1025 9.46375 2.125 9.1875 C-1 8 -1 8 -3 5 C0.465 4.505 0.465 4.505 4 4 C2.68 3.34 1.36 2.68 0 2 C0 1.34 0 0.68 0 0 Z " fill="#0F0F0F" transform="translate(30,44)"/>
<path d="M0 0 C2.31 0 4.62 0 7 0 C7 12.54 7 25.08 7 38 C3.535 36.02 3.535 36.02 0 34 C0 22.78 0 11.56 0 0 Z " fill="#030303" transform="translate(107,26)"/>
<path d="M0 0 C22 0 22 0 32 3 C32.495 4.485 32.495 4.485 33 6 C32.01 6 31.02 6 30 6 C30 6.66 30 7.32 30 8 C29.01 8 28.02 8 27 8 C27.350625 8.495 27.70125 8.99 28.0625 9.5 C29.48632408 13.29686421 28.77987296 16.03564577 28 20 C27.34 20.33 26.68 20.66 26 21 C26.01160156 20.31292969 26.02320313 19.62585938 26.03515625 18.91796875 C26.04417969 18.01691406 26.05320312 17.11585937 26.0625 16.1875 C26.07410156 15.29417969 26.08570313 14.40085937 26.09765625 13.48046875 C26.11009967 10.86586209 26.11009967 10.86586209 25 8 C21.15817957 5.93510931 17.49481344 5.6360493 13.1875 5.375 C12.02605469 5.30023437 10.86460937 5.22546875 9.66796875 5.1484375 C8.78753906 5.09945313 7.90710938 5.05046875 7 5 C9 3 9 3 12.6953125 2.8046875 C14.17200108 2.817991 15.64862358 2.84185165 17.125 2.875 C17.87910156 2.88402344 18.63320313 2.89304687 19.41015625 2.90234375 C21.27357254 2.9259313 23.13682593 2.96180281 25 3 C20.08497242 1.70764285 15.22709898 1.88864483 10.1875 1.9375 C8.86202148 1.94426758 8.86202148 1.94426758 7.50976562 1.95117188 C5.33981441 1.96290134 3.16989828 1.98083505 1 2 C1 6.95 1 11.9 1 17 C1.66 17 2.32 17 3 17 C3.02901394 20.4374823 3.04680335 23.87493312 3.0625 27.3125 C3.07506836 28.77719727 3.07506836 28.77719727 3.08789062 30.27148438 C3.09111328 31.20927734 3.09433594 32.14707031 3.09765625 33.11328125 C3.10289307 33.97735596 3.10812988 34.84143066 3.11352539 35.73168945 C3 38 3 38 2 41 C1.77439324 43.39254576 1.59151405 45.78928123 1.4375 48.1875 C1.35371094 49.45980469 1.26992188 50.73210937 1.18359375 52.04296875 C1.09271484 53.50669922 1.09271484 53.50669922 1 55 C4.465 54.505 4.465 54.505 8 54 C8 54.66 8 55.32 8 56 C5.36 56 2.72 56 0 56 C0 37.52 0 19.04 0 0 Z " fill="#111111" transform="translate(255,24)"/>
<path d="M0 0 C1.98 0 3.96 0 6 0 C5.67 10.89 5.34 21.78 5 33 C4.34 33 3.68 33 3 33 C3 34.98 3 36.96 3 39 C2.01 38.67 1.02 38.34 0 38 C0 25.46 0 12.92 0 0 Z " fill="#030303" transform="translate(148,24)"/>
<path d="M0 0 C0.33 0 0.66 0 1 0 C1.60346451 7.4829599 0.49317168 12.85933203 -4 19 C-8.49713549 23.6002808 -13.5915344 24.27563031 -19.7668457 24.47607422 C-31.34147701 24.59047804 -31.34147701 24.59047804 -37 21 C-37.33 20.34 -37.66 19.68 -38 19 C-35.7909482 19.4909004 -33.88047601 20.05600675 -31.82421875 21.01953125 C-28.27967136 22.2500726 -25.24743341 22.3012577 -21.5 22.3125 C-19.56640625 22.33763672 -19.56640625 22.33763672 -17.59375 22.36328125 C-13.87091158 21.98695084 -11.98930454 21.17874312 -9 19 C-9.51046875 19.15339844 -10.0209375 19.30679688 -10.546875 19.46484375 C-13.7749338 20.16905403 -16.95418001 20.34888204 -20.25 20.5625 C-21.51328125 20.64628906 -22.7765625 20.73007813 -24.078125 20.81640625 C-25.04234375 20.87699219 -26.0065625 20.93757813 -27 21 C-27 20.34 -27 19.68 -27 19 C-27.5775 18.9175 -28.155 18.835 -28.75 18.75 C-31.6159304 17.79468987 -32.9990764 16.21530827 -35 14 C-34.67 13.34 -34.34 12.68 -34 12 C-32.50260417 13.26953125 -31.00520833 14.5390625 -29.5078125 15.80859375 C-25.09510466 19.29531886 -19.34423067 18.50298642 -14 18 C-9.46138075 15.85012772 -7.14746069 13.52096988 -5 9 C-4.30420546 6.80869466 -4.30420546 6.80869466 -4 5 C-2.68 5.33 -1.36 5.66 0 6 C-0.495 4.515 -0.495 4.515 -1 3 C-0.67 2.01 -0.34 1.02 0 0 Z " fill="#0E0E0E" transform="translate(151,57)"/>
<path d="M0 0 C2.31 0 4.62 0 7 0 C5.44037842 5.9558049 2.2884438 10.68981808 -1 15.8125 C-1.81984375 17.11864258 -1.81984375 17.11864258 -2.65625 18.45117188 C-6.73807143 24.86903571 -6.73807143 24.86903571 -9 26 C-9.99 25.01 -10.98 24.02 -12 23 C-8.17653497 15.23104446 -4.20265736 7.57074446 0 0 Z " fill="#0D0D0D" transform="translate(329,24)"/>
<path d="M0 0 C2.64 0 5.28 0 8 0 C8 16.83 8 33.66 8 51 C15.26 50.67 22.52 50.34 30 50 C30 51.98 30 53.96 30 56 C20.1 56 10.2 56 0 56 C0.33 55.34 0.66 54.68 1 54 C14.365 54.495 14.365 54.495 28 55 C28 54.01 28 53.02 28 52 C21.07 52 14.14 52 7 52 C5.94118364 47.76473456 5.85604287 43.90257381 5.8671875 39.578125 C5.86623077 38.75930847 5.86527405 37.94049194 5.86428833 37.09686279 C5.86360866 35.36535566 5.86544809 33.63384597 5.86962891 31.90234375 C5.87495266 29.27337801 5.86969094 26.64458525 5.86328125 24.015625 C5.86394261 22.32812463 5.86522496 20.64062436 5.8671875 18.953125 C5.86415115 17.78707733 5.86415115 17.78707733 5.86105347 16.59747314 C5.88192479 11.64956925 6.29980498 6.89927919 7 2 C5.02 2.33 3.04 2.66 1 3 C0.67 2.01 0.34 1.02 0 0 Z " fill="#131313" transform="translate(74,24)"/>
<path d="M0 0 C0.66 1.32 1.32 2.64 2 4 C1.34 4 0.68 4 0 4 C0 7.3 0 10.6 0 14 C0.66 14 1.32 14 2 14 C3.60355101 10.49223216 4.22036864 7.85645121 4 4 C4.99 4 5.98 4 7 4 C6.93039063 5.16015625 6.93039063 5.16015625 6.859375 6.34375 C6.52099065 16.1085554 8.58061923 21.66356483 15 29 C10.08413917 28.54271062 7.50084733 27.50084733 4 24 C-0.2849321 18.01316528 -2.38278543 13.52811347 -2 6 C-1 2.5625 -1 2.5625 0 0 Z " fill="#0D0D0D" transform="translate(16,86)"/>
<path d="M0 0 C2.475 0.495 2.475 0.495 5 1 C4.34 12.88 3.68 24.76 3 37 C2.01 36.34 1.02 35.68 0 35 C-0.26686213 32.30459685 -0.34818073 29.84152536 -0.29296875 27.1484375 C-0.28872391 26.37440582 -0.28447906 25.60037415 -0.28010559 24.80288696 C-0.26328998 22.32657323 -0.22563395 19.85106842 -0.1875 17.375 C-0.17245682 15.69792841 -0.15876778 14.02084408 -0.14648438 12.34375 C-0.11337721 8.22885419 -0.06157637 4.11456431 0 0 Z " fill="#020202" transform="translate(244,26)"/>
<path d="M0 0 C-2.93720508 1.52299523 -5.9168649 2.80100302 -9 4 C-8.28972656 4.18175781 -7.57945313 4.36351562 -6.84765625 4.55078125 C-5.92855469 4.80214844 -5.00945313 5.05351563 -4.0625 5.3125 C-3.14597656 5.55613281 -2.22945312 5.79976563 -1.28515625 6.05078125 C-0.53105469 6.36402344 0.22304688 6.67726563 1 7 C1.495 8.485 1.495 8.485 2 10 C2.66 10 3.32 10 4 10 C4.495 12.475 4.495 12.475 5 15 C4.45730469 14.72285156 3.91460937 14.44570312 3.35546875 14.16015625 C2.28232422 13.61681641 2.28232422 13.61681641 1.1875 13.0625 C0.12595703 12.52302734 0.12595703 12.52302734 -0.95703125 11.97265625 C-4.73251074 10.17515263 -8.05347384 9.74866326 -12.1875 9.4375 C-13.27417969 9.35371094 -14.36085938 9.26992187 -15.48046875 9.18359375 C-16.31191406 9.12300781 -17.14335937 9.06242188 -18 9 C-18.33 9.66 -18.66 10.32 -19 11 C-21.97 11 -24.94 11 -28 11 C-26.02 12.32 -24.04 13.64 -22 15 C-25 16 -25 16 -26.82421875 15.109375 C-27.74654297 14.43648437 -27.74654297 14.43648437 -28.6875 13.75 C-29.31011719 13.31171875 -29.93273437 12.8734375 -30.57421875 12.421875 C-31.04472656 11.95265625 -31.51523437 11.4834375 -32 11 C-32 10.01 -32 9.02 -32 8 C-22.43 8 -12.86 8 -3 8 C-6.54988771 7.11252807 -9.14180778 6.89454533 -12.75 6.9375 C-13.73484375 6.94652344 -14.7196875 6.95554687 -15.734375 6.96484375 C-16.85585938 6.98224609 -16.85585938 6.98224609 -18 7 C-18 6.34 -18 5.68 -18 5 C-15.94175571 4.15621025 -13.87820214 3.32536378 -11.8125 2.5 C-10.66394531 2.0359375 -9.51539062 1.571875 -8.33203125 1.09375 C-5.28009923 0.09194348 -3.16884928 -0.23870804 0 0 Z " fill="#131313" transform="translate(33,0)"/>
<path d="M0 0 C0.99 0.33 1.98 0.66 3 1 C2.34 1 1.68 1 1 1 C0.7525 1.5775 0.505 2.155 0.25 2.75 C-1 5 -1 5 -3 6.875 C-5.46456626 9.49360165 -6.11483145 11.52741569 -7 15 C-7.309375 16.0725 -7.61875 17.145 -7.9375 18.25 C-8.02657318 23.59439065 -5.8815606 27.56290669 -3 32 C-2.34 32.33 -1.68 32.66 -1 33 C-1.03480469 32.19175781 -1.06960938 31.38351563 -1.10546875 30.55078125 C-1.13253906 29.48214844 -1.15960938 28.41351563 -1.1875 27.3125 C-1.22230469 26.25675781 -1.25710938 25.20101562 -1.29296875 24.11328125 C-0.96666615 20.64577232 0.00969875 18.81567552 2 16 C2.33 16.66 2.66 17.32 3 18 C2.69707031 18.59941406 2.39414063 19.19882813 2.08203125 19.81640625 C0.17686516 23.6611277 0.52263303 27.80599016 1 32 C2.46111016 34.79897943 2.46111016 34.79897943 4 37 C3.58984375 39.1328125 3.58984375 39.1328125 3 41 C-4.55969147 34.07855641 -9.16350197 29.48285972 -10.5 19.125 C-10.23224354 12.66059396 -6.67866349 6.40465918 -2.1875 1.875 C-1.465625 1.25625 -0.74375 0.6375 0 0 Z " fill="#141414" transform="translate(12,68)"/>
<path d="M0 0 C3.375 -0.125 3.375 -0.125 7 0 C7.66 0.66 8.32 1.32 9 2 C9.804375 1.505 9.804375 1.505 10.625 1 C13.5391061 -0.22699204 15.86867708 -0.14233286 19 0 C18 3 18 3 17 4 C17.185625 4.639375 17.37125 5.27875 17.5625 5.9375 C17.706875 6.618125 17.85125 7.29875 18 8 C17.34 8.66 16.68 9.32 16 10 C13.375 9.625 13.375 9.625 11 9 C11.66 8.34 12.32 7.68 13 7 C13.99 7.33 14.98 7.66 16 8 C14.68 6.68 13.36 5.36 12 4 C11.55269531 4.433125 11.10539063 4.86625 10.64453125 5.3125 C5.64493997 9.91766724 5.64493997 9.91766724 2.0625 10.375 C1.381875 10.25125 0.70125 10.1275 0 10 C-1.60339848 6.88228073 -2.18974141 5.60988311 -1.125 2.1875 C-0.75375 1.465625 -0.3825 0.74375 0 0 Z M2 2 C1.34 3.65 0.68 5.3 0 7 C1.65614657 7.38218767 3.32457024 7.71395102 5 8 C6.29633621 6.93354885 6.29633621 6.93354885 6.0625 4.4375 C6.041875 3.633125 6.02125 2.82875 6 2 C4.68 2 3.36 2 2 2 Z " fill="#131313" transform="translate(132,11)"/>
<path d="M0 0 C5.5255814 -0.1255814 5.5255814 -0.1255814 8.125 0.5625 C10.3857569 1.09000994 11.81515292 0.70227228 14 0 C14.33 1.32 14.66 2.64 15 4 C12.38058783 5.74627478 10.96175123 6.38722388 8 7 C8 7.66 8 8.32 8 9 C6.35 9 4.7 9 3 9 C2.34 7.68 1.68 6.36 1 5 C0.67 5.66 0.34 6.32 0 7 C-1.9375 6.625 -1.9375 6.625 -4 6 C-4.33 5.34 -4.66 4.68 -5 4 C-4.01 4 -3.02 4 -2 4 C-2 3.34 -2 2.68 -2 2 C-1.34 2 -0.68 2 0 2 C0 1.34 0 0.68 0 0 Z " fill="#030303" transform="translate(43,109)"/>
<path d="M0 0 C3.375 -0.125 3.375 -0.125 7 0 C7.66 0.66 8.32 1.32 9 2 C8.835 2.78375 8.67 3.5675 8.5 4.375 C7.92129477 7.41320245 8.38788051 8.43957492 10 11 C6.47652211 11.9395941 3.68770169 12 0 12 C0 8.04 0 4.08 0 0 Z M4 2 C5 4 5 4 5 4 Z " fill="#111111" transform="translate(82,84)"/>
<path d="M0 0 C2.99357002 1.49678501 3.55176584 4.0285712 4.90234375 6.9921875 C6.03893085 9.0712116 7.29659675 10.37486123 9 12 C10.1875 14.1875 10.1875 14.1875 11 16 C7.20411134 15.45773019 5.52788007 13.79872437 3 11 C2.01 11.99 1.02 12.98 0 14 C-0.69867188 13.21753906 -1.39734375 12.43507813 -2.1171875 11.62890625 C-3.0362998 10.60662828 -3.95557934 9.58450065 -4.875 8.5625 C-5.33519531 8.04623047 -5.79539062 7.52996094 -6.26953125 6.99804688 C-8.81793085 4.10512063 -8.81793085 4.10512063 -12 2 C-12 5.96 -12 9.92 -12 14 C-12.33 14 -12.66 14 -13 14 C-13 9.71 -13 5.42 -13 1 C-11.35 1 -9.7 1 -8 1 C-6.95884159 2.30144802 -5.96113866 3.63838689 -5 5 C-2.41501488 6.26847685 -2.41501488 6.26847685 0 7 C-0.99 7.495 -0.99 7.495 -2 8 C-0.68 8.66 0.64 9.32 2 10 C1.01 7.03 0.02 4.06 -1 1 C-0.67 0.67 -0.34 0.34 0 0 Z " fill="#111111" transform="translate(275,52)"/>
<path d="M0 0 C2.15130436 0.46099379 3.85096751 0.90944438 5.7421875 2.05859375 C8.80225009 3.3345022 11.09063246 3.00521854 14.375 2.6875 C16.02628906 2.53861328 16.02628906 2.53861328 17.7109375 2.38671875 C20.82982684 2.02000848 23.90801603 1.54646847 27 1 C21.79309778 5.24773602 19.52975031 6.17023823 12.75 6.25 C11.44546875 6.27578125 10.1409375 6.3015625 8.796875 6.328125 C4.81908881 5.9843657 2.41064134 5.01249023 -1 3 C-0.67 2.01 -0.34 1.02 0 0 Z " fill="#030303" transform="translate(117,74)"/>
<path d="M0 0 C0.99 0 1.98 0 3 0 C3 1.32 3 2.64 3 4 C3.66 4 4.32 4 5 4 C5.33 2.68 5.66 1.36 6 0 C6.99 0 7.98 0 9 0 C9.33 0.99 9.66 1.98 10 3 C10.99 2.01 11.98 1.02 13 0 C12.43697042 3.94120709 11.3208055 6.7508723 9 10 C8.34 10 7.68 10 7 10 C6.67 8.68 6.34 7.36 6 6 C5.34 7.32 4.68 8.64 4 10 C3.01 9.67 2.02 9.34 1 9 C0.67 6.03 0.34 3.06 0 0 Z " fill="#131313" transform="translate(156,11)"/>
<path d="M0 0 C3 1 3 1 4.16796875 2.99609375 C4.50441406 3.80175781 4.84085937 4.60742188 5.1875 5.4375 C5.53167969 6.24058594 5.87585938 7.04367188 6.23046875 7.87109375 C7 10 7 10 7 12 C5.68 12 4.36 12 3 12 C2.67 10.68 2.34 9.36 2 8 C1.01 8.33 0.02 8.66 -1 9 C-1.33 9.99 -1.66 10.98 -2 12 C-2.99 11.67 -3.98 11.34 -5 11 C-3.77472971 6.94718288 -2.30119506 3.55639236 0 0 Z " fill="#121212" transform="translate(267,84)"/>
<path d="M0 0 C2.64 0 5.28 0 8 0 C7.99214478 1.46638916 7.99214478 1.46638916 7.98413086 2.96240234 C7.96585499 6.63394229 7.95448651 10.30547832 7.94506836 13.97705078 C7.94007927 15.55778686 7.93328562 17.13851841 7.92456055 18.71923828 C7.8788619 27.21918732 7.92483876 35.55109515 9 44 C6.27456417 39.91184626 6.20907129 36.25774852 5.75 31.4375 C5.61489014 30.04785034 5.61489014 30.04785034 5.47705078 28.63012695 C4.73381798 19.56531364 5.57892863 10.95274963 7 2 C5.35 2 3.7 2 2 2 C1.67 4.31 1.34 6.62 1 9 C0.67 9 0.34 9 0 9 C0 6.03 0 3.06 0 0 Z " fill="#101010" transform="translate(202,24)"/>
<path d="M0 0 C0.99 0 1.98 0 3 0 C3 1.32 3 2.64 3 4 C3.66 4 4.32 4 5 4 C5.33 2.68 5.66 1.36 6 0 C6.66 0 7.32 0 8 0 C8.33 0.99 8.66 1.98 9 3 C9.66 2.01 10.32 1.02 11 0 C11.66 0 12.32 0 13 0 C11.8905928 3.48670834 10.73662334 6.77484237 9 10 C8.01 10 7.02 10 6 10 C5.67 8.68 5.34 7.36 5 6 C4.67 7.32 4.34 8.64 4 10 C3.34 10 2.68 10 2 10 C1.34 6.7 0.68 3.4 0 0 Z " fill="#121212" transform="translate(107,11)"/>
<path d="M0 0 C0.99 0 1.98 0 3 0 C3.93385816 2.80157448 4.16354595 4.65447803 4.1875 7.5625 C4.20167969 8.34753906 4.21585937 9.13257813 4.23046875 9.94140625 C4 12 4 12 2 14 C0.68 14 -0.64 14 -2 14 C-1.98259766 13.07767578 -1.98259766 13.07767578 -1.96484375 12.13671875 C-1.95582031 11.32847656 -1.94679688 10.52023438 -1.9375 9.6875 C-1.92589844 8.88699219 -1.91429687 8.08648437 -1.90234375 7.26171875 C-1.90342145 4.83138666 -1.90342145 4.83138666 -3 2 C-2.01 2 -1.02 2 0 2 C0 1.34 0 0.68 0 0 Z " fill="#030303" transform="translate(285,30)"/>
<path d="M0 0 C0.99 0 1.98 0 3 0 C3.67354499 1.43429001 4.33859701 2.87257057 5 4.3125 C5.556875 5.51326172 5.556875 5.51326172 6.125 6.73828125 C7 9 7 9 7 12 C5.0625 11.625 5.0625 11.625 3 11 C2.67 10.34 2.34 9.68 2 9 C1.01 8.67 0.02 8.34 -1 8 C-1.33 9.32 -1.66 10.64 -2 12 C-2.66 12 -3.32 12 -4 12 C-3.52309796 10.37433394 -3.04340334 8.74948689 -2.5625 7.125 C-2.29566406 6.22007813 -2.02882812 5.31515625 -1.75390625 4.3828125 C-1 2 -1 2 0 0 Z " fill="#111111" transform="translate(132,84)"/>
<path d="M0 0 C0.99 0.99 1.98 1.98 3 3 C1.125 6.875 1.125 6.875 0 8 C-0.14463277 9.43980433 -0.22698228 10.88599869 -0.28125 12.33203125 C-0.31863281 13.21310547 -0.35601562 14.09417969 -0.39453125 15.00195312 C-0.42933594 15.92943359 -0.46414063 16.85691406 -0.5 17.8125 C-0.56913057 19.63165824 -0.64191588 21.45068209 -0.71875 23.26953125 C-0.74904297 24.08010986 -0.77933594 24.89068848 -0.81054688 25.72583008 C-0.99322949 27.91872765 -1.40173767 29.88640216 -2 32 C1.465 31.505 1.465 31.505 5 31 C5 31.66 5 32.32 5 33 C2.36 33 -0.28 33 -3 33 C-2.98952637 32.3294458 -2.97905273 31.6588916 -2.96826172 30.96801758 C-2.92656829 27.91621684 -2.90063147 24.86447616 -2.875 21.8125 C-2.85824219 20.75740234 -2.84148437 19.70230469 -2.82421875 18.61523438 C-2.81455078 17.08286133 -2.81455078 17.08286133 -2.8046875 15.51953125 C-2.79421387 14.58214111 -2.78374023 13.64475098 -2.77294922 12.67895508 C-3.01833287 9.78369188 -3.79478381 7.62937303 -5 5 C-3.68 5 -2.36 5 -1 5 C-0.67 3.35 -0.34 1.7 0 0 Z " fill="#111111" transform="translate(312,47)"/>
<path d="M0 0 C2.31 0 4.62 0 7 0 C7 0.66 7 1.32 7 2 C5.68 2 4.36 2 3 2 C3 2.66 3 3.32 3 4 C4.32 4.33 5.64 4.66 7 5 C5.68 5.33 4.36 5.66 3 6 C3 6.99 3 7.98 3 9 C4.32 9 5.64 9 7 9 C7 9.99 7 10.98 7 12 C4.69 12 2.38 12 0 12 C0 8.04 0 4.08 0 0 Z " fill="#111111" transform="translate(196,84)"/>
<path d="M0 0 C5 2 5 2 7.0625 3.0625 C9.02808497 4.0135895 10.8703909 4.54365519 13 5 C13 5.66 13 6.32 13 7 C8.24126419 6.44665863 6.34289662 5.60573797 2 3 C2 14.22 2 25.44 2 37 C1.34 37 0.68 37 0 37 C0 24.79 0 12.58 0 0 Z " fill="#151515" transform="translate(6,34)"/>
<path d="M0 0 C0.185625 0.598125 0.37125 1.19625 0.5625 1.8125 C2.7343063 5.11742263 5.269403 6.15878695 9 7 C16.60196942 7.66026495 23.27243098 7.80253901 30 4 C30.804375 3.608125 31.60875 3.21625 32.4375 2.8125 C32.953125 2.544375 33.46875 2.27625 34 2 C33.4375 3.8125 33.4375 3.8125 32 6 C26.74365092 8.76226508 22.45765994 9.51929477 16.5625 9.4375 C15.81476318 9.43137695 15.06702637 9.42525391 14.29663086 9.41894531 C8.59695333 9.25700496 4.68653161 8.44316608 0 5 C-1.19140625 2.859375 -1.19140625 2.859375 -2 1 C-1.34 0.67 -0.68 0.34 0 0 Z " fill="#151515" transform="translate(208,72)"/>
<path d="M0 0 C0.99 0 1.98 0 3 0 C3 1.32 3 2.64 3 4 C3.99 4 4.98 4 6 4 C6.33 2.68 6.66 1.36 7 0 C7.99 0 8.98 0 10 0 C9.34 3.3 8.68 6.6 8 10 C7.01 10 6.02 10 5 10 C5.33 8.35 5.66 6.7 6 5 C4.68 5 3.36 5 2 5 C1.67 6.65 1.34 8.3 1 10 C0.34 10 -0.32 10 -1 10 C-0.67 6.7 -0.34 3.4 0 0 Z " fill="#121212" transform="translate(170,11)"/>
<path d="M0 0 C-1.32 0.33 -2.64 0.66 -4 1 C-4 1.66 -4 2.32 -4 3 C-2.68 3.33 -1.36 3.66 0 4 C0 5.98 0 7.96 0 10 C-1.98 10.33 -3.96 10.66 -6 11 C-6.33 9.68 -6.66 8.36 -7 7 C-5.68 7.33 -4.36 7.66 -3 8 C-3.66 7.4225 -4.32 6.845 -5 6.25 C-7 4 -7 4 -7 0 C-4.3333581 -1.33332095 -2.83319697 -0.67102033 0 0 Z " fill="#101010" transform="translate(225,85)"/>
<path d="M0 0 C0.495 1.485 0.495 1.485 1 3 C-3.49774745 7.89460752 -7.53013588 11.05584154 -14.3125 11.3984375 C-15.8749996 11.40632891 -17.43765276 11.39820318 -19 11.375 C-20.17175781 11.39240234 -20.17175781 11.39240234 -21.3671875 11.41015625 C-26.29533381 11.38526662 -29.73924227 10.72954792 -34 8 C-34.33 7.34 -34.66 6.68 -35 6 C-32.79291903 6.49046244 -30.86933623 7.06009136 -28.80859375 8.0078125 C-22.42095601 10.26436324 -14.34544564 10.42349835 -8.08984375 7.76171875 C-4.57928305 5.46130255 -2.34103992 3.51155989 0 0 Z " fill="#151515" transform="translate(148,70)"/>
<path d="M0 0 C1.76150391 -0.02126953 1.76150391 -0.02126953 3.55859375 -0.04296875 C6.5625 0.1875 6.5625 0.1875 8.5625 2.1875 C5.44496793 4.62307193 3.31481509 5.44164705 -0.5625 5.0625 C-5.52069468 3.94290765 -5.52069468 3.94290765 -7.4375 1.1875 C-5.56506019 -0.68493981 -2.50090482 0.01369608 0 0 Z " fill="#090909" transform="translate(45.4375,65.8125)"/>
<path d="M0 0 C2.97 0.99 5.94 1.98 9 3 C6 4 6 4 4.16015625 3.27734375 C1.75502161 2.72255522 1.75502161 2.72255522 -0.69140625 4.87890625 C-1.63886719 5.76449219 -2.58632813 6.65007813 -3.5625 7.5625 C-4.51253906 8.43003906 -5.46257813 9.29757813 -6.44140625 10.19140625 C-8.99602435 12.99563589 -10.49088425 15.53970428 -12 19 C-13.26549993 15.20350022 -12.30826178 13.69391563 -11 10 C-11 9.01 -11 8.02 -11 7 C-9.39125 6.9071875 -9.39125 6.9071875 -7.75 6.8125 C-3.87769628 6.33465643 -3.87769628 6.33465643 -1.5625 3.5 C0.08833316 1.35002013 0.08833316 1.35002013 0 0 Z " fill="#111111" transform="translate(34,31)"/>
<path d="M0 0 C0.66 0 1.32 0 2 0 C3.625 2 3.625 2 5 4 C5.33 2.68 5.66 1.36 6 0 C6.66 0 7.32 0 8 0 C8 3.3 8 6.6 8 10 C4 8 4 8 3 6 C2.67 7.32 2.34 8.64 2 10 C1.01 10 0.02 10 -1 10 C-0.67 6.7 -0.34 3.4 0 0 Z " fill="#121212" transform="translate(202,11)"/>
<path d="M0 0 C0.99 0 1.98 0 3 0 C3 0.99 3 1.98 3 3 C3.99 3.33 4.98 3.66 6 4 C6.33 2.68 6.66 1.36 7 0 C7.66 0 8.32 0 9 0 C8.67 3.3 8.34 6.6 8 10 C7.01 10 6.02 10 5 10 C5.33 8.35 5.66 6.7 6 5 C4.68 5 3.36 5 2 5 C1.67 6.65 1.34 8.3 1 10 C0.01 9.67 -0.98 9.34 -2 9 C-1.34 6.03 -0.68 3.06 0 0 Z " fill="#121212" transform="translate(121,11)"/>
<path d="M0 0 C3 0.25 3 0.25 5 2.25 C5.375 4.6875 5.375 4.6875 5 7.25 C3.3125 9.125 3.3125 9.125 1 10.25 C-3.41025641 9.83974359 -3.41025641 9.83974359 -5 8.25 C-5.1875 5.3125 -5.1875 5.3125 -5 2.25 C-3 0.25 -3 0.25 0 0 Z M0 1.25 C-1.64555699 2.47809091 -1.64555699 2.47809091 -3 4.25 C-2.77242269 6.41299211 -2.77242269 6.41299211 -2 8.25 C-0.68 7.92 0.64 7.59 2 7.25 C2.33 5.93 2.66 4.61 3 3.25 C2.01 2.59 1.02 1.93 0 1.25 Z " fill="#121212" transform="translate(185,10.75)"/>
<path d="M0 0 C1.98 0 3.96 0 6 0 C6 0.66 6 1.32 6 2 C5.01 2 4.02 2 3 2 C3 2.66 3 3.32 3 4 C3.99 4 4.98 4 6 4 C6 4.66 6 5.32 6 6 C5.01 6 4.02 6 3 6 C3 6.99 3 7.98 3 9 C3.99 9 4.98 9 6 9 C6 9.99 6 10.98 6 12 C4.02 12 2.04 12 0 12 C0 8.04 0 4.08 0 0 Z " fill="#0F0F0F" transform="translate(311,84)"/>
<path d="M0 0 C1.98 0 3.96 0 6 0 C6 0.66 6 1.32 6 2 C5.01 2 4.02 2 3 2 C3 2.66 3 3.32 3 4 C3.99 4 4.98 4 6 4 C6 4.66 6 5.32 6 6 C5.01 6 4.02 6 3 6 C3 6.99 3 7.98 3 9 C3.99 9 4.98 9 6 9 C6 9.99 6 10.98 6 12 C4.02 12 2.04 12 0 12 C0 8.04 0 4.08 0 0 Z " fill="#0C0C0C" transform="translate(107,84)"/>
<path d="M0 0 C3.59930552 2.62652025 6.07666989 4.93963643 8 9 C6.74458443 11.51083114 5.49936512 11.87125446 3 13 C2.566875 11.88625 2.566875 11.88625 2.125 10.75 C1.09690198 8.06203107 1.09690198 8.06203107 -0.1875 5.9375 C-1.18971474 3.5476033 -0.85580298 2.39624834 0 0 Z " fill="#050505" transform="translate(305,40)"/>
<path d="M0 0 C1.32 0.33 2.64 0.66 4 1 C3.67 3.64 3.34 6.28 3 9 C4.32 9 5.64 9 7 9 C7 9.99 7 10.98 7 12 C4.69 12 2.38 12 0 12 C0 8.04 0 4.08 0 0 Z " fill="#151515" transform="translate(154,84)"/>
<path d="M0 0 C3.3 0 6.6 0 10 0 C10 0.66 10 1.32 10 2 C9.01 2 8.02 2 7 2 C7 5.3 7 8.6 7 12 C5.68 12 4.36 12 3 12 C3 9.03 3 6.06 3 3 C2.01 2.67 1.02 2.34 0 2 C0 1.34 0 0.68 0 0 Z " fill="#101010" transform="translate(286,84)"/>
<path d="M0 0 C0.66 0.99 1.32 1.98 2 3 C1.5875 3.391875 1.175 3.78375 0.75 4.1875 C-1.32884913 6.34059374 -3.15468957 8.64563841 -5 11 C-3.04105639 10.88693303 -3.04105639 10.88693303 -1 10 C0.29660434 7.50965614 0.29660434 7.50965614 1 5 C1.66 5 2.32 5 3 5 C1.125 10.75 1.125 10.75 0 13 C-2.64 13 -5.28 13 -8 13 C-6.40956621 7.91061189 -3.2553049 4.12543357 0 0 Z " fill="#141414" transform="translate(164,67)"/>
<path d="M0 0 C3.84783484 3.06077771 7.14732623 5.94042579 10 10 C10 10.66 10 11.32 10 12 C6.29013428 12.28783441 2.70001295 12.45251957 -1 12 C-3.6875 9.5 -3.6875 9.5 -5 7 C-4.67 6.34 -4.34 5.68 -4 5 C-2.5 6.375 -2.5 6.375 -1 8 C-1 8.66 -1 9.32 -1 10 C1.31 10 3.62 10 6 10 C5.34 8.35 4.68 6.7 4 5 C3.34 5 2.68 5 2 5 C1.34 3.35 0.68 1.7 0 0 Z " fill="#141414" transform="translate(286,68)"/>
<path d="M0 0 C-1.175625 0.433125 -2.35125 0.86625 -3.5625 1.3125 C-4.65304688 1.73015625 -4.65304688 1.73015625 -5.765625 2.15625 C-7.16188343 2.68350843 -8.56735884 3.18763048 -9.984375 3.65625 C-13.61562566 4.95977588 -14.90222129 5.83913826 -16.9375 9.1875 C-17.288125 10.115625 -17.63875 11.04375 -18 12 C-18.99 11.34 -19.98 10.68 -21 10 C-20.67 9.01 -20.34 8.02 -20 7 C-19.34 7 -18.68 7 -18 7 C-18 6.34 -18 5.68 -18 5 C-17.34 5 -16.68 5 -16 5 C-16 4.34 -16 3.68 -16 3 C-14.58398286 2.51891725 -13.16715563 2.04021859 -11.75 1.5625 C-10.96109375 1.29566406 -10.1721875 1.02882813 -9.359375 0.75390625 C-3.4260355 -1.14201183 -3.4260355 -1.14201183 0 0 Z " fill="#141414" transform="translate(56,93)"/>
<path d="M0 0 C1.98 0 3.96 0 6 0 C5.67 10.89 5.34 21.78 5 33 C4.67 33 4.34 33 4 33 C4 22.77 4 12.54 4 2 C3.01 2.33 2.02 2.66 1 3 C0.67 2.01 0.34 1.02 0 0 Z " fill="#101010" transform="translate(148,24)"/>
<path d="M0 0 C2.54698911 2.54698911 2.96985366 4.25139818 3.11352539 7.8190918 C3.10828857 8.93453369 3.10305176 10.04997559 3.09765625 11.19921875 C3.09443359 12.40771484 3.09121094 13.61621094 3.08789062 14.86132812 C3.07951172 16.12396484 3.07113281 17.38660156 3.0625 18.6875 C3.05798828 19.96173828 3.05347656 21.23597656 3.04882812 22.54882812 C3.03702873 25.69926564 3.02056597 28.84960949 3 32 C0.70886268 29.8092961 -0.6975667 27.90542812 -2 25 C-1.01 25.33 -0.02 25.66 1 26 C1.02902429 22.72918529 1.04680684 19.4584037 1.0625 16.1875 C1.07087891 15.25873047 1.07925781 14.32996094 1.08789062 13.37304688 C1.09111328 12.48037109 1.09433594 11.58769531 1.09765625 10.66796875 C1.10289307 9.84578857 1.10812988 9.0236084 1.11352539 8.17651367 C1.08741524 5.81827404 1.08741524 5.81827404 0 3 C0 2.01 0 1.02 0 0 Z " fill="#121212" transform="translate(59,13)"/>
<path d="M0 0 C1.32 0.99 2.64 1.98 4 3 C4.66 3 5.32 3 6 3 C5.52651586 7.1666604 4.95303159 9.92884715 2 13 C1.34 13 0.68 13 0 13 C0 8.71 0 4.42 0 0 Z " fill="#0C0C0C" transform="translate(61,89)"/>
<path d="M0 0 C2.97 0 5.94 0 9 0 C9 0.66 9 1.32 9 2 C8.01 2 7.02 2 6 2 C6 5.3 6 8.6 6 12 C5.01 11.67 4.02 11.34 3 11 C3 8.03 3 5.06 3 2 C2.01 1.67 1.02 1.34 0 1 C0 0.67 0 0.34 0 0 Z " fill="#0E0E0E" transform="translate(240,84)"/>
<path d="M0 0 C0.64324219 0.16371094 1.28648438 0.32742187 1.94921875 0.49609375 C5.92840171 1.15334676 9.7881437 1.106353 13.8125 1.0625 C14.60076172 1.05798828 15.38902344 1.05347656 16.20117188 1.04882812 C18.13414761 1.03711312 20.06708393 1.01917998 22 1 C22.33 2.65 22.66 4.3 23 6 C21.71996094 5.505 21.71996094 5.505 20.4140625 5 C16.82956797 3.9500794 14.0907051 3.86076983 10.375 4 C6.26964093 4.15311363 3.53234559 4.20556212 0 2 C0 1.34 0 0.68 0 0 Z " fill="#141414" transform="translate(9,18)"/>
<path d="M0 0 C3.48478855 2.32319237 5.57184111 4.58745237 8 8 C8.3125 11.375 8.3125 11.375 8 14 C4.084859 10.64416485 1.9204226 6.71933638 0 2 C0 1.34 0 0.68 0 0 Z " fill="#0F0F0F" transform="translate(299,38)"/>
<path d="M0 0 C3.3 0 6.6 0 10 0 C10.33 1.32 10.66 2.64 11 4 C9.02 3.34 7.04 2.68 5 2 C5.33 4.31 5.66 6.62 6 9 C2.91910327 6.22719294 1.31224548 3.93673644 0 0 Z " fill="#121212" transform="translate(290,24)"/>
<path d="M0 0 C0.66 0.33 1.32 0.66 2 1 C1.94199219 1.71285156 1.88398438 2.42570312 1.82421875 3.16015625 C1.48948977 10.26597439 2.25645538 13.66351231 7 19 C4 19 4 19 1.8125 16.875 C-0.2619932 13.58442458 -0.35475877 11.81365679 0 8 C-0.66 7.67 -1.32 7.34 -2 7 C-1.34 4.69 -0.68 2.38 0 0 Z " fill="#141414" transform="translate(30,89)"/>
<path d="M0 0 C0.99 0 1.98 0 3 0 C3 0.99 3 1.98 3 3 C3.66 3 4.32 3 5 3 C5.33 2.01 5.66 1.02 6 0 C8.475 3.465 8.475 3.465 11 7 C6.15833214 6.54961229 3.50331713 5.40027839 0 2 C0 1.34 0 0.68 0 0 Z " fill="#141414" transform="translate(20,108)"/>
<path d="M0 0 C0.66 1.32 1.32 2.64 2 4 C1.34 4 0.68 4 0 4 C0 7.3 0 10.6 0 14 C0.99 14.33 1.98 14.66 3 15 C2.67 16.65 2.34 18.3 2 20 C-1.70683479 15.32616483 -2.30304472 11.95987955 -2 6 C-1 2.5625 -1 2.5625 0 0 Z " fill="#101010" transform="translate(16,86)"/>
<path d="M0 0 C0.99 0 1.98 0 3 0 C3 3.3 3 6.6 3 10 C2.01 10 1.02 10 0 10 C0 6.7 0 3.4 0 0 Z " fill="#121212" transform="translate(196,11)"/>
<path d="M0 0 C2.625 0.9375 2.625 0.9375 5 2 C4.6875 3.875 4.6875 3.875 4 6 C3.01 6.66 2.02 7.32 1 8 C0.34 7.67 -0.32 7.34 -1 7 C-1.625 3.9375 -1.625 3.9375 -2 1 C-1.34 0.67 -0.68 0.34 0 0 Z " fill="#0D0D0D" transform="translate(18,75)"/>
<path d="M0 0 C0.99 0.33 1.98 0.66 3 1 C2.11223998 4.69900008 1.05418136 8.34550461 0 12 C-0.66 11.67 -1.32 11.34 -2 11 C-2.25 3.375 -2.25 3.375 0 0 Z " fill="#080808" transform="translate(317,48)"/>
<path d="M0 0 C5.53846154 0.61538462 5.53846154 0.61538462 7.875 2.5625 C8.431875 3.2740625 8.431875 3.2740625 9 4 C8.34 4 7.68 4 7 4 C7.33 5.32 7.66 6.64 8 8 C7.01 7.67 6.02 7.34 5 7 C4.67 6.01 4.34 5.02 4 4 C1.99983534 2.79117904 1.99983534 2.79117904 0 2 C0 1.34 0 0.68 0 0 Z " fill="#141414" transform="translate(30,44)"/>
<path d="M0 0 C0.66 0 1.32 0 2 0 C2 3.96 2 7.92 2 12 C0.68 12 -0.64 12 -2 12 C-2 11.01 -2 10.02 -2 9 C-1.34 9 -0.68 9 0 9 C0 6.03 0 3.06 0 0 Z " fill="#0E0E0E" transform="translate(112,45)"/>
<path d="M0 0 C-1.2419607 3.43927579 -2.55740284 6.25207819 -5 9 C-5.66 9 -6.32 9 -7 9 C-7.33 9.66 -7.66 10.32 -8 11 C-8 8 -8 8 -6.4375 5.4375 C-5.963125 4.633125 -5.48875 3.82875 -5 3 C-5.33 2.34 -5.66 1.68 -6 1 C-3.92446352 0.4465236 -2.15634036 0 0 0 Z " fill="#131313" transform="translate(199,24)"/>
<path d="M0 0 C-0.4640625 1.1446875 -0.4640625 1.1446875 -0.9375 2.3125 C-1.67893593 4.18789677 -2.36228217 6.08684652 -3 8 C-5.5625 9.1875 -5.5625 9.1875 -8 10 C-7.38302681 8.51746733 -6.75616104 7.03904826 -6.125 5.5625 C-5.60292969 4.32693359 -5.60292969 4.32693359 -5.0703125 3.06640625 C-3.72404309 0.46722187 -2.91428095 0 0 0 Z " fill="#030303" transform="translate(329,33)"/>
<path d="M0 0 C0.33 0.66 0.66 1.32 1 2 C1.99 2 2.98 2 4 2 C4 2.66 4 3.32 4 4 C3.01 4 2.02 4 1 4 C1 4.99 1 5.98 1 7 C1.99 7 2.98 7 4 7 C4 7.99 4 8.98 4 10 C2.02 10 0.04 10 -2 10 C-1.34 9.34 -0.68 8.68 0 8 C0.24212873 6.01871492 0.24212873 6.01871492 0.125 3.875 C0.063125 1.956875 0.063125 1.956875 0 0 Z " fill="#141414" transform="translate(109,86)"/>
<path d="M0 0 C1.32 0.66 2.64 1.32 4 2 C3.34 2 2.68 2 2 2 C1.896875 2.598125 1.79375 3.19625 1.6875 3.8125 C0.90175967 6.31258286 0.03081147 7.37535082 -2 9 C-2.66 9 -3.32 9 -4 9 C-2.80100302 5.9168649 -1.52299523 2.93720508 0 0 Z " fill="#050505" transform="translate(192,25)"/>
<path d="M0 0 C5.86191589 0.40427006 9.2945653 1.19083858 14 5 C14.99 6.485 14.99 6.485 16 8 C13.41246909 7.06561384 11.28416613 6.2273329 9.125 4.5 C6.27552378 2.48860502 3.35766927 1.83941732 0 1 C0 0.67 0 0.34 0 0 Z " fill="#151515" transform="translate(40,0)"/>
<path d="M0 0 C2.15266842 2.15266842 2.93474462 3.84773744 4.125 6.625 C4.47820313 7.44226562 4.83140625 8.25953125 5.1953125 9.1015625 C5.46085937 9.72804688 5.72640625 10.35453125 6 11 C4.68 11 3.36 11 2 11 C2 9.35 2 7.7 2 6 C1.34 6 0.68 6 0 6 C-1.125 2.25 -1.125 2.25 0 0 Z " fill="#0E0E0E" transform="translate(20,53)"/>
<path d="M0 0 C0.66 0 1.32 0 2 0 C2.66 2.64 3.32 5.28 4 8 C2.35 7.67 0.7 7.34 -1 7 C-1.625 5.1875 -1.625 5.1875 -2 3 C-1.34 2.01 -0.68 1.02 0 0 Z " fill="#040404" transform="translate(19,99)"/>
<path d="M0 0 C0.33 0.66 0.66 1.32 1 2 C1.99 2.66 2.98 3.32 4 4 C-0.71599818 4.92470553 -3.67265609 5.22923777 -8 3 C-7.01 2.34 -6.02 1.68 -5 1 C-3.68 1.66 -2.36 2.32 -1 3 C-0.67 2.01 -0.34 1.02 0 0 Z " fill="#0C0C0C" transform="translate(44,113)"/>
<path d="M0 0 C0.99 0 1.98 0 3 0 C3 3.3 3 6.6 3 10 C2.01 10 1.02 10 0 10 C0 6.7 0 3.4 0 0 Z " fill="#0C0C0C" transform="translate(155,85)"/>
<path d="M0 0 C0.33 0.99 0.66 1.98 1 3 C-0.85505895 6.7101179 -3.36113331 9.81516089 -6 13 C-5.51675181 7.84535266 -2.81389239 4.18449681 0 0 Z " fill="#141414" transform="translate(324,34)"/>
<path d="M0 0 C3.43595166 1.52708963 6.11912454 3.59927045 9 6 C7.68 6.33 6.36 6.66 5 7 C4.34 5.68 3.68 4.36 3 3 C2.01 3 1.02 3 0 3 C0 2.01 0 1.02 0 0 Z " fill="#0D0D0D" transform="translate(0,12)"/>
<path d="M0 0 C3.3 0 6.6 0 10 0 C10 0.66 10 1.32 10 2 C7.69 2 5.38 2 3 2 C3.33 3.65 3.66 5.3 4 7 C0 2.25 0 2.25 0 0 Z " fill="#151515" transform="translate(157,24)"/>
<path d="M0 0 C1.73662334 3.22515763 2.8905928 6.51329166 4 10 C2.68 10.33 1.36 10.66 0 11 C0.33 9.68 0.66 8.36 1 7 C0.34 6.67 -0.32 6.34 -1 6 C-0.67 4.02 -0.34 2.04 0 0 Z " fill="#0A0A0A" transform="translate(114,64)"/>
<path d="M0 0 C1.32 0.33 2.64 0.66 4 1 C4.33 2.65 4.66 4.3 5 6 C4.01 5.01 3.02 4.02 2 3 C0.68 4.32 -0.64 5.64 -2 7 C-1.125 2.25 -1.125 2.25 0 0 Z " fill="#121212" transform="translate(175,55)"/>
<path d="M0 0 C1.98 0.99 3.96 1.98 6 3 C4.3125 4.125 4.3125 4.125 2 5 C-0.75 4.125 -0.75 4.125 -3 3 C-2.01 2.01 -1.02 1.02 0 0 Z " fill="#0B0B0B" transform="translate(18,63)"/>
<path d="M0 0 C3.29078593 2.79716804 5.06305458 6.19528578 7 10 C6.67 10.66 6.34 11.32 6 12 C2.44992282 8.0949151 1.18180084 5.02265357 0 0 Z " fill="#141414" transform="translate(305,35)"/>
<path d="M0 0 C0.99 0.33 1.98 0.66 3 1 C-0.96 2.98 -0.96 2.98 -5 5 C-5.66 3.68 -6.32 2.36 -7 1 C-5.5459375 1.0309375 -5.5459375 1.0309375 -4.0625 1.0625 C-1.12534105 1.35618499 -1.12534105 1.35618499 0 0 Z " fill="#131313" transform="translate(56,113)"/>
<path d="M0 0 C0.66 0 1.32 0 2 0 C1.38722388 2.96175123 0.74627478 4.38058783 -1 7 C-1.66 5.68 -2.32 4.36 -3 3 C-2.01 2.67 -1.02 2.34 0 2 C0 1.34 0 0.68 0 0 Z " fill="#0C0C0C" transform="translate(38,98)"/>
<path d="M0 0 C0.33 0.99 0.66 1.98 1 3 C-0.32 3.99 -1.64 4.98 -3 6 C-3.66 5.67 -4.32 5.34 -5 5 C-4 2 -4 2 -1.9375 0.8125 C-1.298125 0.544375 -0.65875 0.27625 0 0 Z " fill="#101010" transform="translate(57,44)"/>
<path d="M0 0 C-0.33 1.32 -0.66 2.64 -1 4 C-4.875 2.25 -4.875 2.25 -6 0 C-3.50907189 -1.24546405 -2.58919267 -0.7767578 0 0 Z " fill="#0C0C0C" transform="translate(14,32)"/>
<path d="M0 0 C2.97 0.495 2.97 0.495 6 1 C6 1.66 6 2.32 6 3 C4.35 3.33 2.7 3.66 1 4 C0.67 2.68 0.34 1.36 0 0 Z " fill="#171717" transform="translate(320,92)"/>
<path d="M0 0 C2.25 0.25 2.25 0.25 4 1 C3.67 1.66 3.34 2.32 3 3 C0.67843403 3.40729228 -1.6568787 3.74438677 -4 4 C-2.25 1.9375 -2.25 1.9375 0 0 Z " fill="#121212" transform="translate(47,82)"/>
<path d="M0 0 C1.32 0 2.64 0 4 0 C4 0.66 4 1.32 4 2 C2.68 1.67 1.36 1.34 0 1 C0 0.67 0 0.34 0 0 Z " fill="#131313" transform="translate(1,68)"/>
<path d="" fill="#181818" transform="translate(0,0)"/>
</svg>
