<?xml version="1.0" encoding="UTF-8"?>
<svg version="1.1" xmlns="http://www.w3.org/2000/svg" width="300" height="150">
<path d="M0 0 C7.92 0 15.84 0 24 0 C24 0.99 24 1.98 24 3 C21.69 3 19.38 3 17 3 C16.912158 7.47904099 16.85932553 11.95785724 16.8125 16.4375 C16.78736328 17.69755859 16.76222656 18.95761719 16.73632812 20.25585938 C16.67928889 27.53786796 17.2035605 33.2547824 20 40 C20.66 40 21.32 40 22 40 C23.40124435 38.50099442 24.74613459 36.94906657 26.0625 35.375 C31.4207736 29.29193577 36.79035558 24.27737474 45 23 C44.85982174 20.02046641 44.71313658 17.04150696 44.5625 14.0625 C44.52318359 13.21236328 44.48386719 12.36222656 44.44335938 11.48632812 C44.40146484 10.67744141 44.35957031 9.86855469 44.31640625 9.03515625 C44.27974854 8.2862915 44.24309082 7.53742676 44.20532227 6.76586914 C44.18228937 4.97538674 44.18228937 4.97538674 43 4 C40.67182036 3.63239269 38.3381615 3.29758419 36 3 C36 2.01 36 1.02 36 0 C42.93 0 49.86 0 57 0 C57 0.99 57 1.98 57 3 C54.69 3.33 52.38 3.66 50 4 C49.67 10.27 49.34 16.54 49 23 C50.65 23.66 52.3 24.32 54 25 C55.5 27.3125 55.5 27.3125 56 30 C54.9375 32.75 54.9375 32.75 53 35 C51.7934375 35.1546875 51.7934375 35.1546875 50.5625 35.3125 C47.91253391 35.70857784 47.91253391 35.70857784 46.96484375 37.6875 C46.3124365 39.12438075 45.66143216 40.56189917 45.01171875 42 C42.78401312 46.40380418 39.10352204 48.11286265 34.6875 49.8125 C30.09771864 51.24488143 26.67934659 50.93586932 22 50 C21.5978125 51.0828125 21.5978125 51.0828125 21.1875 52.1875 C20.009374 54.97779843 18.5811596 57.42249326 17 60 C17.66008057 59.97905273 18.32016113 59.95810547 19.00024414 59.93652344 C22.02083818 59.85284607 25.04118759 59.80117771 28.0625 59.75 C29.62000977 59.69972656 29.62000977 59.69972656 31.20898438 59.6484375 C37.75585121 59.56530268 41.68526691 60.08915867 47 64 C51.39056979 68.50923384 52.81885532 72.71757709 53.3125 78.9375 C53.1328097 85.2146812 50.40465366 90.59534634 46 95 C40.21592954 98.42322538 34.63434854 98.84003262 28 98 C22.41381872 96.41204999 19.10859047 93.55179595 15.91015625 88.78125 C13.53577702 84.13439623 13.27545864 79.00085634 14.49609375 73.9453125 C16.10150216 69.13815737 18.17872391 66.30488743 22 63 C19.69 62.67 17.38 62.34 15 62 C14.72994141 62.72131104 14.45988281 63.44262207 14.18164062 64.18579102 C12.13652884 69.0564529 9.24858381 73.43742502 6.5 77.9375 C5.92507812 78.89462891 5.35015625 79.85175781 4.7578125 80.83789062 C1.29713242 86.52383334 -2.35740991 91.99098617 -6.24804688 97.38891602 C-6.70709412 98.02857552 -7.16614136 98.66823502 -7.63909912 99.32727814 C-8.75794452 100.8858975 -9.87876552 102.44309839 -11 104 C-9.79540933 104.00634791 -9.79540933 104.00634791 -8.5664835 104.01282406 C10.94498186 104.11598525 30.45640982 104.22460088 49.96781063 104.33933926 C59.40325094 104.39469264 68.83869502 104.44817805 78.27416992 104.49731445 C86.49506059 104.54013045 94.71592317 104.5864018 102.9367705 104.63687855 C107.29240674 104.66350039 111.64803733 104.68835389 116.00370598 104.70907402 C120.09859344 104.72860808 124.19342735 104.75274196 128.28826714 104.78049088 C129.79557832 104.78987849 131.30290128 104.79754757 132.81023026 104.80341911 C134.85930427 104.81165125 136.90834851 104.82651687 138.9573822 104.84178162 C140.10685805 104.84823417 141.2563339 104.85468672 142.44064236 104.8613348 C145 105 145 105 146 106 C146.04080783 107.99958364 146.04254356 110.00045254 146 112 C91.33333333 112 36.66666667 112 -18 112 C-18.95040267 112.98950151 -19.85976376 114.0185374 -20.75 115.0625 C-27.7260503 122.2887462 -37.8879891 126.5992124 -47.8125 127.25 C-53.77768449 127.14870441 -58.3177117 125.36014799 -62.9375 121.625 C-65.15334801 118.8048298 -65.91530965 117.55699483 -66 114 C-65.32582912 110.44528079 -64.76568394 107.88348147 -62.375 105.125 C-58.9397699 103.49778574 -55.78352059 103.31529338 -52 103 C-52 103.66 -52 104.32 -52 105 C-51.10168457 105 -50.20336914 105 -49.27783203 105 C-39.51855469 105 -29.75927734 105 -20 105 C-18.45371755 103.16202532 -17.06648166 101.33520534 -15.6875 99.375 C-15.25743652 98.76978516 -14.82737305 98.16457031 -14.38427734 97.54101562 C-9.10192979 89.93981653 -4.51920791 81.91047847 0.1171875 73.90625 C2.28632469 70.17153698 4.54750455 66.55434123 7 63 C5.02 62.67 3.04 62.34 1 62 C1 61.34 1 60.68 1 60 C2.19625 60.020625 3.3925 60.04125 4.625 60.0625 C7.63377843 59.70852607 8.74741899 59.25621154 10.90234375 57.0703125 C14.08928875 52.85705137 14.08928875 52.85705137 14.7734375 47.85546875 C14.0152372 45.78809095 14.0152372 45.78809095 12.0625 43.625 C8.19233005 38.69932916 7.73791386 33.76252578 7.5859375 27.6328125 C7.56657135 26.95322479 7.5472052 26.27363708 7.5272522 25.57345581 C7.46794901 23.42409421 7.42127109 21.27467759 7.375 19.125 C7.33677468 17.6588321 7.29772036 16.19268557 7.2578125 14.7265625 C7.16228956 11.15123836 7.07807874 7.57575252 7 4 C4.69 3.34 2.38 2.68 0 2 C0 1.34 0 0.68 0 0 Z M36.13671875 30.85546875 C32.02825094 34.97895838 27.85901743 39.4229477 26 45 C30.95184773 45.35230537 34.85505509 45.5204295 39.4375 43.4375 C43.00758672 40.04156385 44.78368221 36.74483238 45.17578125 31.76953125 C45.1859974 29.8454889 45.10112685 27.92141008 45 26 C40.72042177 26 39.21553262 28.06120329 36.13671875 30.85546875 Z M49 28 C50 32 50 32 50 32 Z M26 65 C21.7123733 69.88313041 20.76134143 74.66122847 21 81 C22.05422326 86.89618672 24.04123828 91.39362784 29 95 C33.07284906 96.18482882 35.23611411 96.26442204 39.25 94.875 C43.12805998 92.23086819 44.54060512 90.20438317 45.50390625 85.58203125 C46.39792043 78.90986226 45.9355633 73.12144596 43 67 C40.24754889 63.86526401 38.52171411 63.13974485 34.5 62.0625 C30.45307058 61.9902334 29.07861378 62.42062089 26 65 Z M-60 111 C-59.77174698 118.46306037 -59.77174698 118.46306037 -57.0625 121.4375 C-52.6265865 124.79804053 -48.40474375 124.54280066 -43 124 C-36.16275931 122.13631863 -30.86830872 118.05402077 -26 113 C-26 112.67 -26 112.34 -26 112 C-37.22 111.67 -48.44 111.34 -60 111 Z " fill="#969797" transform="translate(148,0)"/>
<path d="M0 0 C1.15462958 0.00054477 2.30925917 0.00108953 3.49887753 0.00165081 C4.46205903 -0.00197081 4.46205903 -0.00197081 5.44469875 -0.0056656 C7.60592173 -0.01132144 9.76685159 -0.00262555 11.92806149 0.00596905 C13.47351315 0.00489664 15.01896442 0.00295858 16.56441402 0.00021648 C20.76881362 -0.00464123 24.97310748 0.00303502 29.17749429 0.01316953 C33.56927867 0.02193361 37.96105957 0.02019291 42.35285091 0.01980877 C49.72803683 0.02074607 57.10318167 0.02943943 64.47835445 0.04307842 C73.01712247 0.05881046 81.5558455 0.06407637 90.09462696 0.06334287 C98.29482276 0.06273348 106.49500382 0.06783039 114.6951952 0.07613468 C118.19160165 0.07967415 121.68800289 0.08149887 125.18441105 0.08202839 C129.29736522 0.08302962 133.4102813 0.08910811 137.52322292 0.09919453 C139.03699352 0.10212643 140.55076849 0.10334351 142.06454182 0.10276699 C144.12224766 0.10227969 146.1799519 0.1085252 148.23764706 0.1151762 C149.39189961 0.11685205 150.54615217 0.11852789 151.73538208 0.12025452 C154.30477047 0.24888897 154.30477047 0.24888897 155.30477047 1.24888897 C155.30477047 3.22888897 155.30477047 5.20888897 155.30477047 7.24888897 C101.84477047 7.24888897 48.38477047 7.24888897 -6.69522953 7.24888897 C-3.94125484 0.36395225 -3.94125484 0.36395225 0 0 Z " fill="#000000" transform="translate(138.69522953033447,104.75111103057861)"/>
<path d="M0 0 C4.00171468 -0.09957372 8.00294042 -0.17179608 12.00561523 -0.21972656 C13.36446713 -0.23972628 14.72323424 -0.26693576 16.08178711 -0.30175781 C30.12675829 -0.65249525 30.12675829 -0.65249525 36 4 C38.47994245 6.95993131 38.96192929 8.64467338 39.375 12.5 C38.83495533 17.54041689 37.28089626 19.87921577 33.5 23.1875 C31.69398275 24.49686251 29.85607436 25.7626171 28 27 C29.57861438 29.2534419 31.16264221 31.50272943 32.75 33.75 C33.41515625 34.70132813 33.41515625 34.70132813 34.09375 35.671875 C37.76197758 40.85054923 40.7797718 44.9265906 47 47 C46.67 47.99 46.34 48.98 46 50 C41.8202595 50.68965718 38.15783627 50.90920744 34 50 C30.49147997 46.83885819 28.33107737 43.07545662 26 39 C24.95252162 37.30313479 23.89139416 35.61456586 22.8125 33.9375 C22.38582031 33.22464844 21.95914063 32.51179688 21.51953125 31.77734375 C19.77861373 29.46254688 19.77861373 29.46254688 15 28 C15 33.94 15 39.88 15 46 C17.31 46 19.62 46 22 46 C22 47.32 22 48.64 22 50 C14.74 50 7.48 50 0 50 C0 48.68 0 47.36 0 46 C1.98 46 3.96 46 6 46 C6 31.81 6 17.62 6 3 C4.02 3 2.04 3 0 3 C0 2.01 0 1.02 0 0 Z M15 3 C15 10.26 15 17.52 15 25 C24.19670068 24.95691751 24.19670068 24.95691751 27.5625 22.0625 C30.50753429 17.83701602 30.65471523 14.05440154 30 9 C28.20606332 6.12970131 27.01736724 4.50868362 24 3 C21.03 3 18.06 3 15 3 Z " fill="#000000" transform="translate(206,0)"/>
<path d="M0 0 C7.92 0 15.84 0 24 0 C24 0.99 24 1.98 24 3 C21.69 3 19.38 3 17 3 C16.912158 7.47904099 16.85932553 11.95785724 16.8125 16.4375 C16.78736328 17.69755859 16.76222656 18.95761719 16.73632812 20.25585938 C16.67928889 27.53786796 17.2035605 33.2547824 20 40 C20.66 40 21.32 40 22 40 C23.40124435 38.50099442 24.74613459 36.94906657 26.0625 35.375 C31.4207736 29.29193577 36.79035558 24.27737474 45 23 C44.85982174 20.02046641 44.71313658 17.04150696 44.5625 14.0625 C44.52318359 13.21236328 44.48386719 12.36222656 44.44335938 11.48632812 C44.40146484 10.67744141 44.35957031 9.86855469 44.31640625 9.03515625 C44.26141968 7.91185913 44.26141968 7.91185913 44.20532227 6.76586914 C44.18228937 4.97538674 44.18228937 4.97538674 43 4 C40.67182036 3.63239269 38.3381615 3.29758419 36 3 C36 2.01 36 1.02 36 0 C42.93 0 49.86 0 57 0 C57 0.99 57 1.98 57 3 C54.69 3.33 52.38 3.66 50 4 C49.67 10.27 49.34 16.54 49 23 C51.475 23.99 51.475 23.99 54 25 C55.5 27.3125 55.5 27.3125 56 30 C54.9375 32.75 54.9375 32.75 53 35 C51.7934375 35.1546875 51.7934375 35.1546875 50.5625 35.3125 C47.91253391 35.70857784 47.91253391 35.70857784 46.96484375 37.6875 C46.3124365 39.12438075 45.66143216 40.56189917 45.01171875 42 C42.78401312 46.40380418 39.10352204 48.11286265 34.6875 49.8125 C30.09771864 51.24488143 26.67934659 50.93586932 22 50 C22.8125 47.5625 22.8125 47.5625 25 45 C27.78681776 44.49370609 30.50878455 44.36794013 33.3359375 44.21875 C36.71272382 43.94147722 38.51582687 43.32891231 41 41 C43.73507754 36.01825162 44.50622965 31.62898199 45 26 C38.62330382 28.64399598 33.77007612 32.86832686 30.375 38.875 C29.92125 39.57625 29.4675 40.2775 29 41 C27.33333333 41.33333333 25.66666667 41.66666667 24 42 C21.20384466 43.83984942 18.59801557 45.89193278 16 48 C15.03009724 46.96909707 14.07463799 45.92459988 13.125 44.875 C12.59132812 44.29492188 12.05765625 43.71484375 11.5078125 43.1171875 C8.11626763 38.35496646 7.72748225 33.34178407 7.5859375 27.6328125 C7.56657135 26.95322479 7.5472052 26.27363708 7.5272522 25.57345581 C7.46794901 23.42409421 7.42127109 21.27467759 7.375 19.125 C7.33677468 17.6588321 7.29772036 16.19268557 7.2578125 14.7265625 C7.16228956 11.15123836 7.07807874 7.57575252 7 4 C4.69 3.34 2.38 2.68 0 2 C0 1.34 0 0.68 0 0 Z M49 28 C50 32 50 32 50 32 Z " fill="#999A9A" transform="translate(148,0)"/>
<path d="M0 0 C7.59 0 15.18 0 23 0 C22.67 0.99 22.34 1.98 22 3 C20.35 3 18.7 3 17 3 C17.5775 3.91523437 18.155 4.83046875 18.75 5.7734375 C19.5002341 6.97381205 20.25022133 8.17434092 21 9.375 C21.3815625 9.97828125 21.763125 10.5815625 22.15625 11.203125 C25 15.7734375 25 15.7734375 25 18 C29.0081803 14.32583472 31.52591615 10.85653496 34 6 C34 5.34 34 4.68 34 4 C31.525 3.01 31.525 3.01 29 2 C29 1.34 29 0.68 29 0 C35.6 0 42.2 0 49 0 C49 0.99 49 1.98 49 3 C48.030625 3.12375 47.06125 3.2475 46.0625 3.375 C40.13428375 5.03779236 36.69346623 10.39027003 33 15 C32.4946875 15.59941406 31.989375 16.19882812 31.46875 16.81640625 C30.1459705 18.423744 30.1459705 18.423744 29 21 C30.68338175 26.20264675 33.53677447 30.92767215 36.1875 35.6875 C36.64447266 36.55439453 37.10144531 37.42128906 37.57226562 38.31445312 C40.5511022 43.78785104 40.5511022 43.78785104 45.86328125 46.58203125 C46.89839844 46.71996094 47.93351562 46.85789063 49 47 C49 47.99 49 48.98 49 50 C41.74 50 34.48 50 27 50 C26.67 49.01 26.34 48.02 26 47 C27.65 46.34 29.3 45.68 31 45 C30.4225 44.01257812 29.845 43.02515625 29.25 42.0078125 C28.499774 40.71367265 27.74978632 39.41939463 27 38.125 C26.6184375 37.47402344 26.236875 36.82304688 25.84375 36.15234375 C23 31.2265625 23 31.2265625 23 29 C22.34 29 21.68 29 21 29 C20.73316406 29.55558594 20.46632813 30.11117188 20.19140625 30.68359375 C18.42366451 34.12054737 16.36373652 37.36947485 14.33984375 40.66015625 C12.88020843 43.03104625 12.88020843 43.03104625 12 46 C13.98 46 15.96 46 18 46 C18 47.32 18 48.64 18 50 C11.73 50 5.46 50 -1 50 C-1 48.68 -1 47.36 -1 46 C0.57007812 45.70222656 0.57007812 45.70222656 2.171875 45.3984375 C6.72420178 44.09417066 8.63527382 41.40552766 11.25 37.625 C11.67023438 37.0475 12.09046875 36.47 12.5234375 35.875 C13.69604628 34.25989733 14.84868899 32.63035301 16 31 C16.61359375 30.28585938 17.2271875 29.57171875 17.859375 28.8359375 C19.17460012 27.1025724 19.17460012 27.1025724 18.92578125 25.18359375 C17.57927897 22.00766643 15.91654916 19.04048122 14.1875 16.0625 C13.84396484 15.45470703 13.50042969 14.84691406 13.14648438 14.22070312 C11.0414615 10.55962207 8.87364506 7.12227028 6 4 C2.86136296 3.11406002 2.86136296 3.11406002 0 3 C0 2.01 0 1.02 0 0 Z " fill="#000000" transform="translate(98,0)"/>
<path d="M0 0 C7.92 0 15.84 0 24 0 C24 0.99 24 1.98 24 3 C21.69 3 19.38 3 17 3 C16.94124019 7.12493872 16.90615062 11.24976768 16.875 15.375 C16.85824219 16.53128906 16.84148438 17.68757813 16.82421875 18.87890625 C16.53476075 31.23723834 16.53476075 31.23723834 21.4375 42.125 C25.78956475 45.14786271 30.95667925 44.68527564 36 44 C39.67056276 42.70000902 40.62335082 41.62988177 42.609375 38.30859375 C44.85414943 32.85003175 44.37244968 26.93929809 44.28125 21.13671875 C44.24975441 19.10919013 44.24023837 17.0824379 44.234375 15.0546875 C44.7620137 9.14531128 44.7620137 9.14531128 43 4 C40.67182036 3.63239269 38.3381615 3.29758419 36 3 C36 2.01 36 1.02 36 0 C43.26 0 50.52 0 58 0 C57.67 0.99 57.34 1.98 57 3 C54.69 3 52.38 3 50 3 C49.9906543 3.8564209 49.98130859 4.7128418 49.97167969 5.59521484 C49.92726032 8.81997419 49.8654677 12.0438367 49.79248047 15.26806641 C49.76452356 16.65466476 49.74318529 18.041415 49.72900391 19.42822266 C49.62087691 29.4119487 49.20467514 38.94636432 41.9375 46.5 C36.83188461 50.34834393 30.80987564 51.19351749 24.5390625 50.875 C18.75709893 49.92778412 14.72978399 47.49043655 11 43 C6.98114269 35.4647734 7.4489 26.74219954 7.3125 18.4375 C7.27926052 17.0331726 7.24476495 15.62887433 7.20898438 14.22460938 C7.12700205 10.81648692 7.05768655 7.40860575 7 4 C4.69 3.34 2.38 2.68 0 2 C0 1.34 0 0.68 0 0 Z " fill="#000000" transform="translate(39,0)"/>
<path d="M0 0 C6.93 0 13.86 0 21 0 C21 0.99 21 1.98 21 3 C19.35 3 17.7 3 16 3 C17.44822713 6.15058384 18.91024622 9.29456973 20.375 12.4375 C20.7875 13.33533203 21.2 14.23316406 21.625 15.15820312 C22.02460938 16.01220703 22.42421875 16.86621094 22.8359375 17.74609375 C23.20251465 18.53685303 23.5690918 19.3276123 23.94677734 20.14233398 C24.86547097 22.16502931 24.86547097 22.16502931 27 23 C28.31799019 20.58618654 29.62950918 18.16922404 30.9375 15.75 C31.31068359 15.06808594 31.68386719 14.38617188 32.06835938 13.68359375 C32.42607422 13.01972656 32.78378906 12.35585937 33.15234375 11.671875 C33.48226318 11.0644043 33.81218262 10.45693359 34.15209961 9.83105469 C35.04197691 7.90935018 35.55141511 6.06548422 36 4 C34.02 3.34 32.04 2.68 30 2 C30 1.34 30 0.68 30 0 C36.27 0 42.54 0 49 0 C48.67 0.99 48.34 1.98 48 3 C47.11957031 3.1753125 46.23914063 3.350625 45.33203125 3.53125 C40.01667839 5.87424259 38.33145052 10.51501732 35.6875 15.5 C35.15060547 16.47582031 34.61371094 17.45164062 34.06054688 18.45703125 C30.24332082 24.95117232 30.24332082 24.95117232 28.68359375 32.1328125 C28.64169922 32.93847656 28.59980469 33.74414062 28.55664062 34.57421875 C28.51732422 35.41597656 28.47800781 36.25773437 28.4375 37.125 C28.39431641 37.97449219 28.35113281 38.82398438 28.30664062 39.69921875 C28.20045764 41.79928223 28.09971503 43.89961948 28 46 C30.31 46 32.62 46 35 46 C35 47.32 35 48.64 35 50 C27.41 50 19.82 50 12 50 C12.33 48.68 12.66 47.36 13 46 C15.97 45.505 15.97 45.505 19 45 C21.77136199 30.4325844 14.27742629 19.52910151 7.19335938 7.28393555 C6 5 6 5 6 3 C4.02 3 2.04 3 0 3 C0 2.01 0 1.02 0 0 Z " fill="#000000" transform="translate(244,0)"/>
<path d="M0 0 C7.92 0 15.84 0 24 0 C24 0.99 24 1.98 24 3 C21.69 3.33 19.38 3.66 17 4 C17 17.53 17 31.06 17 45 C30.88196601 46.11803399 30.88196601 46.11803399 38 42 C39.52280858 40.0260679 39.52280858 40.0260679 40.375 37.8125 C40.85066406 36.73935547 40.85066406 36.73935547 41.3359375 35.64453125 C41.66464844 34.83048828 41.66464844 34.83048828 42 34 C42.66 34 43.32 34 44 34 C43.88487847 35.72985242 43.75744323 37.45888751 43.625 39.1875 C43.55539063 40.15042969 43.48578125 41.11335938 43.4140625 42.10546875 C43 45 43 45 41 50 C27.8 50 14.6 50 1 50 C1 48.68 1 47.36 1 46 C3.97 45.505 3.97 45.505 7 45 C7 31.47 7 17.94 7 4 C4.69 3.34 2.38 2.68 0 2 C0 1.34 0 0.68 0 0 Z " fill="#000000" transform="translate(0,0)"/>
<path d="M0 0 C3.02138567 -0.08149592 6.04053905 -0.14073421 9.0625 -0.1875 C9.91005859 -0.21263672 10.75761719 -0.23777344 11.63085938 -0.26367188 C17.95743212 -0.33695264 23.12003441 0.30583864 27.9375 4.8125 C29.41876499 7.86216322 29.53756196 9.64023776 29 13 C26.57184111 16.41254763 24.48478855 18.67680763 21 21 C22.38215268 22.96934172 23.77926166 24.92444483 25.1875 26.875 C25.57486328 27.43058594 25.96222656 27.98617187 26.36132812 28.55859375 C28.88607978 32.02230263 30.84996461 33.83533643 35 35 C35 35.99 35 36.98 35 38 C31.45768547 38.71862528 28.51842249 38.91589092 25 38 C21.67828006 34.7226436 19.40444416 30.97593999 17 27 C14.75407144 23.57882865 14.75407144 23.57882865 11 22 C11.33 25.96 11.66 29.92 12 34 C13.65 34.33 15.3 34.66 17 35 C17 35.99 17 36.98 17 38 C11.39 38 5.78 38 0 38 C0 37.01 0 36.02 0 35 C1.98 34.505 1.98 34.505 4 34 C4 24.1 4 14.2 4 4 C2.68 3.67 1.36 3.34 0 3 C0 2.01 0 1.02 0 0 Z M11 3 C11 8.28 11 13.56 11 19 C16.65387856 19.46256601 16.65387856 19.46256601 19.875 17.5 C22.46043632 14.45831021 22.69010681 12.79992767 22.4140625 8.90625 C22.06801535 6.79554214 22.06801535 6.79554214 20.4375 4.5 C17.48340918 2.388553 17.48340918 2.388553 11 3 Z " fill="#000000" transform="translate(71,59)"/>
<path d="M0 0 C27.72 0 55.44 0 84 0 C83.34 2.31 82.68 4.62 82 7 C54.94 7 27.88 7 0 7 C0 4.69 0 2.38 0 0 Z " fill="#000000" transform="translate(0,105)"/>
<path d="M0 0 C4.99653603 2.92405086 7.6830205 7.20014633 9.25390625 12.703125 C10.19410741 18.36412568 9.47703609 23.48843498 6.625 28.5 C2.68654601 32.87242085 -1.00959285 36.19986866 -7.046875 36.73828125 C-13.80131888 36.90114221 -17.96572656 36.66964828 -23.375 32.5 C-28.56500179 26.88918726 -29.78506974 22.71077784 -29.625 15.1875 C-29.05777746 9.08985772 -25.89109202 5.38593965 -21.375 1.5 C-15.0925497 -2.83788235 -6.95689993 -2.96458804 0 0 Z M-18.375 3.5 C-22.48645987 9.02920465 -22.99149237 14.79564549 -22.375 21.5 C-21.2199683 26.33244881 -19.56672813 30.58907768 -15.375 33.5 C-11.22967184 34.67320608 -8.7971983 34.61258621 -4.625 33.5 C-1.46130085 31.55310822 -0.01232139 30.31713046 1.1875 26.78515625 C2.59994628 19.40764668 2.83021039 11.63216214 -1.1015625 5.0234375 C-3.17989385 2.53709017 -5.34095391 1.5113487 -8.375 0.5 C-12.80838303 0.5 -14.64533452 1.19871705 -18.375 3.5 Z " fill="#000000" transform="translate(283.375,60.5)"/>
<path d="M0 0 C4.56160669 3.36690018 8.64793447 7.1728134 9.625 12.9375 C10.33670916 19.79790959 9.69659064 25.24517911 5.625 30.9375 C-0.14599413 36.41994443 -4.66768671 37.35009908 -12.46875 37.1796875 C-17.84401266 36.73174895 -20.94080263 34.61208059 -24.625 30.875 C-28.00767028 26.63550559 -29.25945284 22.33520315 -29.375 16.9375 C-28.2219695 9.61928601 -24.76730951 4.41967769 -18.8125 0.0625 C-12.62031069 -1.96403468 -6.21340645 -1.9560724 0 0 Z M-17.375 3.9375 C-21.91419467 8.94626653 -21.71733537 14.15140849 -21.65234375 20.62890625 C-21.27614258 25.1168273 -20.25683974 28.44895716 -17.375 31.9375 C-13.91849182 34.47227267 -12.09387712 34.95011188 -7.8125 34.875 C-3.97726267 33.82902618 -2.10069003 32.81894374 0.625 29.9375 C3.42472626 24.33804749 3.50647342 17.69502175 2.08984375 11.65625 C0.71338912 7.62466705 -0.79070237 4.42659558 -4.375 1.9375 C-9.72870746 0.45035904 -12.74195412 0.88390158 -17.375 3.9375 Z " fill="#000000" transform="translate(61.375,60.0625)"/>
<path d="M0 0 C6.0598979 0.02748253 10.14016747 0.9038113 14.55859375 5.19921875 C18.8287569 10.53402962 19.63274196 16.35620944 19 23 C16.93988797 29.07733048 14.53086136 33.50214328 8.9375 36.8125 C2.74013596 39.12653722 -4.31033193 39.097241 -10.375 36.4375 C-14.87069988 33.84347194 -18.09587841 29.97150791 -19.61328125 24.984375 C-20.80314986 18.87878658 -20.07168122 13.37272864 -17 8 C-14.93669272 5.48884307 -12.85450114 3.56968495 -10 2 C-6.0625 1.625 -6.0625 1.625 -3 2 C-3.763125 2.556875 -4.52625 3.11375 -5.3125 3.6875 C-9.51526273 7.30383073 -11.08334515 10.30947839 -11.875 15.75 C-12.33937919 22.09967461 -10.8960994 27.29128657 -7.25 32.5 C-4.09381828 34.60412115 -1.78082726 34.93481332 2 35 C6.23933016 33.49040275 6.23933016 33.49040275 9.1171875 30.20703125 C11.91327956 23.2168011 11.21953862 16.13495074 9.08203125 9.09375 C7.13778397 5.33159641 3.7297748 3.73168116 0 2 C0 1.34 0 0.68 0 0 Z " fill="#000000" transform="translate(182,60)"/>
<path d="M0 0 C3.04221065 -0.08132642 6.0822238 -0.14065374 9.125 -0.1875 C9.9809375 -0.21263672 10.836875 -0.23777344 11.71875 -0.26367188 C17.83185479 -0.3342077 21.64198023 0.79991808 26.8125 4.1875 C28.78999163 7.20577669 29.11735461 10.47245845 29 14 C27.41358365 17.75730189 25.45563184 19.88455233 22 22 C18.28911458 22.38871006 14.74349839 22.13369637 11 22 C11.33 25.96 11.66 29.92 12 34 C13.98 34.33 15.96 34.66 18 35 C18 35.99 18 36.98 18 38 C11.73 38 5.46 38 -1 38 C-1 37.01 -1 36.02 -1 35 C0.65 35 2.3 35 4 35 C4 24.44 4 13.88 4 3 C2.35 3 0.7 3 -1 3 C-0.67 2.01 -0.34 1.02 0 0 Z M11 3 C11 8.28 11 13.56 11 19 C15.29610605 20.07402651 16.23960111 19.97915731 20 18 C22.50031654 14.24952518 22.53603554 12.44143734 22 8 C20.02033737 4.93692369 20.02033737 4.93692369 17 3 C15.02 3 13.04 3 11 3 Z " fill="#000000" transform="translate(1,59)"/>
<path d="M0 0 C7.92 0 15.84 0 24 0 C24 0.99 24 1.98 24 3 C21.69 3 19.38 3 17 3 C16.912158 7.47904099 16.85932553 11.95785724 16.8125 16.4375 C16.78736328 17.69755859 16.76222656 18.95761719 16.73632812 20.25585938 C16.67938695 27.52534984 17.28151723 33.27972586 20 40 C20.35389821 41.32802295 20.69318644 42.66031559 21 44 C19.35 45.32 17.7 46.64 16 48 C15.03009724 46.96909707 14.07463799 45.92459988 13.125 44.875 C12.59132812 44.29492188 12.05765625 43.71484375 11.5078125 43.1171875 C8.11626763 38.35496646 7.72748225 33.34178407 7.5859375 27.6328125 C7.56657135 26.95322479 7.5472052 26.27363708 7.5272522 25.57345581 C7.46794901 23.42409421 7.42127109 21.27467759 7.375 19.125 C7.33677468 17.6588321 7.29772036 16.19268557 7.2578125 14.7265625 C7.16228956 11.15123836 7.07807874 7.57575252 7 4 C4.69 3.34 2.38 2.68 0 2 C0 1.34 0 0.68 0 0 Z " fill="#000000" transform="translate(148,0)"/>
<path d="M0 0 C0.99 0.33 1.98 0.66 3 1 C5.4410776 1.0845387 7.85259213 1.11605786 10.29296875 1.09765625 C10.99899734 1.0962413 11.70502594 1.09482635 12.43244934 1.09336853 C14.68417626 1.08777764 16.93580321 1.07522688 19.1875 1.0625 C20.71549335 1.05748382 22.24348827 1.05292112 23.77148438 1.04882812 C27.51436135 1.0378112 31.25716373 1.02055287 35 1 C35.99 4.3 36.98 7.6 38 11 C37.01 11 36.02 11 35 11 C34.484375 10.195625 33.96875 9.39125 33.4375 8.5625 C30.43209572 4.84503172 30.43209572 4.84503172 21 5 C21 14.9 21 24.8 21 35 C22.65 35.33 24.3 35.66 26 36 C26 36.99 26 37.98 26 39 C20.06 39 14.12 39 8 39 C8 38.01 8 37.02 8 36 C9.98 36 11.96 36 14 36 C13.505 20.655 13.505 20.655 13 5 C3.5902091 4.89080175 3.5902091 4.89080175 0.375 8.5625 C-0.07875 9.366875 -0.5325 10.17125 -1 11 C-1.99 10.67 -2.98 10.34 -4 10 C-2.68 6.7 -1.36 3.4 0 0 Z " fill="#000000" transform="translate(105,58)"/>
<path d="M0 0 C5.94 0 11.88 0 18 0 C18 0.99 18 1.98 18 3 C16.35 3.33 14.7 3.66 13 4 C13 13.9 13 23.8 13 34 C20.79723746 34.19694066 20.79723746 34.19694066 28 33 C28.268125 32.030625 28.53625 31.06125 28.8125 30.0625 C29.204375 29.051875 29.59625 28.04125 30 27 C30.99 26.67 31.98 26.34 33 26 C32.85831863 27.43791516 32.71148957 28.8753237 32.5625 30.3125 C32.48128906 31.11300781 32.40007812 31.91351563 32.31640625 32.73828125 C32 35 32 35 31 38 C20.77 38 10.54 38 0 38 C0 37.01 0 36.02 0 35 C2.475 34.505 2.475 34.505 5 34 C5 24.1 5 14.2 5 4 C3.35 3.67 1.7 3.34 0 3 C0 2.01 0 1.02 0 0 Z " fill="#000000" transform="translate(202,59)"/>
<path d="M0 0 C5.94 0 11.88 0 18 0 C18 0.99 18 1.98 18 3 C16.35 3.33 14.7 3.66 13 4 C13 13.9 13 23.8 13 34 C14.65 34.33 16.3 34.66 18 35 C18 35.99 18 36.98 18 38 C12.06 38 6.12 38 0 38 C0 37.01 0 36.02 0 35 C2.475 34.505 2.475 34.505 5 34 C5 24.1 5 14.2 5 4 C3.35 3.67 1.7 3.34 0 3 C0 2.01 0 1.02 0 0 Z " fill="#000000" transform="translate(235,59)"/>
<path d="M0 0 C0.65597672 0.00424484 1.31195343 0.00848969 1.98780823 0.01286316 C4.05611536 0.02948096 6.12340026 0.06709637 8.19140625 0.10546875 C9.6048035 0.12053764 11.01821623 0.13422216 12.43164062 0.14648438 C15.8727206 0.17932771 19.31321344 0.2309886 22.75390625 0.29296875 C22.37272752 2.50380537 21.86257234 4.1208069 20.66088867 6.0246582 C17.70582952 7.99003169 14.66700442 7.66101262 11.2421875 7.5859375 C10.51396286 7.58169266 9.78573822 7.57744781 9.03544617 7.57307434 C6.71205498 7.55629608 4.38953475 7.5186473 2.06640625 7.48046875 C0.49024691 7.46542072 -1.08592604 7.45173252 -2.66210938 7.43945312 C-6.52377252 7.4063956 -10.38478553 7.35462069 -14.24609375 7.29296875 C-14.24609375 5.97296875 -14.24609375 4.65296875 -14.24609375 3.29296875 C-9.2369063 0.8572057 -5.6675609 -0.07297289 0 0 Z " fill="#000000" transform="translate(103.24609375,104.70703125)"/>
<path d="M0 0 C3.27642756 0.25866533 4.60820723 0.55416685 6.8125 3.0625 C7.204375 3.701875 7.59625 4.34125 8 5 C8.66 3.35 9.32 1.7 10 0 C11.32 0.33 12.64 0.66 14 1 C14 5.62 14 10.24 14 15 C12.02 15 10.04 15 8 15 C6.125 12.5 6.125 12.5 5 10 C4.67 11.65 4.34 13.3 4 15 C2.35 15 0.7 15 -1 15 C-1.02685412 12.68756208 -1.04632841 10.3750373 -1.0625 8.0625 C-1.07410156 6.77472656 -1.08570312 5.48695313 -1.09765625 4.16015625 C-1 1 -1 1 0 0 Z " fill="#000000" transform="translate(113,135)"/>
<path d="M0 0 C2.375 0.125 2.375 0.125 5 1 C6.8125 3.5625 6.8125 3.5625 8 6 C8.33 4.02 8.66 2.04 9 0 C10.32 0 11.64 0 13 0 C13 4.95 13 9.9 13 15 C11.35 15 9.7 15 8 15 C6.1875 12.5 6.1875 12.5 5 10 C4.67 11.65 4.34 13.3 4 15 C2.35 15 0.7 15 -1 15 C-1.02685412 12.68756208 -1.04632841 10.3750373 -1.0625 8.0625 C-1.07410156 6.77472656 -1.08570313 5.48695313 -1.09765625 4.16015625 C-1 1 -1 1 0 0 Z " fill="#000000" transform="translate(229,135)"/>
<path d="M0 0 C1.65 0 3.3 0 5 0 C7.3125 3 7.3125 3 9 6 C9.33 4.02 9.66 2.04 10 0 C11.32 0 12.64 0 14 0 C14 4.95 14 9.9 14 15 C12.35 15 10.7 15 9 15 C6.6875 12 6.6875 12 5 9 C4.67 10.98 4.34 12.96 4 15 C2.68 15 1.36 15 0 15 C0 10.05 0 5.1 0 0 Z " fill="#000000" transform="translate(17,135)"/>
<path d="M0 0 C1.9375 0.375 1.9375 0.375 4 1 C5.87292409 4.74584817 3.45805008 8.99231721 2.234375 12.7890625 C0.22668996 18.01158497 -2.05094938 20.74394515 -6.8125 23.8125 C-12.20825184 25.82268206 -17.34490862 26.59049445 -23 25 C-22.1875 22.5625 -22.1875 22.5625 -20 20 C-17.21318224 19.49370609 -14.49121545 19.36794013 -11.6640625 19.21875 C-8.28727618 18.94147722 -6.48417313 18.32891231 -4 16 C-1.08534276 10.79525492 -0.38820922 5.90345751 0 0 Z " fill="#020202" transform="translate(193,25)"/>
<path d="M0 0 C2.11415845 1.47991092 2.79592089 2.5290482 3.8125 4.875 C4.06431869 7.72894516 3.26998872 9.46002257 2 12 C-0.41486943 14.41486943 -1.12707789 14.2961925 -4.4375 14.3125 C-5.61119141 14.33763672 -5.61119141 14.33763672 -6.80859375 14.36328125 C-9.53799646 13.91081342 -10.39177999 13.22831738 -12 11 C-12.39309578 7.90437069 -12.62338668 5.95663395 -12 3 C-8.3655827 -1.51548816 -5.40521016 -1.50144727 0 0 Z M-6 3 C-6.66 3.66 -7.32 4.32 -8 5 C-7.67958603 7.60280568 -7.67958603 7.60280568 -7 10 C-6.01 10.33 -5.02 10.66 -4 11 C-3.01 10.34 -2.02 9.68 -1 9 C-0.74969023 6.41619823 -0.74969023 6.41619823 -1 4 C-3.39719432 3.32041397 -3.39719432 3.32041397 -6 3 Z " fill="#010101" transform="translate(213,136)"/>
<path d="M0 0 C6.93 0 13.86 0 21 0 C21 0.99 21 1.98 21 3 C18.69 3.33 16.38 3.66 14 4 C13.67 10.6 13.34 17.2 13 24 C11.68 23.67 10.36 23.34 9 23 C8.93941406 21.71222656 8.87882813 20.42445312 8.81640625 19.09765625 C8.73201753 17.41925841 8.6473687 15.74087364 8.5625 14.0625 C8.52318359 13.21236328 8.48386719 12.36222656 8.44335938 11.48632812 C8.38051758 10.27299805 8.38051758 10.27299805 8.31640625 9.03515625 C8.27974854 8.2862915 8.24309082 7.53742676 8.20532227 6.76586914 C8.18228937 4.97538674 8.18228937 4.97538674 7 4 C4.67182036 3.63239269 2.3381615 3.29758419 0 3 C0 2.01 0 1.02 0 0 Z " fill="#010101" transform="translate(184,0)"/>
<path d="M0 0 C8.4 0 8.4 0 11 2 C11.875 3.875 11.875 3.875 12 6 C11.649375 6.639375 11.29875 7.27875 10.9375 7.9375 C9.68648295 10.07804319 9.68648295 10.07804319 10.875 12.75 C11.24625 13.4925 11.6175 14.235 12 15 C10.35 15 8.7 15 7 15 C6.34 13.68 5.68 12.36 5 11 C4.67 12.32 4.34 13.64 4 15 C2.68 15 1.36 15 0 15 C0 10.05 0 5.1 0 0 Z M4 4 C4 4.66 4 5.32 4 6 C4.99 6 5.98 6 7 6 C7 5.34 7 4.68 7 4 C6.01 4 5.02 4 4 4 Z " fill="#000000" transform="translate(89,135)"/>
<path d="M0 0 C3.3 0 6.6 0 10 0 C10 1.32 10 2.64 10 4 C8.02 4 6.04 4 4 4 C4 4.66 4 5.32 4 6 C5.98 6 7.96 6 10 6 C10.33 8.97 10.66 11.94 11 15 C7.37 15 3.74 15 0 15 C0 10.05 0 5.1 0 0 Z " fill="#000000" transform="translate(66,135)"/>
<path d="M0 0 C2.91704415 1.04714406 3.88969775 1.81190563 5.484375 4.53125 C5.90203125 5.5109375 6.3196875 6.490625 6.75 7.5 C7.39195312 8.96953125 7.39195312 8.96953125 8.046875 10.46875 C9 13 9 13 9 15 C7.35 15 5.7 15 4 15 C4 14.01 4 13.02 4 12 C2.35 12 0.7 12 -1 12 C-1.33 12.99 -1.66 13.98 -2 15 C-3.32 15 -4.64 15 -6 15 C-4.36041242 9.76727367 -2.61047965 4.84803364 0 0 Z M1 7 C2 9 2 9 2 9 Z " fill="#000000" transform="translate(144,135)"/>
<path d="M0 0 C2.91704415 1.04714406 3.88969775 1.81190563 5.484375 4.53125 C5.90203125 5.5109375 6.3196875 6.490625 6.75 7.5 C7.39195312 8.96953125 7.39195312 8.96953125 8.046875 10.46875 C9 13 9 13 9 15 C7.35 15 5.7 15 4 15 C4 14.01 4 13.02 4 12 C2.35 12 0.7 12 -1 12 C-1.33 12.99 -1.66 13.98 -2 15 C-3.32 15 -4.64 15 -6 15 C-5.39644592 11.14974121 -4.23227397 8.13898841 -2.4375 4.6875 C-1.98246094 3.80449219 -1.52742188 2.92148438 -1.05859375 2.01171875 C-0.53458984 1.01591797 -0.53458984 1.01591797 0 0 Z M1 7 C0.67 7.66 0.34 8.32 0 9 C0.66 9 1.32 9 2 9 C1.67 8.34 1.34 7.68 1 7 Z " fill="#000000" transform="translate(260,135)"/>
<path d="M0 0 C3.63 0 7.26 0 11 0 C11.33 1.32 11.66 2.64 12 4 C10.68 4 9.36 4 8 4 C8 7.63 8 11.26 8 15 C6.35 15 4.7 15 3 15 C3 11.7 3 8.4 3 5 C2.01 4.67 1.02 4.34 0 4 C0 2.68 0 1.36 0 0 Z " fill="#000000" transform="translate(43,135)"/>
<path d="M0 0 C1.98 0.495 1.98 0.495 4 1 C4 3.97 4 6.94 4 10 C5.65 10.33 7.3 10.66 9 11 C9 12.32 9 13.64 9 15 C5.7 15 2.4 15 -1 15 C-1.02685412 12.68756208 -1.04632841 10.3750373 -1.0625 8.0625 C-1.07410156 6.77472656 -1.08570313 5.48695313 -1.09765625 4.16015625 C-1 1 -1 1 0 0 Z " fill="#000000" transform="translate(281,135)"/>
<path d="M0 0 C3.63 0 7.26 0 11 0 C11 1.32 11 2.64 11 4 C9.68 4 8.36 4 7 4 C7 7.63 7 11.26 7 15 C5.68 15 4.36 15 3 15 C3 11.37 3 7.74 3 4 C1.68 4 0.36 4 -1 4 C-0.67 2.68 -0.34 1.36 0 0 Z " fill="#000000" transform="translate(162,135)"/>
<path d="M0 0 C1.98 0.495 1.98 0.495 4 1 C4 5.62 4 10.24 4 15 C2.35 15 0.7 15 -1 15 C-1.02685412 12.68756208 -1.04632841 10.3750373 -1.0625 8.0625 C-1.07410156 6.77472656 -1.08570312 5.48695313 -1.09765625 4.16015625 C-1 1 -1 1 0 0 Z " fill="#000000" transform="translate(1,135)"/>
<path d="M0 0 C1.32 0.33 2.64 0.66 4 1 C4 5.62 4 10.24 4 15 C2.68 15 1.36 15 0 15 C0 10.05 0 5.1 0 0 Z " fill="#000000" transform="translate(185,135)"/>
<path d="M0 0 C1.875 0.6875 1.875 0.6875 2.875 1.6875 C2.91580783 3.68708364 2.91754356 5.68795254 2.875 7.6875 C0 8.3125 0 8.3125 -3.125 8.6875 C-5.125 6.6875 -5.125 6.6875 -5.4375 4.1875 C-5.334375 3.3625 -5.23125 2.5375 -5.125 1.6875 C-2.125 -0.3125 -2.125 -0.3125 0 0 Z " fill="#000000" transform="translate(297.125,134.3125)"/>
<path d="M0 0 C0 0.66 0 1.32 0 2 C-0.928125 2.37125 -1.85625 2.7425 -2.8125 3.125 C-6.5260303 5.30942959 -7.42687504 7.06718759 -9 11 C-9.66 10.34 -10.32 9.68 -11 9 C-11.99 9.495 -11.99 9.495 -13 10 C-12.51053485 4.49351702 -12.51053485 4.49351702 -10.125 2.1875 C-6.6337573 0.23651143 -3.93138503 -0.10625365 0 0 Z " fill="#999A9A" transform="translate(96,103)"/>
<path d="M0 0 C0.99 0.33 1.98 0.66 3 1 C3.94921875 3.06640625 3.94921875 3.06640625 4.6875 5.5625 C5.06455078 6.80193359 5.06455078 6.80193359 5.44921875 8.06640625 C5.63097656 8.70449219 5.81273438 9.34257813 6 10 C4.35 10.66 2.7 11.32 1 12 C-3 6.5 -3 6.5 -3 2 C-2.01 1.34 -1.02 0.68 0 0 Z " fill="#929393" transform="translate(85,111)"/>
<path d="M0 0 C1.32 1.32 2.64 2.64 4 4 C2.25 9.75 2.25 9.75 0 12 C-0.99 12 -1.98 12 -3 12 C-2.88541307 10.56163249 -2.75790884 9.12429034 -2.625 7.6875 C-2.55539063 6.88699219 -2.48578125 6.08648437 -2.4140625 5.26171875 C-2 3 -2 3 0 0 Z " fill="#8D8E8E" transform="translate(200,24)"/>
<path d="M0 0 C0.66 3.63 1.32 7.26 2 11 C-2.92307692 6.69230769 -2.92307692 6.69230769 -3.3125 3.1875 C-3.209375 2.465625 -3.10625 1.74375 -3 1 C-1 0 -1 0 0 0 Z " fill="#888989" transform="translate(85,112)"/>
<path d="M0 0 C1.0625 1.8125 1.0625 1.8125 2 4 C1.67 4.99 1.34 5.98 1 7 C-1.0625 7.6875 -1.0625 7.6875 -3 8 C-2.74438677 5.6568787 -2.40729228 3.32156597 -2 1 C-1.34 0.67 -0.68 0.34 0 0 Z " fill="#9B9C9C" transform="translate(201,27)"/>
<path d="M0 0 C2.97 0.495 2.97 0.495 6 1 C6.33 1.99 6.66 2.98 7 4 C5.35 4 3.7 4 2 4 C1.34 2.68 0.68 1.36 0 0 Z " fill="#9B9D9D" transform="translate(87,121)"/>
</svg>
