<?xml version="1.0" encoding="UTF-8"?>
<svg version="1.1" xmlns="http://www.w3.org/2000/svg" width="1159" height="969">
<path d="M0 0 C8.43769594 7.87013792 14.16044717 17.45898153 14.58203125 29.13012695 C14.81094113 44.20062354 9.04117344 55.45325388 -1.23046875 66.375 C-28.05007933 92.24803609 -68.6819466 96.9903007 -104.19921875 96.9375 C-104.95871826 96.93689575 -105.71821777 96.9362915 -106.50073242 96.93566895 C-141.32749086 96.86133802 -175.93300893 92.85517781 -210.28051758 87.32495117 C-211.56982178 87.11974854 -212.85912598 86.9145459 -214.1875 86.703125 C-215.31583252 86.51911133 -216.44416504 86.33509766 -217.60668945 86.14550781 C-220.69599879 85.75823852 -223.6520402 85.67845247 -226.76171875 85.75 C-241.33321756 112.2436342 -253.64875821 140.03414351 -265.84759521 167.67956543 C-266.82878977 169.90191181 -267.81198725 172.1233654 -268.79541016 174.34472656 C-280.02068621 199.7119005 -291.07309106 225.15158454 -301.76171875 250.75 C-302.05475891 251.45147156 -302.34779907 252.15294312 -302.64971924 252.87567139 C-322.05937408 294.90285689 -322.05937408 294.90285689 -327.76171875 339.75 C-327.43171875 340.41 -327.10171875 341.07 -326.76171875 341.75 C-307.95999214 340.84023904 -292.03159664 324.6837103 -279.70703125 311.5625 C-278.60022437 310.29757785 -277.50700966 309.02059528 -276.4296875 307.73046875 C-273.81903614 304.63070238 -271.02950764 301.69364464 -268.265625 298.73046875 C-267.43933594 297.74691406 -266.61304688 296.76335937 -265.76171875 295.75 C-265.17173096 295.04963623 -264.58174316 294.34927246 -263.97387695 293.62768555 C-257.37614261 285.24791097 -253.74261001 276.0212791 -249.82421875 266.1875 C-249.09902491 264.40048563 -248.37243548 262.61403706 -247.64453125 260.828125 C-245.7294584 256.11909626 -243.8325618 251.4029658 -241.94024658 246.68475342 C-239.5464582 240.72377529 -237.1347253 234.77003269 -234.72486877 228.8155365 C-232.82100359 224.11047464 -230.92094728 219.40398542 -229.03149414 214.69311523 C-228.68449966 213.8304454 -228.33750519 212.96777557 -227.97999573 212.07896423 C-227.32888455 210.46004768 -226.67972699 208.84034359 -226.03282166 207.21974182 C-223.87444519 201.86272644 -223.87444519 201.86272644 -222.76171875 200.75 C-221.05399517 200.66286169 -219.34273226 200.64299993 -217.6328125 200.65234375 C-216.08110352 200.65717773 -216.08110352 200.65717773 -214.49804688 200.66210938 C-213.40943359 200.67048828 -212.32082031 200.67886719 -211.19921875 200.6875 C-209.56049805 200.69426758 -209.56049805 200.69426758 -207.88867188 200.70117188 C-205.1796338 200.71300174 -202.47070276 200.72948457 -199.76171875 200.75 C-200.44086921 204.97737531 -201.81841037 208.65200955 -203.4375 212.609375 C-203.71443192 213.28966766 -203.99136383 213.96996033 -204.27668762 214.67086792 C-204.88373499 216.16023935 -205.49286942 217.64876141 -206.1038208 219.13653564 C-207.09611455 221.55332857 -208.08257972 223.97243438 -209.06787109 226.39208984 C-212.52021439 234.86229629 -215.99620052 243.32272675 -219.47920227 251.78036499 C-231.79469587 281.68496509 -231.79469587 281.68496509 -243.38671875 311.875 C-243.78917816 312.96062225 -243.78917816 312.96062225 -244.19976807 314.06817627 C-249.10017522 325.81618872 -249.10017522 325.81618872 -250.88671875 338.1875 C-250.84546875 339.363125 -250.80421875 340.53875 -250.76171875 341.75 C-246.04353287 341.25334885 -243.28717744 340.09854967 -239.51171875 337.25 C-238.6609375 336.6209375 -237.81015625 335.991875 -236.93359375 335.34375 C-228.68092296 328.77215311 -221.14618737 321.32916097 -213.69921875 313.875 C-212.82378418 312.99875977 -211.94834961 312.12251953 -211.04638672 311.21972656 C-205.21495111 305.33262874 -199.7186221 299.40103487 -194.76171875 292.75 C-194.32593506 292.24670166 -193.89015137 291.74340332 -193.44116211 291.22485352 C-188.0238724 284.67522138 -185.21338453 276.98053762 -182.07421875 269.1875 C-181.43958875 267.63722493 -180.80398367 266.08734872 -180.16748047 264.5378418 C-178.01431819 259.28243637 -175.88728481 254.01661457 -173.76171875 248.75 C-172.917551 246.66110431 -172.07331024 244.57223812 -171.22900391 242.48339844 C-170.35054887 240.30925977 -169.47213121 238.135106 -168.59375 235.9609375 C-168.16038834 234.88846268 -167.72702667 233.81598785 -167.28053284 232.71101379 C-165.12932987 227.38517615 -162.98259104 222.05762334 -160.8449707 216.72631836 C-160.24823799 215.24181686 -160.24823799 215.24181686 -159.63945007 213.72732544 C-158.88712613 211.85558519 -158.13680543 209.98303818 -157.38874817 208.10958862 C-157.056306 207.2836319 -156.72386383 206.45767517 -156.38134766 205.60668945 C-156.09127838 204.88254349 -155.80120911 204.15839752 -155.50234985 203.41230774 C-154.76171875 201.75 -154.76171875 201.75 -153.76171875 200.75 C-152.05399517 200.66286169 -150.34273226 200.64299993 -148.6328125 200.65234375 C-147.08110352 200.65717773 -147.08110352 200.65717773 -145.49804688 200.66210938 C-144.40943359 200.67048828 -143.32082031 200.67886719 -142.19921875 200.6875 C-140.56049805 200.69426758 -140.56049805 200.69426758 -138.88867188 200.70117188 C-136.1796338 200.71300174 -133.47070276 200.72948457 -130.76171875 200.75 C-131.40180892 204.71473763 -132.63154645 208.0444414 -134.265625 211.70703125 C-135.00522461 213.37475586 -135.00522461 213.37475586 -135.75976562 215.07617188 C-136.27603516 216.22666016 -136.79230469 217.37714844 -137.32421875 218.5625 C-137.84435547 219.73232422 -138.36449219 220.90214844 -138.90039062 222.10742188 C-140.18298987 224.99032843 -141.47024158 227.87106231 -142.76171875 230.75 C-139.51263261 228.2030886 -136.59545253 225.60026956 -133.76733398 222.58813477 C-123.53907848 211.77501201 -108.63775532 200.44701343 -93.30078125 199.546875 C-92.00914062 199.53140625 -90.7175 199.5159375 -89.38671875 199.5 C-88.10023438 199.47421875 -86.81375 199.4484375 -85.48828125 199.421875 C-80.71127935 199.84249152 -77.49799516 201.18438324 -73.93359375 204.3984375 C-73.22976563 205.25308594 -73.22976563 205.25308594 -72.51171875 206.125 C-72.0321875 206.68960938 -71.55265625 207.25421875 -71.05859375 207.8359375 C-65.78894922 215.61342491 -66.78427034 226.05038204 -68.4609375 234.93359375 C-73.20144512 256.06415433 -82.94095574 276.42166071 -91.22189331 296.35888672 C-97.23024807 310.71913761 -97.23024807 310.71913761 -102.63671875 325.3125 C-102.8692334 325.96516846 -103.10174805 326.61783691 -103.34130859 327.2902832 C-104.93109787 332.16119576 -104.98289747 336.69541571 -104.76171875 341.75 C-86.61597699 339.79258762 -64.98107612 312.53065681 -53.82421875 299 C-52.46735685 297.25208892 -51.11322847 295.50205275 -49.76171875 293.75 C-48.51841797 292.28433594 -48.51841797 292.28433594 -47.25 290.7890625 C-41.83906389 284.31739668 -38.37235024 278.07595067 -35.37011719 270.19995117 C-24.61100679 242.33460676 -0.84685617 216.47008154 26.17578125 203.8125 C36.53899299 199.43558474 47.98078979 196.76242524 58.9375 200.58203125 C62.95859847 202.62330195 66.09970644 205.55005641 69.23828125 208.75 C71.24860384 205.88067713 71.24860384 205.88067713 72.53051758 203.09301758 C74.23828125 200.75 74.23828125 200.75 76.69018555 200.18237305 C78.1119812 200.22164917 78.1119812 200.22164917 79.5625 200.26171875 C81.10454102 200.28588867 81.10454102 200.28588867 82.67773438 200.31054688 C83.74958984 200.35244141 84.82144531 200.39433594 85.92578125 200.4375 C87.5509668 200.47133789 87.5509668 200.47133789 89.20898438 200.50585938 C91.8868003 200.5648421 94.56185152 200.64709693 97.23828125 200.75 C95.17696201 208.25960812 92.46188332 215.33602689 89.42578125 222.5 C88.35361591 225.05783846 87.28302245 227.61627997 86.21484375 230.17578125 C85.76713371 231.24736229 85.76713371 231.24736229 85.31037903 232.34059143 C82.5025331 239.07869702 79.7542341 245.84055309 77.01171875 252.60546875 C8.83722686 420.76317204 8.83722686 420.76317204 -57.51269531 448.83642578 C-81.22460857 458.46842528 -108.91536758 461.9786836 -133.19921875 452.4375 C-143.96736819 447.52699071 -153.50343817 440.86122046 -158.26171875 429.625 C-161.62340878 418.90961303 -160.83311916 407.73016116 -155.76171875 397.75 C-152.65809012 392.2556412 -149.54079862 386.95246288 -144.76171875 382.75 C-142.24212177 382.82635142 -141.04017132 383.56756556 -138.94921875 384.9375 C-137.76171875 386.75 -137.76171875 386.75 -137.82421875 389.375 C-138.82964954 392.99455083 -140.2095588 396.21790011 -141.82421875 399.6015625 C-145.10607032 407.12247234 -144.98653575 416.43539642 -142.13671875 424.0625 C-141.38842044 425.64622725 -140.59751501 427.21065372 -139.76171875 428.75 C-139.395625 429.45898438 -139.02953125 430.16796875 -138.65234375 430.8984375 C-133.93777002 438.49413961 -125.20924893 442.03574225 -116.96875 444.62890625 C-94.28583164 449.53610341 -70.30596351 443.2084849 -50.88671875 431.3125 C-22.07810285 411.89240625 -4.88155491 383.39267576 11.17578125 353.3125 C11.53481537 352.6426709 11.89384949 351.9728418 12.26376343 351.28271484 C17.07256221 342.28269531 21.37341255 333.19715117 25.23828125 323.75 C24.38105469 324.75160156 23.52382812 325.75320313 22.640625 326.78515625 C21.48582361 328.12773022 20.33086737 329.470171 19.17578125 330.8125 C18.61439453 331.46927734 18.05300781 332.12605469 17.47460938 332.80273438 C7.65408843 344.19453867 -6.1073713 359.27057692 -21.9609375 360.98828125 C-29.06124362 361.20006432 -34.16376041 360.04608882 -39.484375 355.171875 C-45.51079261 348.59760125 -47.8836063 341.23199811 -47.89453125 332.36328125 C-47.89582031 331.34169922 -47.89710938 330.32011719 -47.8984375 329.26757812 C-47.89457031 328.20990234 -47.89070312 327.15222656 -47.88671875 326.0625 C-47.89058594 325.02416016 -47.89445313 323.98582031 -47.8984375 322.91601562 C-47.89035096 316.46699739 -47.54379332 310.1517881 -46.76171875 303.75 C-47.28378906 304.40484375 -47.80585937 305.0596875 -48.34375 305.734375 C-53.42011506 312.02871206 -58.69783613 318.04002222 -64.1953125 323.96484375 C-66.3253806 326.27647016 -68.40123633 328.6161298 -70.44921875 331 C-81.49590181 343.66965545 -96.82996099 359.16056252 -114.3671875 361.02734375 C-119.25834597 361.2079626 -122.93254912 361.11502785 -126.76171875 357.75 C-131.02199811 351.81603946 -131.49427985 345.86265716 -130.76171875 338.75 C-126.96039084 318.33940335 -118.31875208 298.97817133 -110.47860718 279.87734985 C-106.65903481 270.56379817 -102.9861748 261.22243319 -99.57421875 251.75 C-99.03099976 250.24796021 -99.03099976 250.24796021 -98.47680664 248.71557617 C-93.61665252 235.80551481 -93.61665252 235.80551481 -94.51171875 222.375 C-96.16697153 220.22317138 -97.14811632 219.57534814 -99.76171875 218.75 C-111.07556107 217.59943976 -119.28941932 223.86395112 -127.76171875 230.75 C-154.24311587 254.01485471 -166.14007077 289.16840037 -178.83935547 320.94580078 C-181.63112164 327.92902791 -184.44909361 334.90161258 -187.27474976 341.8711853 C-188.12358461 343.96756246 -188.96882983 346.06536087 -189.8137207 348.16333008 C-190.32488307 349.42665555 -190.83618652 350.68992394 -191.34765625 351.953125 C-191.79157715 353.05301758 -192.23549805 354.15291016 -192.69287109 355.28613281 C-193.76171875 357.75 -193.76171875 357.75 -194.76171875 358.75 C-196.46944233 358.83713831 -198.18070524 358.85700007 -199.890625 358.84765625 C-201.44233398 358.84282227 -201.44233398 358.84282227 -203.02539062 358.83789062 C-204.65831055 358.82532227 -204.65831055 358.82532227 -206.32421875 358.8125 C-207.96293945 358.80573242 -207.96293945 358.80573242 -209.63476562 358.79882812 C-212.3438037 358.78699826 -215.05273474 358.77051543 -217.76171875 358.75 C-217.05197745 353.75536092 -215.09038964 349.35200545 -213.1640625 344.73046875 C-212.81034073 343.87189774 -212.45661896 343.01332672 -212.09217834 342.1287384 C-210.96541629 339.39655847 -209.8324121 336.6670179 -208.69921875 333.9375 C-207.93252909 332.08155102 -207.16624834 330.22543306 -206.40039062 328.36914062 C-204.5255663 323.82745528 -202.64514083 319.28812624 -200.76171875 314.75 C-203.72413043 317.69453891 -206.6517609 320.65950223 -209.50390625 323.7109375 C-210.17808594 324.43023437 -210.85226562 325.14953125 -211.546875 325.890625 C-212.93256124 327.37214374 -214.3179809 328.85391187 -215.703125 330.3359375 C-243.93539126 360.45035484 -243.93539126 360.45035484 -262.07421875 361.0625 C-266.77434048 360.97732481 -270.32182297 360.06870704 -273.76171875 356.75 C-277.59353219 350.58637127 -277.45498753 343.51099302 -275.9921875 336.6015625 C-275.65454475 335.19027504 -275.30665638 333.78140438 -274.94921875 332.375 C-274.76907227 331.63838135 -274.58892578 330.9017627 -274.40332031 330.14282227 C-273.03483752 324.62468791 -271.51596949 319.15893979 -269.76171875 313.75 C-270.50035156 314.56082031 -271.23898437 315.37164062 -272 316.20703125 C-310.14666218 357.93053757 -310.14666218 357.93053757 -335.73828125 361.12109375 C-340.27431534 361.32283112 -343.13130009 361.05395185 -347.26171875 359.0625 C-352.53025729 354.18910185 -353.42037135 349.67228094 -353.84375 342.73046875 C-353.68377199 334.96772645 -352.18527858 327.36644722 -350.76171875 319.75 C-351.45136719 320.57242187 -352.14101563 321.39484375 -352.8515625 322.2421875 C-355.32573926 325.18611661 -357.81334692 328.11834712 -360.30859375 331.04443359 C-361.56776348 332.52235022 -362.82149151 334.00489984 -364.07421875 335.48828125 C-373.24011733 346.05265333 -386.47409225 359.41710492 -401.06640625 361 C-408.09338522 361.34173758 -413.07702908 359.88880972 -418.44921875 355.3125 C-425.41549448 348.06757325 -427.23685518 338.7749998 -427.16210938 329.02929688 C-427.13310547 327.92650391 -427.10410156 326.82371094 -427.07421875 325.6875 C-427.06455078 324.58083984 -427.05488281 323.47417969 -427.04492188 322.33398438 C-426.95560767 315.75968215 -426.54445191 309.27768181 -425.76171875 302.75 C-426.30699219 303.42804688 -426.85226562 304.10609375 -427.4140625 304.8046875 C-432.02057868 310.48999465 -436.72457727 316.01876657 -441.65625 321.42578125 C-443.5014943 323.46273925 -445.29253545 325.53270847 -447.07421875 327.625 C-458.73562526 340.9216842 -475.26931866 359.21582325 -493.9453125 360.953125 C-498.76132476 361.0532847 -501.84341075 360.86159753 -505.76171875 357.75 C-506.31859375 357.3375 -506.87546875 356.925 -507.44921875 356.5 C-512.23618797 350.11737437 -510.82100523 342.16500536 -509.76171875 334.75 C-508.90583465 330.70482144 -507.90032394 326.7243766 -506.76171875 322.75 C-507.50035156 323.63300781 -508.23898437 324.51601563 -509 325.42578125 C-536.8048335 358.4356426 -536.8048335 358.4356426 -555.3203125 361.12109375 C-561.27541114 361.42020829 -565.90260911 360.23942773 -570.76171875 356.75 C-577.48252963 350.18193482 -580.73134676 341.67537731 -580.89453125 332.34375 C-580.89853105 330.64583605 -580.89562491 328.94789531 -580.88671875 327.25 C-580.88478516 326.36666992 -580.88285156 325.48333984 -580.88085938 324.57324219 C-580.83512262 317.59330567 -580.47159083 310.69660536 -579.76171875 303.75 C-580.11621094 304.17667969 -580.47070312 304.60335938 -580.8359375 305.04296875 C-590.7026611 316.62979913 -601.52915747 326.7207857 -613.76171875 335.75 C-614.78652344 336.51957031 -615.81132813 337.28914063 -616.8671875 338.08203125 C-636.35377834 352.18449433 -658.22130337 362.50288681 -682.76171875 360.75 C-690.43195444 359.16634437 -696.70194003 355.77573647 -701.76171875 349.75 C-709.19986426 338.28918395 -709.22035595 325.95640315 -709.76171875 312.75 C-710.58671875 313.6471875 -711.41171875 314.544375 -712.26171875 315.46875 C-716.06651725 319.58954497 -719.90937689 323.67367418 -723.76171875 327.75 C-724.41897949 328.44947754 -725.07624023 329.14895508 -725.75341797 329.86962891 C-741.41845255 346.44177017 -758.60825605 359.89784434 -782.3828125 361.0859375 C-814.90641129 361.70833398 -847.98516639 352.6999822 -879.43286133 345.12133789 C-885.05479371 343.64619351 -885.05479371 343.64619351 -890.76171875 343.75 C-892.95311267 345.24677436 -894.88184656 346.72542004 -896.88671875 348.4375 C-902.48424298 352.97939983 -907.96265845 356.22652381 -914.76171875 358.75 C-915.89609375 359.183125 -917.03046875 359.61625 -918.19921875 360.0625 C-924.62102154 361.30179527 -930.99169359 361.64036523 -937.26171875 359.625 C-940.41948253 357.25667717 -942.01723916 355.30605455 -943.76171875 351.75 C-944.57551461 345.44308209 -943.40816261 340.97005802 -939.76171875 335.75 C-931.07589844 325.71882165 -917.59841922 323.00543793 -905.01171875 322.0625 C-900.69368679 321.76485788 -896.96839747 321.68227429 -892.76171875 322.75 C-892.53355469 322.11578125 -892.30539062 321.4815625 -892.0703125 320.828125 C-891.0177156 318.35216573 -889.89363463 316.08929821 -888.609375 313.734375 C-877.34520865 292.77836684 -869.47522346 270.35066086 -861.05371094 248.15130615 C-815.12496453 127.23902105 -815.12496453 127.23902105 -769.76171875 105.75 C-750.57501279 97.41717758 -727.72174381 94.37303058 -707.83203125 101.8515625 C-696.87250999 107.01486279 -690.35059384 114.55414974 -686.1171875 125.9140625 C-684.47191693 131.06259715 -684.26341724 135.93774192 -684.32421875 141.3125 C-684.33324219 142.27631592 -684.34226562 143.24013184 -684.3515625 144.2331543 C-684.90523334 167.37390408 -695.79982212 188.31250078 -711.44921875 205 C-725.82528034 218.63595233 -743.39751971 227.23319383 -763.43359375 227.02734375 C-769.84899176 226.49272725 -775.5062468 224.5459752 -779.94921875 219.75 C-781.76171875 216.75 -781.76171875 216.75 -782.01171875 214.625 C-779.96240382 211.55102761 -777.02421034 210.41090481 -773.76171875 208.75 C-772.55729167 210.27994792 -771.35286458 211.80989583 -770.1484375 213.33984375 C-767.49343525 216.03971928 -764.28170827 215.96456144 -760.69921875 216.0625 C-750.47206162 215.92775485 -743.26700054 211.33828307 -735.76171875 204.75 C-735.1790625 204.26144531 -734.59640625 203.77289063 -733.99609375 203.26953125 C-717.61811149 188.38393522 -708.82248218 164.57936278 -706.88671875 143 C-706.45774858 132.8119584 -707.32228432 123.04140898 -713.76171875 114.75 C-719.02124161 109.62855531 -725.11097462 107.7195967 -732.38671875 107.4375 C-748.11516274 107.84262659 -761.19783732 114.44477233 -772.76171875 124.75 C-773.4371875 125.34296875 -774.11265625 125.9359375 -774.80859375 126.546875 C-788.3022839 139.17696898 -797.24849286 156.60357434 -804.4921875 173.3515625 C-804.92552902 174.35155777 -805.35887054 175.35155304 -805.80534363 176.3818512 C-809.96289955 186.06806131 -813.75499847 195.87924584 -817.46578979 205.74359131 C-819.39097655 210.8567508 -821.33800329 215.96157919 -823.28515625 221.06640625 C-823.66919113 222.07364746 -824.05322601 223.08088867 -824.44889832 224.11865234 C-829.65972139 237.75583298 -835.11587633 251.28741715 -840.76171875 264.75 C-841.24189453 265.89597656 -841.72207031 267.04195313 -842.21679688 268.22265625 C-850.60556054 288.1045968 -860.19029881 306.20737217 -872.76171875 323.75 C-866.1989479 325.84035079 -859.5178867 326.92382604 -852.734375 328.0625 C-851.47265976 328.27688721 -850.21094452 328.49127441 -848.91099548 328.7121582 C-846.24276253 329.16513914 -843.57407801 329.61532798 -840.9050293 330.06347656 C-837.53228501 330.62997015 -834.16070074 331.20305151 -830.78939247 331.77802086 C-783.93184451 341.25107891 -783.93184451 341.25107891 -739.76171875 327.75 C-736.31446534 325.20777772 -733.0232919 322.52485468 -729.76171875 319.75 C-729.12363281 319.234375 -728.48554687 318.71875 -727.828125 318.1875 C-724.06010704 315.09923584 -720.80991661 311.76512688 -717.69921875 308.015625 C-715.76171875 305.75 -715.76171875 305.75 -713.44921875 303.484375 C-706.17526776 295.89218866 -703.0760556 287.55656223 -699.51245117 277.74951172 C-692.16443832 257.62602543 -681.58944286 240.246644 -666.76171875 224.75 C-665.88773438 223.79867187 -665.88773438 223.79867187 -664.99609375 222.828125 C-653.39311422 210.5745111 -635.47537729 200.10819077 -618.46557617 199.30078125 C-610.9401219 199.13216179 -604.60281858 199.46761406 -598.76171875 204.75 C-591.66414495 212.4030361 -590.19123812 219.23011041 -590.453125 229.55078125 C-591.28525702 244.76049722 -599.86125782 258.64216579 -609.76171875 269.75 C-610.77685547 270.90628906 -610.77685547 270.90628906 -611.8125 272.0859375 C-629.71718493 291.26719046 -656.68184389 296.5477043 -681.76171875 298.75 C-682.71082905 304.39873711 -682.97718658 309.90129312 -683.01171875 315.625 C-683.03234375 316.47191406 -683.05296875 317.31882812 -683.07421875 318.19140625 C-683.11547382 324.926296 -682.33392728 331.45566332 -678.078125 336.90625 C-677.49933594 337.3496875 -676.92054688 337.793125 -676.32421875 338.25 C-675.74800781 338.7140625 -675.17179687 339.178125 -674.578125 339.65625 C-668.0691869 343.57561057 -658.99577443 342.22863382 -651.94921875 340.625 C-631.15917103 334.80698921 -613.94390551 322.63253083 -597.76171875 308.75 C-597.13676514 308.22438477 -596.51181152 307.69876953 -595.86791992 307.15722656 C-592.1321637 304.00274084 -588.8443658 300.79168573 -585.703125 297.0390625 C-584.320771 295.40916422 -582.88436069 293.82446754 -581.4140625 292.2734375 C-575.2602871 285.52045368 -571.66093474 278.70989251 -568.08422852 270.32299805 C-562.47185852 257.21349774 -554.87783164 245.68315272 -545.76171875 234.75 C-545.33665039 234.23840332 -544.91158203 233.72680664 -544.47363281 233.19970703 C-529.95019924 215.97157081 -510.35377743 201.43272362 -487.44921875 198.875 C-478.03261963 198.39304808 -472.21720691 201.05784306 -464.76171875 206.75 C-464.10171875 207.41 -463.44171875 208.07 -462.76171875 208.75 C-460.78171875 204.79 -460.78171875 204.79 -458.76171875 200.75 C-451.17171875 200.75 -443.58171875 200.75 -435.76171875 200.75 C-436.45525271 204.2176698 -437.04194618 206.75483362 -438.33374023 209.91796875 C-438.65664032 210.71504745 -438.97954041 211.51212616 -439.31222534 212.33335876 C-439.6655191 213.19272537 -440.01881287 214.05209198 -440.3828125 214.9375 C-440.75431427 215.85136978 -441.12581604 216.76523956 -441.50857544 217.70680237 C-442.31352651 219.68583336 -443.12040381 221.66408173 -443.9289856 223.64163208 C-445.21462052 226.78768944 -446.49386424 229.93627433 -447.77124023 233.08569336 C-451.26128953 241.68909052 -454.75877109 250.28945167 -458.26269531 258.88720703 C-476.40878862 297.05375421 -476.40878862 297.05375421 -484.82421875 337.5625 C-484.81068359 338.74779297 -484.81068359 338.74779297 -484.796875 339.95703125 C-484.78527344 340.54871094 -484.77367187 341.14039063 -484.76171875 341.75 C-474.72523002 340.6935275 -467.31130282 332.56898972 -460.171875 325.97265625 C-457.84566723 323.82741765 -455.4677184 321.75700646 -453.07421875 319.6875 C-449.63325254 316.631537 -446.58243257 313.42892966 -443.6171875 309.9140625 C-441.52716992 307.476442 -439.33348467 305.154302 -437.13671875 302.8125 C-427.5359704 292.18728155 -419.12381089 281.74297318 -413.64135742 268.4206543 C-401.97035228 240.28154678 -378.93453812 215.66392041 -351.234375 203.125 C-341.292551 199.18852976 -330.41671354 196.9724609 -320.0625 200.58203125 C-316.04140153 202.62330195 -312.90029356 205.55005641 -309.76171875 208.75 C-307.44593812 206.43421937 -306.60530984 204.43918328 -305.28515625 201.44140625 C-304.78781982 200.32032471 -304.2904834 199.19924316 -303.77807617 198.04418945 C-303.51191498 197.43886383 -303.24575378 196.83353821 -302.9715271 196.20986938 C-301.5202048 192.91127456 -300.05180641 189.6202745 -298.5859375 186.328125 C-298.275923 185.63084793 -297.96590851 184.93357086 -297.64649963 184.21516418 C-259.31428414 98.07884809 -259.31428414 98.07884809 -247.76171875 80.75 C-248.45402588 80.65638184 -249.14633301 80.56276367 -249.85961914 80.46630859 C-258.09288067 79.32229202 -266.30040013 78.04184549 -274.5078125 76.7265625 C-310.54064418 70.84937713 -310.54064418 70.84937713 -346.73291016 66.09228516 C-348.67643201 65.87264807 -350.61896331 65.64394759 -352.56005859 65.40380859 C-365.41480745 63.82416988 -378.28451725 63.50658001 -391.22323608 63.39953613 C-393.04721435 63.38348677 -394.87115255 63.36151102 -396.69497681 63.33288574 C-426.33913267 62.91636437 -451.64589356 71.60954666 -473.140625 92.26953125 C-475.58532314 94.58306824 -478.10372685 96.68801352 -480.76171875 98.75 C-482.74171875 94.295 -482.74171875 94.295 -484.76171875 89.75 C-457.57902877 61.08011117 -424.32258193 46.73616667 -384.71875 45.625 C-335.4933835 44.69786591 -286.49702273 55.99198699 -238.76171875 66.75 C-238.106875 65.89019531 -237.45203125 65.03039062 -236.77734375 64.14453125 C-230.59935071 56.11222402 -224.13284785 48.49980356 -217.12695312 41.17822266 C-215.9073729 39.90237424 -214.70081785 38.61410438 -213.49609375 37.32421875 C-207.17027547 30.72896747 -200.05283996 25.22380816 -192.76171875 19.75 C-191.51261719 18.80833984 -191.51261719 18.80833984 -190.23828125 17.84765625 C-142.15445331 -17.02542715 -51.73594654 -42.1497952 0 0 Z M-108.76171875 -8.25 C-109.57431152 -8.05132324 -110.3869043 -7.85264648 -111.22412109 -7.64794922 C-156.03862308 3.53682553 -191.81244611 29.06852518 -217.3984375 67.421875 C-218.93015565 69.58799467 -218.93015565 69.58799467 -218.76171875 71.75 C-207.42090029 74.73340629 -196.05461442 77.18764574 -184.51171875 79.25 C-183.68032379 79.39963196 -182.84892883 79.54926392 -181.99234009 79.70343018 C-169.52192537 81.93041153 -157.04111361 83.74371344 -144.44921875 85.125 C-143.37444275 85.24403687 -143.37444275 85.24403687 -142.2779541 85.36547852 C-98.48776395 90.13688637 -48.49054644 91.66045279 -11.82421875 63.375 C-3.35401699 56.11304761 3.36810261 46.61749146 4.6171875 35.32421875 C4.94032784 25.61958473 3.18970968 19.10592674 -2.94921875 11.625 C-17.84169696 -4.17479306 -39.88730391 -10.60127017 -61.19238281 -11.37451172 C-85.16835839 -11.9449909 -85.16835839 -11.9449909 -108.76171875 -8.25 Z M-510.76171875 224.75 C-511.72851562 225.74386719 -511.72851562 225.74386719 -512.71484375 226.7578125 C-537.40787818 252.91861471 -556.23979548 293.59554405 -556.1953125 329.8046875 C-555.56126742 334.11162436 -553.92542048 337.46161595 -551.01171875 340.6875 C-548.46909679 341.88818259 -546.64721196 342.12465746 -543.87890625 341.578125 C-531.30042092 336.65812705 -521.7909971 324.04361292 -513.76171875 313.75 C-513.33487793 313.2048877 -512.90803711 312.65977539 -512.46826172 312.09814453 C-499.20951931 295.02902861 -489.89850645 276.56121361 -481.57391357 256.6809082 C-480.68884165 254.57674233 -479.7946542 252.47660407 -478.89892578 250.37695312 C-477.24744047 246.50427741 -475.6095865 242.62608793 -473.98110962 238.74368286 C-473.33744116 237.21239428 -472.69047194 235.68248876 -472.04013062 234.15402222 C-471.12874295 232.00694422 -470.23245778 229.8541569 -469.33984375 227.69921875 C-469.06338516 227.05551331 -468.78692657 226.41180786 -468.50209045 225.74859619 C-467.47228704 223.22690649 -466.72773051 221.22313873 -466.92480469 218.47973633 C-468.95090231 214.29219209 -473.55332428 211.48286831 -477.76171875 209.75 C-491.49992627 207.88939237 -501.74146353 215.0697261 -510.76171875 224.75 Z M-364.76171875 232.75 C-381.71617295 255.63185642 -395.14342921 281.6919945 -400.76171875 309.75 C-400.95121094 310.68714844 -401.14070312 311.62429688 -401.3359375 312.58984375 C-401.90564943 316.81825615 -402.02449933 320.98738856 -402.07421875 325.25 C-402.11772461 326.49330078 -402.11772461 326.49330078 -402.16210938 327.76171875 C-402.21871893 333.23978136 -401.51465628 336.46477869 -397.76171875 340.75 C-394.31884768 342.12714843 -392.17400381 342.23816507 -388.6484375 341.01953125 C-374.81747637 333.83672959 -363.59112307 319.29228204 -354.76171875 306.75 C-354.3632373 306.19586426 -353.96475586 305.64172852 -353.55419922 305.07080078 C-337.12686257 282.12973587 -327.12206418 255.79928667 -316.76171875 229.75 C-316.28742432 228.56752686 -315.81312988 227.38505371 -315.32446289 226.16674805 C-314.94539795 225.18488525 -314.56633301 224.20302246 -314.17578125 223.19140625 C-313.86205566 222.38388916 -313.54833008 221.57637207 -313.22509766 220.74438477 C-312.50115235 218.53924754 -312.50115235 218.53924754 -314.07421875 215.8125 C-320.25672938 211.06778254 -324.04358761 209.0300817 -331.93359375 209.375 C-345.88297454 211.22464165 -356.45563642 222.12003016 -364.76171875 232.75 Z M15.23828125 231.75 C-0.42715064 252.79041025 -12.97935767 276.35005776 -19.76171875 301.75 C-19.93960938 302.41483398 -20.1175 303.07966797 -20.30078125 303.76464844 C-22.18342102 311.0897607 -23.03421587 318.27447106 -23.13671875 325.8125 C-23.1507373 326.5152002 -23.16475586 327.21790039 -23.17919922 327.94189453 C-23.13554911 332.59678664 -22.18358511 335.78911511 -19.76171875 339.75 C-17.27341779 341.7939615 -15.81449136 341.74896524 -12.57421875 341.8125 C-7.24517612 340.32735697 -3.9022209 337.31584171 0.23828125 333.75 C1.17027344 332.99976563 1.17027344 332.99976563 2.12109375 332.234375 C29.63071423 309.78257712 44.08568589 273.99857865 57.30078125 242.1875 C57.68639221 241.25952606 58.07200317 240.33155212 58.46929932 239.37545776 C59.57478956 236.70901012 60.67527977 234.04056858 61.7734375 231.37109375 C62.1083873 230.56152222 62.4433371 229.75195068 62.78843689 228.91784668 C63.09680984 228.16434937 63.4051828 227.41085205 63.72290039 226.63452148 C63.9925209 225.97838364 64.26214142 225.32224579 64.53993225 224.64622498 C65.26871614 222.66736022 65.89890091 220.83447048 66.23828125 218.75 C63.62305617 214.39129154 60.03744088 211.4119312 55.23828125 209.75 C38.1226455 207.15115347 25.09453319 219.07504424 15.23828125 231.75 Z M-653.2421875 231.1171875 C-655.57427199 234.57040952 -657.68434569 238.13958698 -659.76171875 241.75 C-660.41527344 242.8534375 -661.06882812 243.956875 -661.7421875 245.09375 C-666.20490462 253.00371568 -669.73522891 261.20749394 -673.13671875 269.625 C-673.565896 270.68307861 -673.99507324 271.74115723 -674.43725586 272.83129883 C-676.77947433 278.76563593 -678.57065634 284.4805616 -679.76171875 290.75 C-661.61336393 289.10530534 -644.72980075 282.85010253 -631.95703125 269.390625 C-621.08584549 256.3142521 -613.1444437 240.63229225 -613.5078125 223.3359375 C-613.96278298 218.70223819 -615.35075251 215.36999827 -618.44921875 211.8125 C-632.37055097 205.41621222 -645.98007106 220.91304339 -653.2421875 231.1171875 Z M-708.76171875 309.75 C-707.76171875 311.75 -707.76171875 311.75 -707.76171875 311.75 Z M-505.76171875 319.75 C-504.76171875 321.75 -504.76171875 321.75 -504.76171875 321.75 Z M-933.88671875 344.1875 C-935.02383978 346.75927191 -935.02383978 346.75927191 -934.07421875 349.5 C-932.96224272 351.87775858 -932.96224272 351.87775858 -930.76171875 352.75 C-923.63402789 353.51368116 -918.71454301 351.69351134 -912.76171875 347.75 C-909.87641798 345.26621357 -907.20565882 342.67180544 -904.76171875 339.75 C-904.76171875 339.42 -904.76171875 339.09 -904.76171875 338.75 C-915.18847204 336.82433836 -926.33463566 335.52481646 -933.88671875 344.1875 Z " fill="#000000" transform="translate(1006.76171875,87.25)"/>
<path d="M0 0 C3.63 0 7.26 0 11 0 C11.41362793 1.21582764 11.82725586 2.43165527 12.25341797 3.68432617 C13.79146687 8.20415135 15.33126303 12.72337965 16.87158203 17.24243164 C17.53742217 19.19669676 18.20279125 21.15112244 18.86767578 23.10571289 C19.82460081 25.91855754 20.78323012 28.73081642 21.7421875 31.54296875 C22.03809784 32.41398727 22.33400818 33.2850058 22.6388855 34.18241882 C23.99858469 38.16470927 25.37891678 42.11427049 27 46 C27.17317245 45.45098526 27.34634491 44.90197052 27.52476501 44.33631897 C29.32163752 38.64173603 31.12280411 32.94852448 32.92651367 27.25610352 C33.59982643 25.12917665 34.27202938 23.00189813 34.94311523 20.87426758 C35.90579964 17.82280668 36.87241888 14.77261705 37.83984375 11.72265625 C38.14091537 10.76537125 38.441987 9.80808624 38.75218201 8.8217926 C39.032397 7.94095505 39.312612 7.06011749 39.60131836 6.15258789 C39.97105019 4.9834359 39.97105019 4.9834359 40.34825134 3.79066467 C41 2 41 2 42 1 C44.18639453 0.92741054 46.37500389 0.91626217 48.5625 0.9375 C50.35880859 0.95103516 50.35880859 0.95103516 52.19140625 0.96484375 C53.11824219 0.97644531 54.04507813 0.98804688 55 1 C54.32160471 6.42003284 52.64978528 11.27654708 50.83203125 16.39453125 C50.51473557 17.30015305 50.19743988 18.20577484 49.87052917 19.13883972 C48.85576369 22.03169208 47.83424422 24.9221061 46.8125 27.8125 C46.14473636 29.71273398 45.47741463 31.61312331 44.81054688 33.51367188 C43.50475818 37.23268626 42.19483061 40.9502003 40.88134766 44.66650391 C39.64860265 48.15546909 38.42437348 51.6472116 37.20849609 55.14208984 C36.93156418 55.9353215 36.65463226 56.72855316 36.36930847 57.54582214 C35.85183492 59.0286862 35.33651275 60.51230336 34.82368469 61.9967804 C33.11242423 66.88757577 33.11242423 66.88757577 32 68 C30.14712498 68.07226502 28.29166122 68.0838122 26.4375 68.0625 C25.42558594 68.05347656 24.41367187 68.04445313 23.37109375 68.03515625 C22.58863281 68.02355469 21.80617188 68.01195312 21 68 C16.73532633 56.92857267 12.80315183 45.75709257 8.98461914 34.52392578 C8.61199951 33.43450684 8.23937988 32.34508789 7.85546875 31.22265625 C7.52184326 30.24047119 7.18821777 29.25828613 6.84448242 28.24633789 C6.19988081 26.06219585 6.19988081 26.06219585 5 25 C0.05 39.19 -4.9 53.38 -10 68 C-13.96 68 -17.92 68 -22 68 C-24.70383278 60.15032014 -27.40741343 52.30055359 -30.11055565 44.45063591 C-31.36586515 40.80525289 -32.62128324 37.15990734 -33.87695312 33.51464844 C-35.08970233 29.99397678 -36.30216154 26.47320538 -37.51442337 22.95236588 C-37.97598663 21.61198527 -38.43765275 20.27164008 -38.89942551 18.93133163 C-39.5482978 17.04790334 -40.1967639 15.16433512 -40.84521484 13.28076172 C-41.21383636 12.21042694 -41.58245789 11.14009216 -41.96224976 10.037323 C-42.98976922 7.02994379 -43.99500617 4.01498148 -45 1 C-40.38 1 -35.76 1 -31 1 C-27.10516193 10.18068974 -24.19671113 19.61017932 -21.25 29.125 C-20.73864713 30.76573908 -20.22693122 32.40636505 -19.71484375 34.046875 C-18.47237435 38.0299588 -17.2348237 42.0145396 -16 46 C-12.0073801 36.66107759 -8.92872286 27.01133047 -5.75 17.375 C-5.19038526 15.68610475 -4.63049166 13.99730187 -4.0703125 12.30859375 C-2.71032442 8.20678704 -1.35411608 4.10374876 0 0 Z " fill="#000000" transform="translate(635,807)"/>
<path d="M0 0 C4.29 0 8.58 0 13 0 C16.20127424 3.42592506 17.80503528 5.9501994 20 10 C21.52770646 12.51588247 23.08789213 15.00912519 24.65795898 17.4987793 C25.75572546 19.24124263 26.84134746 20.99141995 27.91430664 22.74926758 C28.41309326 23.5564624 28.91187988 24.36365723 29.42578125 25.1953125 C29.87348877 25.92766113 30.32119629 26.66000977 30.7824707 27.41455078 C31.18425537 27.93774902 31.58604004 28.46094727 32 29 C32.66 29 33.32 29 34 29 C35.63012754 26.61237825 37.14153392 24.22690585 38.625 21.75 C39.52068068 20.2842663 40.41783382 18.81943144 41.31640625 17.35546875 C41.76516113 16.62247559 42.21391602 15.88948242 42.67626953 15.13427734 C50.53253012 2.46746988 50.53253012 2.46746988 53 0 C57.29 0 61.58 0 66 0 C66 22.44 66 44.88 66 68 C61.71 68 57.42 68 53 68 C52.67 53.48 52.34 38.96 52 24 C43.09 37.365 43.09 37.365 34 51 C29.88011251 48.94005625 29.04616211 48.04798791 26.65234375 44.3515625 C26.04712891 43.42859375 25.44191406 42.505625 24.81835938 41.5546875 C24.19767578 40.58789062 23.57699219 39.62109375 22.9375 38.625 C21.69746612 36.72079937 20.45661075 34.81713338 19.21484375 32.9140625 C18.66948975 32.0679541 18.12413574 31.2218457 17.56225586 30.35009766 C16.11937175 28.17957064 14.56381481 26.08508641 13 24 C12.67 38.52 12.34 53.04 12 68 C8.04 68 4.08 68 0 68 C0 45.56 0 23.12 0 0 Z " fill="#000000" transform="translate(409,690)"/>
<path d="M0 0 C12 0 12 0 15.375 2.71875 C16.2891944 3.95103396 17.16303104 5.21401472 18 6.5 C18.48509033 7.1712793 18.97018066 7.84255859 19.4699707 8.53417969 C20.49125789 9.95107402 21.49671392 11.37950076 22.48681641 12.81835938 C24.47383485 15.68315396 26.56699425 18.45995928 28.66992188 21.24023438 C29.63816912 22.52250776 30.59982917 23.80980026 31.55273438 25.10351562 C35.84818886 30.92296541 40.39671753 36.37376587 45 42 C45.33 28.14 45.66 14.28 46 0 C50.29 0 54.58 0 59 0 C59 22.44 59 44.88 59 68 C48 68 48 68 44.7578125 65.31640625 C43.84456841 64.09087322 42.96829909 62.83717354 42.125 61.5625 C41.63797607 60.89307373 41.15095215 60.22364746 40.64916992 59.53393555 C39.6116047 58.10713906 38.5876973 56.67032502 37.57666016 55.22460938 C35.45730426 52.23427631 33.21570202 49.34707017 30.97021484 46.45092773 C25.22261628 39.03661023 19.62844612 31.50459483 14 24 C13.67 38.52 13.34 53.04 13 68 C8.71 68 4.42 68 0 68 C0 45.56 0 23.12 0 0 Z " fill="#000000" transform="translate(679,690)"/>
<path d="M0 0 C8.81066817 6.26650236 14.87400288 13.99403676 16.703125 24.74609375 C17.68143555 35.79619163 15.87558083 45.42563006 8.703125 54.12109375 C1.31757775 61.71451236 -7.93615887 65.80912389 -18.484375 65.99609375 C-29.01525504 65.85473966 -37.22289194 62.14368671 -45.05078125 55.1875 C-52.13983042 47.7786441 -53.90838463 38.56483629 -53.76733398 28.59570312 C-53.31879031 18.57703161 -49.2082758 10.89826056 -42.296875 3.74609375 C-30.9009971 -5.9355737 -13.00560368 -7.09999793 0 0 Z M-35.2265625 14.94140625 C-39.95178523 21.79184877 -40.95638958 27.49593967 -40.296875 35.74609375 C-39.01658155 42.31200235 -35.49160509 46.66374869 -30.296875 50.74609375 C-24.75932715 53.98503683 -19.57260579 54.61307069 -13.296875 53.74609375 C-7.11019435 51.90651437 -2.7351305 48.14906668 0.703125 42.74609375 C3.91521638 36.43914061 4.30912412 30.6020486 2.703125 23.74609375 C0.66114034 17.53183773 -2.87772694 13.35885913 -8.296875 9.74609375 C-17.53519143 5.3277685 -28.38148717 7.15409383 -35.2265625 14.94140625 Z " fill="#000000" transform="translate(361.296875,693.25390625)"/>
<path d="M0 0 C6.3144029 5.02139396 10.30511385 11.20142384 11.75 19.1875 C12.66949456 31.49361207 11.89927913 41.33797287 3.76171875 51.11328125 C-3.67979395 58.78598657 -12.66439859 62.23720623 -23.25 62.5625 C-32.85666184 62.26728888 -40.88768895 59.4496956 -48.25 53.1875 C-56.0205712 44.84007417 -58.65180916 35.64001741 -58.52734375 24.3828125 C-57.70808394 14.94401638 -53.31242941 6.80880486 -46.3671875 0.46875 C-32.40961483 -10.69730813 -14.36042524 -10.00148797 0 0 Z M-41.02734375 13.2109375 C-45.21895979 19.98716024 -46.06166719 26.45355525 -44.25 34.1875 C-42.22708078 40.34373525 -38.6688309 44.65005114 -33.25 48.1875 C-27.42270682 50.9678425 -21.20381096 51.25719543 -14.96875 49.5703125 C-8.70145659 46.84645036 -4.96583161 41.83658025 -2.109375 35.76171875 C-0.1137432 29.7838944 -0.48438613 23.29200664 -2.75 17.4375 C-5.71750272 11.57615597 -10.3744182 7.56538295 -16.25 4.75 C-26.14978845 2.89378967 -34.71673651 4.94913971 -41.02734375 13.2109375 Z " fill="#000000" transform="translate(770.25,813.8125)"/>
<path d="M0 0 C6.084375 -0.0825 12.16875 -0.165 18.4375 -0.25 C20.33943115 -0.28641602 22.2413623 -0.32283203 24.20092773 -0.36035156 C40.2053889 -0.53859203 40.2053889 -0.53859203 47 4 C47.94875 4.598125 48.8975 5.19625 49.875 5.8125 C54.5116889 10.5855621 55.2130889 14.97446043 55.4375 21.4375 C55.281424 27.10175824 54.6259943 31.53075121 51 36 C47.92702438 38.84948648 45.34745675 41 41 41 C44.4989912 47.4119863 48.63938396 53.22138514 52.9296875 59.12304688 C53.71472656 60.21649414 53.71472656 60.21649414 54.515625 61.33203125 C54.99290039 61.98921143 55.47017578 62.6463916 55.96191406 63.32348633 C57 65 57 65 57 67 C51.85508726 68.29703682 46.96248784 69.17535271 42 67 C35.64117845 61.11403699 29.74683972 52.24051915 27 44 C22.38 44 17.76 44 13 44 C13 51.59 13 59.18 13 67 C8.71 67 4.42 67 0 67 C0 44.89 0 22.78 0 0 Z M13 11 C13 18.26 13 25.52 13 33 C17.4859375 33.0928125 17.4859375 33.0928125 22.0625 33.1875 C22.99070557 33.21481201 23.91891113 33.24212402 24.87524414 33.27026367 C31.11857933 33.33230344 36.06408702 32.5570855 40.9375 28.3125 C42.51775404 24.87312356 42.63455728 21.66876218 42 18 C40.65884601 14.99020117 40.65884601 14.99020117 38 13 C32.20544538 11.18605247 27.03774564 10.7400583 21 10.875 C18.36 10.91625 15.72 10.9575 13 11 Z " fill="#000000" transform="translate(169,572)"/>
<path d="M0 0 C5.56875 -0.0825 11.1375 -0.165 16.875 -0.25 C18.61120605 -0.28641602 20.34741211 -0.32283203 22.13623047 -0.36035156 C34.13593782 -0.50740057 44.05084619 1.3005007 53 10 C60.7978361 19.65198824 61.91967257 28.98530323 61 41 C59.19995619 49.60147515 53.84248427 56.47975435 46.796875 61.6015625 C32.57027096 70.1076789 16.16383078 67 0 67 C0 44.89 0 22.78 0 0 Z M13 11 C13 25.52 13 40.04 13 55 C29.44984236 55.86306449 29.44984236 55.86306449 42.64453125 48.5703125 C46.92841685 43.60742486 48.6519548 37.67483095 48.32421875 31.19921875 C47.45287568 25.28878325 45.2535875 20.2535875 41 16 C32.01263698 9.65093209 24.38384979 11 13 11 Z " fill="#000000" transform="translate(979,808)"/>
<path d="M0 0 C6.22875 -0.103125 12.4575 -0.20625 18.875 -0.3125 C21.79255127 -0.38078003 21.79255127 -0.38078003 24.76904297 -0.45043945 C42.1579773 -0.68994889 42.1579773 -0.68994889 49 5 C53.5464193 10.53197489 55.33551598 15.64754625 55.21484375 22.84765625 C54.56926101 29.31522154 51.99774721 33.83521066 47 38 C42.55172414 41 42.55172414 41 40 41 C42.0800264 44.064758 44.16460632 47.12639214 46.25 50.1875 C46.83652344 51.05181641 47.42304687 51.91613281 48.02734375 52.80664062 C50.40529745 56.29341543 52.76304988 59.70763412 55.421875 62.98828125 C57 65 57 65 57 67 C51.90009133 68.14271813 46.94465717 68.98996558 42 67 C37.03257069 62.63707267 33.63349892 56.75182903 30.29589844 51.10644531 C28.96022414 48.9353455 27.68054297 46.92062054 26 45 C22.58372468 44.29727224 22.58372468 44.29727224 18.8125 44.25 C15.4403125 44.12625 15.4403125 44.12625 12 44 C12 51.59 12 59.18 12 67 C8.04 67 4.08 67 0 67 C0 44.89 0 22.78 0 0 Z M12 11 C12 17.93 12 24.86 12 32 C15.56295812 32.08104454 19.12406707 32.14052442 22.6875 32.1875 C23.69490234 32.21263672 24.70230469 32.23777344 25.74023438 32.26367188 C32.89054196 32.42136832 32.89054196 32.42136832 39 29 C41.57648705 25.99409844 42.24443655 23.80534886 42 19.9375 C41.45252333 16.74889959 41.02895718 16.03052244 38.6875 13.5625 C34.80633272 11.30600739 31.68612113 10.87380692 27.234375 10.90234375 C26.43225586 10.90484131 25.63013672 10.90733887 24.80371094 10.90991211 C23.79598633 10.91901611 22.78826172 10.92812012 21.75 10.9375 C18.5325 10.958125 15.315 10.97875 12 11 Z " fill="#000000" transform="translate(814,808)"/>
<path d="M0 0 C16.5 0 33 0 50 0 C50 3.96 50 7.92 50 12 C37.79 12 25.58 12 13 12 C13 17.28 13 22.56 13 28 C23.89 28 34.78 28 46 28 C46 31.63 46 35.26 46 39 C35.11 39 24.22 39 13 39 C13 44.61 13 50.22 13 56 C25.54 56 38.08 56 51 56 C51 59.96 51 63.92 51 68 C34.17 68 17.34 68 0 68 C0 45.56 0 23.12 0 0 Z " fill="#000000" transform="translate(823,690)"/>
<path d="M0 0 C16.5 0 33 0 50 0 C50 3.63 50 7.26 50 11 C37.79 11 25.58 11 13 11 C13 16.28 13 21.56 13 27 C23.89 27 34.78 27 46 27 C46 30.96 46 34.92 46 39 C35.11 39 24.22 39 13 39 C13 44.28 13 49.56 13 55 C25.54 55 38.08 55 51 55 C51 58.96 51 62.92 51 67 C34.17 67 17.34 67 0 67 C0 44.89 0 22.78 0 0 Z " fill="#000000" transform="translate(466,808)"/>
<path d="M0 0 C4.29 0 8.58 0 13 0 C13 8.91 13 17.82 13 27 C22.9 27 32.8 27 43 27 C43 18.09 43 9.18 43 0 C47.29 0 51.58 0 56 0 C56 22.11 56 44.22 56 67 C51.71 67 47.42 67 43 67 C43 57.76 43 48.52 43 39 C33.1 39 23.2 39 13 39 C13 48.24 13 57.48 13 67 C8.71 67 4.42 67 0 67 C0 44.89 0 22.78 0 0 Z " fill="#000000" transform="translate(375,808)"/>
<path d="M0 0 C16.5 0 33 0 50 0 C50 3.63 50 7.26 50 11 C37.79 11 25.58 11 13 11 C13 16.28 13 21.56 13 27 C23.89 27 34.78 27 46 27 C46 30.96 46 34.92 46 39 C35.11 39 24.22 39 13 39 C13 44.61 13 50.22 13 56 C25.54 56 38.08 56 51 56 C51 59.63 51 63.26 51 67 C34.17 67 17.34 67 0 67 C0 44.89 0 22.78 0 0 Z " fill="#000000" transform="translate(954,572)"/>
<path d="M0 0 C16.5 0 33 0 50 0 C50 3.63 50 7.26 50 11 C37.46 11 24.92 11 12 11 C12 16.28 12 21.56 12 27 C23.22 27 34.44 27 46 27 C46 30.96 46 34.92 46 39 C34.78 39 23.56 39 12 39 C12 44.61 12 50.22 12 56 C24.54 56 37.08 56 50 56 C50 59.63 50 63.26 50 67 C33.5 67 17 67 0 67 C0 44.89 0 22.78 0 0 Z " fill="#000000" transform="translate(557,572)"/>
<path d="M0 0 C16.5 0 33 0 50 0 C50 3.63 50 7.26 50 11 C37.46 11 24.92 11 12 11 C12 16.28 12 21.56 12 27 C22.89 27 33.78 27 45 27 C45 30.96 45 34.92 45 39 C34.11 39 23.22 39 12 39 C12 44.61 12 50.22 12 56 C24.54 56 37.08 56 50 56 C50 59.63 50 63.26 50 67 C33.5 67 17 67 0 67 C0 44.89 0 22.78 0 0 Z " fill="#000000" transform="translate(257,572)"/>
<path d="M0 0 C4.29 0 8.58 0 13 0 C29.32713994 37.36738869 29.32713994 37.36738869 37.0625 55.375 C37.56813477 56.54901367 38.07376953 57.72302734 38.59472656 58.93261719 C39.04944336 59.99383789 39.50416016 61.05505859 39.97265625 62.1484375 C40.36718994 63.06802246 40.76172363 63.98760742 41.16821289 64.93505859 C42 67 42 67 42 68 C37.38 68 32.76 68 28 68 C26.9955866 65.7101766 25.99632388 63.4183401 25 61.125 C24.71382812 60.47402344 24.42765625 59.82304688 24.1328125 59.15234375 C22 54.2265625 22 54.2265625 22 52 C6.655 52.495 6.655 52.495 -9 53 C-10.98 57.62 -12.96 62.24 -15 67 C-16 68 -16 68 -18.94140625 68.09765625 C-22.29427083 68.06510417 -25.64713542 68.03255208 -29 68 C-24.71535621 56.23788178 -19.59634378 44.86392664 -14.5 33.4375 C-12.82108136 29.66617856 -11.14409933 25.8940021 -9.46875 22.12109375 C-9.07252441 21.22917328 -8.67629883 20.33725281 -8.26806641 19.41830444 C-5.41641071 12.98225922 -2.66533377 6.51586719 0 0 Z M6 16 C4.33039819 19.81122135 2.66481068 23.62418364 1 27.4375 C0.52304687 28.52611328 0.04609375 29.61472656 -0.4453125 30.73632812 C-0.89648438 31.77080078 -1.34765625 32.80527344 -1.8125 33.87109375 C-2.23144531 34.82943115 -2.65039062 35.78776855 -3.08203125 36.77514648 C-4.06356798 38.75293609 -4.06356798 38.75293609 -4 40 C2.6 40 9.2 40 16 40 C15.26360436 36.3180218 14.58734405 33.70380278 13.15234375 30.35546875 C12.79462891 29.51435547 12.43691406 28.67324219 12.06835938 27.80664062 C11.50858398 26.51016602 11.50858398 26.51016602 10.9375 25.1875 C10.56044922 24.30384766 10.18339844 23.42019531 9.79492188 22.50976562 C8.86751446 20.33798876 7.93576366 18.16818633 7 16 C6.67 16 6.34 16 6 16 Z " fill="#000000" transform="translate(609,690)"/>
<path d="M0 0 C3.96 0 7.92 0 12 0 C17.625086 11.8593953 22.93259643 23.84775717 28.1875 35.875 C29.3828659 38.60629604 30.57873873 41.33736962 31.7747345 44.06838989 C32.51096719 45.75004232 33.2467509 47.43189143 33.98197937 49.11398315 C34.31945694 49.88573883 34.65693451 50.65749451 35.00463867 51.45263672 C35.33039886 52.20043396 35.65615906 52.9482312 35.99179077 53.71868896 C36.69520046 55.31031919 37.41356 56.89538981 38.14321899 58.47515869 C38.51014862 59.27371277 38.87707825 60.07226685 39.25512695 60.89501953 C39.589543 61.61142609 39.92395905 62.32783264 40.26850891 63.06594849 C41 65 41 65 41 68 C36.71 68 32.42 68 28 68 C25.47221252 63.03159013 23.20439093 58.14357884 21 53 C11.1 53 1.2 53 -9 53 C-10.93222372 57.56125509 -10.93222372 57.56125509 -12.85913086 62.12475586 C-14.88888889 66.88888889 -14.88888889 66.88888889 -16 68 C-18.18639453 68.07258946 -20.37500389 68.08373783 -22.5625 68.0625 C-23.76003906 68.05347656 -24.95757813 68.04445313 -26.19140625 68.03515625 C-27.58166016 68.01775391 -27.58166016 68.01775391 -29 68 C-27.41009514 62.88671509 -25.35266431 58.06898041 -23.18359375 53.18359375 C-22.8106871 52.3376062 -22.43778046 51.49161865 -22.05357361 50.61999512 C-21.25948704 48.81906885 -20.46423472 47.01865621 -19.66790771 45.21871948 C-17.6182621 40.58569073 -15.57699305 35.94897421 -13.53515625 31.3125 C-13.1376416 30.41039291 -12.74012695 29.50828583 -12.33056641 28.57884216 C-8.14925602 19.08281971 -4.04863124 9.55334915 0 0 Z M5 18 C3.49414477 21.45581315 1.99631711 24.91504753 0.5 28.375 C0.07074219 29.35984375 -0.35851562 30.3446875 -0.80078125 31.359375 C-1.40986328 32.77089844 -1.40986328 32.77089844 -2.03125 34.2109375 C-2.59682617 35.51490479 -2.59682617 35.51490479 -3.17382812 36.84521484 C-4.11933353 38.9266173 -4.11933353 38.9266173 -4 41 C2.6 41 9.2 41 16 41 C15.26272525 37.31362623 14.64603292 34.86981865 13.15234375 31.57421875 C12.61577148 30.38022461 12.61577148 30.38022461 12.06835938 29.16210938 C11.69517578 28.34548828 11.32199219 27.52886719 10.9375 26.6875 C10.56044922 25.85154297 10.18339844 25.01558594 9.79492188 24.15429688 C8.86788193 22.10072738 7.93613122 20.04943713 7 18 C6.34 18 5.68 18 5 18 Z " fill="#000000" transform="translate(812,571)"/>
<path d="M0 0 C1.65322266 0.01740234 1.65322266 0.01740234 3.33984375 0.03515625 C4.99693359 0.04869141 4.99693359 0.04869141 6.6875 0.0625 C7.54214844 0.07410156 8.39679688 0.08570313 9.27734375 0.09765625 C9.76501221 1.20874756 10.25268066 2.31983887 10.75512695 3.46459961 C11.82006316 5.89090046 12.88505262 8.31717789 13.95014954 10.7434082 C15.98937085 15.38863912 18.02811277 20.0340793 20.06591797 24.67993164 C23.67139825 32.89796865 27.27842417 41.11511989 30.921875 49.31640625 C31.69180786 51.05289429 31.69180786 51.05289429 32.47729492 52.82446289 C33.40799286 54.92136346 34.34162172 57.01696628 35.27856445 59.11108398 C35.68292725 60.02317627 36.08729004 60.93526855 36.50390625 61.875 C36.85018066 62.65093506 37.19645508 63.42687012 37.55322266 64.22631836 C38.27734375 66.09765625 38.27734375 66.09765625 38.27734375 68.09765625 C33.65734375 68.09765625 29.03734375 68.09765625 24.27734375 68.09765625 C23.27293035 65.80783285 22.27366763 63.51599635 21.27734375 61.22265625 C20.99117188 60.57167969 20.705 59.92070313 20.41015625 59.25 C18.27734375 54.32421875 18.27734375 54.32421875 18.27734375 52.09765625 C8.04734375 52.09765625 -2.18265625 52.09765625 -12.72265625 52.09765625 C-13.71265625 55.06765625 -14.70265625 58.03765625 -15.72265625 61.09765625 C-16.69647584 63.44203673 -17.68706327 65.77990052 -18.72265625 68.09765625 C-23.01265625 68.09765625 -27.30265625 68.09765625 -31.72265625 68.09765625 C-30.84771559 63.72295295 -29.58045032 60.16383288 -27.765625 56.15625 C-27.46627548 55.48372192 -27.16692596 54.81119385 -26.85850525 54.11828613 C-25.88010979 51.92192217 -24.89506719 49.72860511 -23.91015625 47.53515625 C-22.54416512 44.47386003 -21.18199215 41.41087228 -19.8203125 38.34765625 C-19.47667664 37.57566391 -19.13304077 36.80367157 -18.7789917 36.00828552 C-14.85971802 27.18691894 -11.07832568 18.3074212 -7.31713867 9.41772461 C-6.8554126 8.33112549 -6.39368652 7.24452637 -5.91796875 6.125 C-5.51594238 5.17359131 -5.11391602 4.22218262 -4.69970703 3.24194336 C-3.27604756 0.11750529 -3.27604756 0.11750529 0 0 Z M2.27734375 17.09765625 C0.60774194 20.9088776 -1.05784557 24.72183989 -2.72265625 28.53515625 C-3.19960938 29.62376953 -3.6765625 30.71238281 -4.16796875 31.83398438 C-4.61914062 32.86845703 -5.0703125 33.90292969 -5.53515625 34.96875 C-5.95410156 35.9270874 -6.37304688 36.8854248 -6.8046875 37.87280273 C-7.78622423 39.85059234 -7.78622423 39.85059234 -7.72265625 41.09765625 C-0.79265625 41.09765625 6.13734375 41.09765625 13.27734375 41.09765625 C11.28676345 35.12591536 9.29676009 29.64678031 6.58984375 24.03515625 C6.26951172 23.36033203 5.94917969 22.68550781 5.61914062 21.99023438 C4.84314914 20.35717766 4.06092849 18.72708314 3.27734375 17.09765625 C2.94734375 17.09765625 2.61734375 17.09765625 2.27734375 17.09765625 Z " fill="#000000" transform="translate(364.72265625,570.90234375)"/>
<path d="M0 0 C40.35468362 0 40.35468362 0 47.59765625 7.13671875 C52.09216176 13.10852691 53.81605431 19.65551122 53 27 C51.84126559 33.47991283 49.39879781 37.22960188 44.42578125 41.4921875 C37.3039653 45.91895232 31.18057714 46.40579468 23 46.1875 C19.7 46.125625 16.4 46.06375 13 46 C13 53.26 13 60.52 13 68 C8.71 68 4.42 68 0 68 C0 45.56 0 23.12 0 0 Z M13 12 C13 19.59 13 27.18 13 35 C15.68125 35.061875 18.3625 35.12375 21.125 35.1875 C22.37434326 35.22846802 22.37434326 35.22846802 23.64892578 35.27026367 C29.34572394 35.33347081 33.01060162 33.95857135 37.8125 30.8125 C39.80189353 27.77605724 40.09391694 24.54201036 40 21 C38.73562764 16.81176657 37.79800246 15.43102298 33.93359375 13.34375 C29.64075182 11.61804313 25.62746739 11.66115291 21.0625 11.8125 C18.401875 11.874375 15.74125 11.93625 13 12 Z " fill="#000000" transform="translate(511,690)"/>
<path d="M0 0 C1.36730436 0.89241311 2.68630381 1.85846977 3.98828125 2.84375 C2.33660568 6.4223804 0.20541633 9.59195188 -2.01171875 12.84375 C-4.55026705 11.83472271 -7.07905131 10.81487861 -9.58984375 9.73828125 C-17.0559449 6.71472859 -22.38692331 6.30215152 -30.01171875 8.84375 C-30.09421875 10.101875 -30.17671875 11.36 -30.26171875 12.65625 C-30.33132813 13.71779297 -30.33132813 13.71779297 -30.40234375 14.80078125 C-30.19863276 16.98953475 -30.19863276 16.98953475 -28.29492188 18.37280273 C-25.88306107 19.92663735 -23.84975941 20.66517457 -21.08984375 21.421875 C-20.14625 21.69644531 -19.20265625 21.97101562 -18.23046875 22.25390625 C-16.26983453 22.80855935 -14.30629171 23.3530437 -12.33984375 23.88671875 C-5.59366248 25.8757423 -0.72045458 28.53455078 3.98828125 33.84375 C6.78122504 39.42963758 6.74500712 45.09188544 4.80078125 50.96875 C2.25848592 57.1106504 -1.98551792 60.27940922 -8.01171875 62.84375 C-17.88109688 65.94555455 -28.82646931 64.10694594 -38.01171875 59.84375 C-41.15198571 58.01229985 -44.11476797 56.03840968 -47.01171875 53.84375 C-45.18666966 49.92074728 -42.82901049 47.10587728 -40.01171875 43.84375 C-37.90295765 44.87887246 -35.83247775 45.94469098 -33.78515625 47.09765625 C-27.29606615 50.63812072 -21.30787926 52.76817074 -13.86328125 51.46875 C-11.66358385 50.84876839 -11.66358385 50.84876839 -9.01171875 48.84375 C-7.68623043 45.40038226 -7.68623043 45.40038226 -8.01171875 41.84375 C-10.17391353 38.9410595 -12.4971637 38.15050357 -15.90625 37.16015625 C-16.86208984 36.87205078 -17.81792969 36.58394531 -18.80273438 36.28710938 C-20.80520697 35.70332454 -22.80780967 35.1199858 -24.81054688 34.53710938 C-32.64921326 32.17340138 -38.19600999 29.79977376 -43.01171875 22.84375 C-44.93742868 17.06662021 -44.91359494 11.0338206 -42.32421875 5.46875 C-39.3051045 0.24052776 -35.23987845 -2.65439263 -29.50390625 -4.61328125 C-19.11795649 -6.87605087 -9.16130721 -5.26552803 0 0 Z " fill="#000000" transform="translate(682.01171875,576.15625)"/>
<path d="M0 0 C-0.60694155 3.15330554 -1.6416665 5.18888867 -3.5625 7.75 C-4.01753906 8.36359375 -4.47257813 8.9771875 -4.94140625 9.609375 C-5.29074219 10.06828125 -5.64007812 10.5271875 -6 11 C-6.82242188 10.566875 -7.64484375 10.13375 -8.4921875 9.6875 C-18.29962232 4.73038036 -18.29962232 4.73038036 -29 5 C-32.29826662 6.96144954 -32.29826662 6.96144954 -34 10 C-34.33333333 12.66666667 -34.33333333 12.66666667 -33 15 C-27.74932033 18.93800976 -21.04509627 20.30898436 -14.8359375 22.13085938 C-8.23759535 24.19991095 -2.41972096 26.80558018 1.1640625 33.01782227 C3.249741 37.96338994 2.70336802 44.28001352 1.3828125 49.38671875 C-0.96083858 54.83104094 -4.65958652 57.63495974 -10 60 C-19.60415976 63.6379393 -30.47177815 62.2952968 -39.69921875 58.1875 C-43.27823992 56.34026327 -46.67305682 54.26752552 -50 52 C-49.15256083 47.51928716 -46.97965011 45.36165653 -44 42 C-40.75750467 42.64997628 -38.28829241 43.84065552 -35.4375 45.5 C-29.24607668 49.09165198 -24.09495107 49.58087319 -17 49 C-13.85548246 47.74219298 -12.57683335 47.08156253 -11 44.125 C-11 40.92105388 -12.03403185 39.51877503 -14 37 C-16.5899875 35.91520387 -18.87492284 35.13465814 -21.5625 34.4375 C-23.00984071 34.02074269 -24.45645991 33.60147145 -25.90234375 33.1796875 C-26.95591064 32.87949707 -26.95591064 32.87949707 -28.03076172 32.57324219 C-35.56478331 30.38010027 -40.93349989 28.10578218 -46 22 C-47.8761166 16.37165021 -48.01118151 9.4843122 -46.3515625 3.765625 C-43.62132046 -1.50817586 -39.28299799 -4.74649168 -33.8515625 -6.8203125 C-21.86928732 -9.96516213 -10.01623194 -6.67748796 0 0 Z " fill="#000000" transform="translate(951,697)"/>
<path d="M0 0 C1.43041085 1.08630258 2.85259042 2.18406084 4.25 3.3125 C2.42495091 7.23550272 0.06729174 10.05037272 -2.75 13.3125 C-5.80241054 12.20253253 -8.5774495 10.88338936 -11.375 9.25 C-16.58476278 6.25921026 -20.84496266 5.58748734 -26.75 6.3125 C-28.97701261 7.15868787 -30.95939608 8.15493108 -33.0234375 9.33984375 C-34.75 10.3125 -34.75 10.3125 -37.75 11.3125 C-38.86935073 12.95880193 -38.86935073 12.95880193 -39.75 15.3125 C-40.28625 16.50875 -40.8225 17.705 -41.375 18.9375 C-43.79032944 25.6137183 -43.70059815 31.75704941 -40.8125 38.25 C-40.12644413 39.60489887 -39.43912442 40.95915927 -38.75 42.3125 C-38.42 43.3025 -38.09 44.2925 -37.75 45.3125 C-36.05230766 46.41418984 -36.05230766 46.41418984 -33.75 47.3125 C-32.71875 47.84875 -31.6875 48.385 -30.625 48.9375 C-25.45148928 51.09774537 -19.86458692 51.38744593 -14.54296875 49.55078125 C-12.52421741 48.57421511 -10.64479914 47.51091997 -8.75 46.3125 C-7.84507812 45.74015625 -7.84507812 45.74015625 -6.921875 45.15625 C-5.51351319 44.23489181 -4.12874174 43.27761922 -2.75 42.3125 C-1.54794536 43.37966072 -0.36367667 44.46688337 0.8125 45.5625 C1.47378906 46.16578125 2.13507813 46.7690625 2.81640625 47.390625 C4.25 49.3125 4.25 49.3125 4.19140625 51.35546875 C1.41507803 57.12700584 -6.00820013 60.25411892 -11.75 62.3125 C-22.5805082 64.8514552 -32.92294464 63.48316824 -42.4375 57.6875 C-49.73918439 52.45354924 -55.26325623 45.28606061 -56.75 36.3125 C-57.82204163 24.25203169 -56.33375048 13.65092558 -48.5 4.09375 C-35.61659235 -9.0197185 -14.93238839 -10.43366317 0 0 Z " fill="#000000" transform="translate(277.75,695.6875)"/>
<path d="M0 0 C18.15 0 36.3 0 55 0 C55 3.96 55 7.92 55 12 C48.07 12 41.14 12 34 12 C34 30.15 34 48.3 34 67 C29.71 67 25.42 67 21 67 C21 48.85 21 30.7 21 12 C14.07 12 7.14 12 0 12 C0 8.04 0 4.08 0 0 Z " fill="#000000" transform="translate(869,572)"/>
<path d="M0 0 C18.15 0 36.3 0 55 0 C55 3.96 55 7.92 55 12 C48.07 12 41.14 12 34 12 C34 30.15 34 48.3 34 67 C29.71 67 25.42 67 21 67 C21 48.85 21 30.7 21 12 C14.07 12 7.14 12 0 12 C0 8.04 0 4.08 0 0 Z " fill="#000000" transform="translate(712,572)"/>
<path d="M0 0 C4.29 0 8.58 0 13 0 C13 18.15 13 36.3 13 55 C24.55 55 36.1 55 48 55 C48 58.96 48 62.92 48 67 C32.16 67 16.32 67 0 67 C0 44.89 0 22.78 0 0 Z " fill="#000000" transform="translate(432,572)"/>
<path d="M0 0 C4.29 0 8.58 0 13 0 C13 18.15 13 36.3 13 55 C24.22 55 35.44 55 47 55 C47 58.96 47 62.92 47 67 C31.49 67 15.98 67 0 67 C0 44.89 0 22.78 0 0 Z " fill="#000000" transform="translate(903,808)"/>
<path d="M0 0 C17.82 0 35.64 0 54 0 C54 3.63 54 7.26 54 11 C47.07 11 40.14 11 33 11 C33 29.48 33 47.96 33 67 C29.04 67 25.08 67 21 67 C21 48.52 21 30.04 21 11 C14.07 11 7.14 11 0 11 C0 7.37 0 3.74 0 0 Z " fill="#000000" transform="translate(291,808)"/>
<path d="M0 0 C29.04 0 58.08 0 88 0 C88 3.96 88 7.92 88 12 C58.96 12 29.92 12 0 12 C0 8.04 0 4.08 0 0 Z " fill="#000000" transform="translate(134,863)"/>
<path d="M0 0 C4.31674989 2.5524351 6.71307617 5.54192139 8.75 10.125 C10.29647388 16.69751399 10.09472964 21.53137347 6.84375 27.41796875 C3.90585045 31.56006549 0.32195802 34.70518066 -4.5 36.3125 C-11.93821445 36.98469419 -18.35014846 36.88775187 -24.5 32.3125 C-28.8784635 27.81881378 -30.59026787 23.70716053 -30.875 17.5 C-30.74479915 12.35323717 -29.64586703 8.42773303 -26.5 4.3125 C-19.25819784 -2.30387379 -9.10594357 -4.25287007 0 0 Z M-18.5 12.3125 C-19.64888518 16.26179279 -19.93129396 18.34208859 -18.25 22.125 C-15.95360955 24.99548807 -14.28022168 26.19377061 -10.625 26.75 C-6.40639249 26.15939495 -5.08069387 24.63053498 -2.5 21.3125 C-1.07998121 17.8512042 -1.37057378 16.64253686 -2.75 13.125 C-4.35810882 10.10852121 -4.35810882 10.10852121 -7.5 8.3125 C-12.53462073 7.65581034 -15.09307241 8.51620926 -18.5 12.3125 Z " fill="#000000" transform="translate(164.5,808.6875)"/>
<path d="M0 0 C4.29 0 8.58 0 13 0 C13 22.44 13 44.88 13 68 C8.71 68 4.42 68 0 68 C0 45.56 0 23.12 0 0 Z " fill="#000000" transform="translate(774,690)"/>
<path d="M0 0 C2.82424288 2.19022918 4.41508603 3.83017207 6 7 C6.82360434 14.77672556 5.09169446 20.5972311 0.1875 26.75 C-4.07619525 31.42225573 -8.79158906 33.49680628 -15.04296875 34.05859375 C-18.36704776 33.95907043 -20.33299716 32.92272298 -23 31 C-25.97214689 26.64085123 -26.61831854 23.21154202 -26 18 C-23.59572276 10.48986519 -19.59004297 5.39336198 -13 1 C-8.66052737 -0.44649088 -4.53000056 -0.66468908 0 0 Z " fill="#000000" transform="translate(821,233)"/>
<path d="M0 0 C9.9 0 19.8 0 30 0 C30 3.3 30 6.6 30 10 C23.73 10 17.46 10 11 10 C11 11.65 11 13.3 11 15 C16.61 15 22.22 15 28 15 C28 18.3 28 21.6 28 25 C22.39 25 16.78 25 11 25 C11 28.96 11 32.92 11 37 C7.37 37 3.74 37 0 37 C0 24.79 0 12.58 0 0 Z " fill="#000000" transform="translate(192,807)"/>
<path d="M0 0 C5 0 5 0 6.58203125 1.3125 C7.72135417 2.875 8.86067708 4.4375 10 6 C10.556875 5.01 11.11375 4.02 11.6875 3 C12.8321875 1.515 12.8321875 1.515 14 0 C15.65 0 17.3 0 19 0 C19 6.27 19 12.54 19 19 C17.68 19 16.36 19 15 19 C14.67 15.7 14.34 12.4 14 9 C12.515 11.475 12.515 11.475 11 14 C7.125 12.25 7.125 12.25 6 10 C5.67 12.97 5.34 15.94 5 19 C3.35 19 1.7 19 0 19 C0 12.73 0 6.46 0 0 Z " fill="#000000" transform="translate(1013,523)"/>
<path d="M0 0 C4.95 0 9.9 0 15 0 C15 1.32 15 2.64 15 4 C13.02 4 11.04 4 9 4 C9 8.95 9 13.9 9 19 C7.68 19 6.36 19 5 19 C5 14.05 5 9.1 5 4 C3.35 4 1.7 4 0 4 C0 2.68 0 1.36 0 0 Z " fill="#000000" transform="translate(996,523)"/>
</svg>
