<?xml version="1.0" encoding="UTF-8"?>
<svg version="1.1" xmlns="http://www.w3.org/2000/svg" width="1920" height="286">
<path d="M0 0 C1.22783203 -0.00386719 2.45566406 -0.00773437 3.72070312 -0.01171875 C20.28388912 0.0061199 20.28388912 0.0061199 26.9375 3.125 C26.9375 3.785 26.9375 4.445 26.9375 5.125 C29.5775 5.455 32.2175 5.785 34.9375 6.125 C35.4325 8.105 35.4325 8.105 35.9375 10.125 C36.9275 10.125 37.9175 10.125 38.9375 10.125 C38.9375 10.785 38.9375 11.445 38.9375 12.125 C39.5975 12.125 40.2575 12.125 40.9375 12.125 C43.94845544 14.8348599 46.52646598 17.27672539 47.9375 21.125 C47.9375 22.115 47.9375 23.105 47.9375 24.125 C48.5975 24.125 49.2575 24.125 49.9375 24.125 C50.4325 29.075 50.4325 29.075 50.9375 34.125 C51.9275 34.125 52.9175 34.125 53.9375 34.125 C54.79048376 37.79887495 55.04539471 41.1697393 55 44.9375 C54.99097656 45.91332031 54.98195313 46.88914063 54.97265625 47.89453125 C54.96105469 48.63058594 54.94945312 49.36664063 54.9375 50.125 C55.5975 50.125 56.2575 50.125 56.9375 50.125 C56.96062589 58.9738239 56.97841634 67.82263747 56.98931217 76.67148495 C56.99454046 80.77994285 57.00163713 84.88838014 57.01293945 88.99682617 C57.02377025 92.95846828 57.02977724 96.92009052 57.03237724 100.88174629 C57.03423114 102.39648311 57.0378511 103.91121879 57.04323006 105.42594719 C57.05044307 107.54041813 57.05149083 109.65480594 57.05102539 111.76928711 C57.053246 112.97507919 57.05546661 114.18087128 57.05775452 115.42320251 C56.9375 118.125 56.9375 118.125 55.9375 119.125 C53.47305943 119.22000548 51.03675374 119.25057985 48.57202148 119.23852539 C47.80134338 119.23867142 47.03066528 119.23881744 46.2366333 119.2389679 C43.67725861 119.2382686 41.1179558 119.23047545 38.55859375 119.22265625 C36.78882385 119.22079213 35.01905344 119.2193682 33.24928284 119.21836853 C28.58198634 119.21454288 23.91472077 119.2047122 19.24743652 119.19366455 C13.652424 119.18165707 8.05740116 119.17704841 2.46237946 119.17121124 C-6.04593523 119.16150047 -14.55418202 119.14234425 -23.0625 119.125 C-22.7325 134.635 -22.4025 150.145 -22.0625 166.125 C-21.0725 166.455 -20.0825 166.785 -19.0625 167.125 C-18.7325 169.105 -18.4025 171.085 -18.0625 173.125 C-17.4025 173.125 -16.7425 173.125 -16.0625 173.125 C-16.0625 173.785 -16.0625 174.445 -16.0625 175.125 C-13.0925 175.785 -10.1225 176.445 -7.0625 177.125 C-7.0625 177.785 -7.0625 178.445 -7.0625 179.125 C5.77354056 178.97586112 5.77354056 178.97586112 16.9375 173.125 C17.2675 172.465 17.5975 171.805 17.9375 171.125 C18.5975 171.125 19.2575 171.125 19.9375 171.125 C20.4325 167.165 20.4325 167.165 20.9375 163.125 C21.5975 163.125 22.2575 163.125 22.9375 163.125 C22.9375 156.855 22.9375 150.585 22.9375 144.125 C34.1575 144.125 45.3775 144.125 56.9375 144.125 C56.9375 150.725 56.9375 157.325 56.9375 164.125 C56.2775 164.125 55.6175 164.125 54.9375 164.125 C54.94910156 164.71667969 54.96070313 165.30835938 54.97265625 165.91796875 C55.02072386 170.12731785 54.99756883 174.0172333 53.9375 178.125 C52.9475 178.125 51.9575 178.125 50.9375 178.125 C50.999375 179.011875 51.06125 179.89875 51.125 180.8125 C50.91685526 184.48972369 50.15543417 186.22462455 47.9375 189.125 C47.2775 189.125 46.6175 189.125 45.9375 189.125 C44.9475 192.095 44.9475 192.095 43.9375 195.125 C43.2775 195.125 42.6175 195.125 41.9375 195.125 C41.9375 195.785 41.9375 196.445 41.9375 197.125 C39.9575 197.455 37.9775 197.785 35.9375 198.125 C35.6075 199.445 35.2775 200.765 34.9375 202.125 C34.2775 202.125 33.6175 202.125 32.9375 202.125 C32.9375 202.785 32.9375 203.445 32.9375 204.125 C29.9675 204.455 26.9975 204.785 23.9375 205.125 C23.9375 205.785 23.9375 206.445 23.9375 207.125 C18.81589529 207.95873985 13.80878495 208.31092055 8.6171875 208.36328125 C7.83667023 208.371353 7.05615295 208.37942474 6.25198364 208.38774109 C4.60648768 208.40149921 2.96096417 208.4122579 1.31542969 208.42016602 C-0.34253499 208.43164821 -2.00046381 208.45204016 -3.65820312 208.48168945 C-14.25330689 208.67058622 -23.08672612 208.07844499 -33.0625 204.125 C-33.0625 203.465 -33.0625 202.805 -33.0625 202.125 C-33.7225 202.125 -34.3825 202.125 -35.0625 202.125 C-35.0625 201.465 -35.0625 200.805 -35.0625 200.125 C-36.0525 200.125 -37.0425 200.125 -38.0625 200.125 C-38.0625 199.465 -38.0625 198.805 -38.0625 198.125 C-39.0525 198.125 -40.0425 198.125 -41.0625 198.125 C-42.75 196.875 -42.75 196.875 -44.0625 195.125 C-44.0625 193.805 -44.0625 192.485 -44.0625 191.125 C-44.7225 191.125 -45.3825 191.125 -46.0625 191.125 C-46.0625 190.465 -46.0625 189.805 -46.0625 189.125 C-47.0525 188.795 -48.0425 188.465 -49.0625 188.125 C-49.3925 186.145 -49.7225 184.165 -50.0625 182.125 C-50.7225 182.125 -51.3825 182.125 -52.0625 182.125 C-52.0625 180.145 -52.0625 178.165 -52.0625 176.125 C-52.7225 176.125 -53.3825 176.125 -54.0625 176.125 C-54.0625 174.805 -54.0625 173.485 -54.0625 172.125 C-54.7225 171.795 -55.3825 171.465 -56.0625 171.125 C-57.46235228 163.90840917 -57.20715545 156.27927879 -57.19189453 148.953125 C-57.19452301 147.36788025 -57.19452301 147.36788025 -57.19720459 145.75061035 C-57.20156971 142.29205636 -57.19870404 138.83355442 -57.1953125 135.375 C-57.19598707 132.95084626 -57.19695838 130.52669258 -57.19821167 128.10253906 C-57.19968141 123.0358007 -57.19755738 117.96908004 -57.19287109 112.90234375 C-57.18717427 106.42993765 -57.19045715 99.95757304 -57.19644356 93.48516846 C-57.20006871 88.48355806 -57.19890161 83.48195738 -57.19631577 78.48034668 C-57.1956519 76.09468582 -57.19645588 73.70902406 -57.19879532 71.32336426 C-57.20135403 67.98117761 -57.19743617 64.63905679 -57.19189453 61.296875 C-57.19391876 60.32512329 -57.19594299 59.35337158 -57.19802856 58.35217285 C-57.17834128 51.89558596 -56.74545457 45.54477171 -56.0625 39.125 C-55.4025 39.125 -54.7425 39.125 -54.0625 39.125 C-54.124375 38.238125 -54.18625 37.35125 -54.25 36.4375 C-54.03887705 32.70766118 -53.04437339 31.21672248 -51.0625 28.125 C-50.35579272 25.43245009 -50.35579272 25.43245009 -50.0625 23.125 C-49.4025 23.125 -48.7425 23.125 -48.0625 23.125 C-48.000625 22.3825 -47.93875 21.64 -47.875 20.875 C-46.80143912 17.24140932 -45.06535623 16.37714217 -42.0625 14.125 C-41.14183246 13.06269131 -40.24589636 11.97847995 -39.375 10.875 C-38.611875 9.9675 -37.84875 9.06 -37.0625 8.125 C-36.4025 8.125 -35.7425 8.125 -35.0625 8.125 C-35.0625 7.465 -35.0625 6.805 -35.0625 6.125 C-31.5975 5.63 -31.5975 5.63 -28.0625 5.125 C-28.0625 4.465 -28.0625 3.805 -28.0625 3.125 C-26.4125 3.125 -24.7625 3.125 -23.0625 3.125 C-23.0625 2.465 -23.0625 1.805 -23.0625 1.125 C-15.35511777 0.07739465 -7.77162182 -0.02455489 0 0 Z M-7.5625 31.875 C-8.7278125 32.01421875 -9.893125 32.1534375 -11.09375 32.296875 C-14.17743829 32.81193642 -14.17743829 32.81193642 -15.46875 35.203125 C-15.76265625 36.15445313 -15.76265625 36.15445313 -16.0625 37.125 C-16.7225 37.125 -17.3825 37.125 -18.0625 37.125 C-18.3925 38.775 -18.7225 40.425 -19.0625 42.125 C-20.0525 42.455 -21.0425 42.785 -22.0625 43.125 C-23.07761173 48.14787121 -23.19316946 52.92692593 -23.16015625 58.0234375 C-23.15914917 58.76440674 -23.15814209 59.50537598 -23.15710449 60.26879883 C-23.15190853 63.0125485 -23.1379475 65.75627596 -23.125 68.5 C-23.104375 74.64625 -23.08375 80.7925 -23.0625 87.125 C-7.8825 87.125 7.2975 87.125 22.9375 87.125 C22.9375 74.585 22.9375 62.045 22.9375 49.125 C22.2775 49.125 21.6175 49.125 20.9375 49.125 C20.6075 45.825 20.2775 42.525 19.9375 39.125 C19.2775 39.125 18.6175 39.125 17.9375 39.125 C17.2775 37.805 16.6175 36.485 15.9375 35.125 C15.2775 35.125 14.6175 35.125 13.9375 35.125 C13.9375 34.465 13.9375 33.805 13.9375 33.125 C11.81278825 32.7898342 9.68772095 32.45692171 7.5625 32.125 C6.37914062 31.939375 5.19578125 31.75375 3.9765625 31.5625 C-0.0586253 30.98159893 -3.51596392 31.35575422 -7.5625 31.875 Z " fill="#FEFEFE" transform="translate(1200.0625,39.875)"/>
<path d="M0 0 C1.28390625 -0.00386719 2.5678125 -0.00773437 3.890625 -0.01171875 C5.75847656 -0.00978516 5.75847656 -0.00978516 7.6640625 -0.0078125 C9.34556396 -0.00612061 9.34556396 -0.00612061 11.06103516 -0.00439453 C14.55597629 0.13206626 17.92311048 0.57403269 21.375 1.125 C21.375 1.785 21.375 2.445 21.375 3.125 C23.025 3.125 24.675 3.125 26.375 3.125 C26.375 3.785 26.375 4.445 26.375 5.125 C28.685 5.455 30.995 5.785 33.375 6.125 C33.375 6.785 33.375 7.445 33.375 8.125 C34.035 8.125 34.695 8.125 35.375 8.125 C35.375 8.785 35.375 9.445 35.375 10.125 C37.355 10.785 39.335 11.445 41.375 12.125 C41.4575 12.90875 41.54 13.6925 41.625 14.5 C42.10306339 17.27249104 42.10306339 17.27249104 44.4375 18.4375 C45.076875 18.664375 45.71625 18.89125 46.375 19.125 C46.375 20.445 46.375 21.765 46.375 23.125 C47.035 23.125 47.695 23.125 48.375 23.125 C49.05167998 24.36960783 49.71594719 25.62096896 50.375 26.875 C50.74625 27.57109375 51.1175 28.2671875 51.5 28.984375 C52.375 31.125 52.375 31.125 52.375 35.125 C53.035 35.455 53.695 35.785 54.375 36.125 C55.89432164 44.70691977 55.50205043 53.50381199 55.47265625 62.19140625 C55.47118315 63.65165163 55.47016471 65.11189754 55.46960449 66.57214355 C55.46439422 71.94393717 55.45043302 77.31571943 55.4375 82.6875 C55.416875 94.711875 55.39625 106.73625 55.375 119.125 C28.975 119.125 2.575 119.125 -24.625 119.125 C-24.625 131.005 -24.625 142.885 -24.625 155.125 C-23.965 155.125 -23.305 155.125 -22.625 155.125 C-22.13 162.55 -22.13 162.55 -21.625 170.125 C-20.305 170.455 -18.985 170.785 -17.625 171.125 C-17.625 171.785 -17.625 172.445 -17.625 173.125 C-16.965 173.125 -16.305 173.125 -15.625 173.125 C-15.295 173.785 -14.965 174.445 -14.625 175.125 C-12.64611039 175.85193904 -10.64545442 176.52316251 -8.625 177.125 C-8.625 177.785 -8.625 178.445 -8.625 179.125 C-3.345 179.125 1.935 179.125 7.375 179.125 C7.705 178.135 8.035 177.145 8.375 176.125 C9.179375 176.00125 9.98375 175.8775 10.8125 175.75 C11.658125 175.54375 12.50375 175.3375 13.375 175.125 C13.705 174.465 14.035 173.805 14.375 173.125 C15.365 173.125 16.355 173.125 17.375 173.125 C17.705 172.135 18.035 171.145 18.375 170.125 C19.035 170.125 19.695 170.125 20.375 170.125 C20.705 163.855 21.035 157.585 21.375 151.125 C22.035 151.125 22.695 151.125 23.375 151.125 C23.375 148.815 23.375 146.505 23.375 144.125 C33.935 144.125 44.495 144.125 55.375 144.125 C55.395625 147.775625 55.41625 151.42625 55.4375 155.1875 C55.446604 156.32453369 55.45570801 157.46156738 55.46508789 158.63305664 C55.47946875 163.90990299 55.3111163 168.92844891 54.375 174.125 C53.385 174.125 52.395 174.125 51.375 174.125 C51.58125 174.846875 51.7875 175.56875 52 176.3125 C52.43452211 179.57141585 51.79180669 181.20804504 50.375 184.125 C49.715 184.125 49.055 184.125 48.375 184.125 C48.375 185.445 48.375 186.765 48.375 188.125 C47.715 188.125 47.055 188.125 46.375 188.125 C46.045 189.775 45.715 191.425 45.375 193.125 C44.385 193.125 43.395 193.125 42.375 193.125 C42.045 194.115 41.715 195.105 41.375 196.125 C40.715 196.125 40.055 196.125 39.375 196.125 C39.375 196.785 39.375 197.445 39.375 198.125 C38.715 198.125 38.055 198.125 37.375 198.125 C37.375 198.785 37.375 199.445 37.375 200.125 C36.055 200.125 34.735 200.125 33.375 200.125 C33.375 200.785 33.375 201.445 33.375 202.125 C32.715 202.125 32.055 202.125 31.375 202.125 C31.375 202.785 31.375 203.445 31.375 204.125 C20.58856918 208.39971206 10.93154586 208.64195749 -0.5 208.4375 C-2.16405125 208.42597565 -3.82811556 208.41620033 -5.4921875 208.40820312 C-7.09636798 208.39479045 -8.70053673 208.37987063 -10.3046875 208.36328125 C-11.03710663 208.35589432 -11.76952576 208.34850739 -12.5241394 208.34089661 C-16.98479013 208.25890432 -21.23300649 207.83996732 -25.625 207.125 C-25.625 206.465 -25.625 205.805 -25.625 205.125 C-27.605 205.125 -29.585 205.125 -31.625 205.125 C-31.955 204.135 -32.285 203.145 -32.625 202.125 C-33.945 202.125 -35.265 202.125 -36.625 202.125 C-37.12 200.145 -37.12 200.145 -37.625 198.125 C-38.615 198.125 -39.605 198.125 -40.625 198.125 C-43.3125 195.75 -43.3125 195.75 -45.625 193.125 C-45.625 192.465 -45.625 191.805 -45.625 191.125 C-46.285 191.125 -46.945 191.125 -47.625 191.125 C-47.625 190.135 -47.625 189.145 -47.625 188.125 C-48.285 188.125 -48.945 188.125 -49.625 188.125 C-52.51045455 180.72318182 -52.51045455 180.72318182 -53.1875 177.1875 C-53.331875 176.506875 -53.47625 175.82625 -53.625 175.125 C-54.285 174.795 -54.945 174.465 -55.625 174.125 C-57.21991433 167.26686839 -56.71234209 160.12207158 -56.625 153.125 C-57.285 153.125 -57.945 153.125 -58.625 153.125 C-58.625 120.785 -58.625 88.445 -58.625 55.125 C-57.965 55.125 -57.305 55.125 -56.625 55.125 C-56.63660156 54.19558594 -56.64820313 53.26617187 -56.66015625 52.30859375 C-56.75734253 38.99407289 -56.75734253 38.99407289 -55.625 34.125 C-54.635 33.63 -54.635 33.63 -53.625 33.125 C-53.50125 32.444375 -53.3775 31.76375 -53.25 31.0625 C-52.40506068 27.09128519 -50.76207444 23.57657684 -48.625 20.125 C-47.965 19.795 -47.305 19.465 -46.625 19.125 C-45.97286708 17.10036745 -45.97286708 17.10036745 -45.625 15.125 C-44.305 14.795 -42.985 14.465 -41.625 14.125 C-41.295 12.805 -40.965 11.485 -40.625 10.125 C-39.635 10.125 -38.645 10.125 -37.625 10.125 C-37.625 9.465 -37.625 8.805 -37.625 8.125 C-36.635 8.125 -35.645 8.125 -34.625 8.125 C-34.625 7.465 -34.625 6.805 -34.625 6.125 C-31.16 5.63 -31.16 5.63 -27.625 5.125 C-27.625 4.465 -27.625 3.805 -27.625 3.125 C-26.305 3.125 -24.985 3.125 -23.625 3.125 C-23.625 2.465 -23.625 1.805 -23.625 1.125 C-15.73507474 0.04206908 -7.9562959 -0.02410999 0 0 Z M-15.625 33.125 C-15.625 33.785 -15.625 34.445 -15.625 35.125 C-16.285 35.125 -16.945 35.125 -17.625 35.125 C-17.955 36.775 -18.285 38.425 -18.625 40.125 C-19.615 40.125 -20.605 40.125 -21.625 40.125 C-21.955 44.415 -22.285 48.705 -22.625 53.125 C-23.285 53.125 -23.945 53.125 -24.625 53.125 C-24.625 64.345 -24.625 75.565 -24.625 87.125 C-8.785 87.125 7.055 87.125 23.375 87.125 C23.375 78.215 23.375 69.305 23.375 60.125 C22.715 60.125 22.055 60.125 21.375 60.125 C21.40980469 59.36316406 21.44460938 58.60132812 21.48046875 57.81640625 C21.68188593 50.13377969 20.8188543 44.0127086 17.375 37.125 C16.385 37.125 15.395 37.125 14.375 37.125 C13.88 35.145 13.88 35.145 13.375 33.125 C3.23780868 31.43329927 -5.44298518 30.8584556 -15.625 33.125 Z " fill="#FEFEFE" transform="translate(925.625,39.875)"/>
<path d="M0 0 C1.22965988 -0.00143509 1.22965988 -0.00143509 2.48416138 -0.00289917 C4.21388832 -0.00357787 5.94361784 -0.00174522 7.67333984 0.00244141 C10.30442103 0.00778025 12.93533044 0.002493 15.56640625 -0.00390625 C17.25260454 -0.00324515 18.93880272 -0.00196331 20.625 0 C21.40438934 -0.00202423 22.18377869 -0.00404846 22.98678589 -0.00613403 C27.57383825 0.01329711 31.91930179 0.37810265 36.4453125 1.1328125 C36.4453125 1.7928125 36.4453125 2.4528125 36.4453125 3.1328125 C37.4353125 3.1328125 38.4253125 3.1328125 39.4453125 3.1328125 C39.4453125 3.7928125 39.4453125 4.4528125 39.4453125 5.1328125 C42.4153125 5.6278125 42.4153125 5.6278125 45.4453125 6.1328125 C45.4453125 6.7928125 45.4453125 7.4528125 45.4453125 8.1328125 C46.4353125 8.1328125 47.4253125 8.1328125 48.4453125 8.1328125 C48.4453125 8.7928125 48.4453125 9.4528125 48.4453125 10.1328125 C49.7653125 10.4628125 51.0853125 10.7928125 52.4453125 11.1328125 C52.4453125 12.1228125 52.4453125 13.1128125 52.4453125 14.1328125 C53.1053125 14.1328125 53.7653125 14.1328125 54.4453125 14.1328125 C54.7340625 14.7721875 55.0228125 15.4115625 55.3203125 16.0703125 C56.27354701 18.28487329 56.27354701 18.28487329 58.4453125 19.1328125 C58.4453125 20.4528125 58.4453125 21.7728125 58.4453125 23.1328125 C59.1053125 23.1328125 59.7653125 23.1328125 60.4453125 23.1328125 C61.905941 25.78020166 62.4453125 27.02729584 62.4453125 30.1328125 C63.1053125 30.1328125 63.7653125 30.1328125 64.4453125 30.1328125 C64.661875 31.834375 64.661875 31.834375 64.8828125 33.5703125 C65.05702728 36.94058451 65.05702728 36.94058451 66.4453125 38.1328125 C67.51949718 44.61990169 67.58744125 50.99886688 67.57470703 57.5625 C67.57733551 59.24209808 67.57733551 59.24209808 67.58001709 60.95562744 C67.58440147 64.63970511 67.58150963 68.32373438 67.578125 72.0078125 C67.57879902 74.57796233 67.57976986 77.1481121 67.58102417 79.71826172 C67.58249652 85.09798856 67.58045759 90.47769737 67.57568359 95.85742188 C67.5702423 102.06040742 67.57200544 108.26336008 67.57751 114.46634483 C67.58260985 120.45496445 67.58205088 126.4435681 67.57912827 132.43218994 C67.57846245 134.97104904 67.57927532 137.50990898 67.58160782 140.04876709 C67.58415478 143.60024215 67.58026489 147.15165459 67.57470703 150.703125 C67.57673126 151.7464801 67.57875549 152.78983521 67.58084106 153.86480713 C67.55838604 161.63280274 67.20446983 168.77505962 64.4453125 176.1328125 C63.7853125 176.1328125 63.1253125 176.1328125 62.4453125 176.1328125 C62.4453125 178.1128125 62.4453125 180.0928125 62.4453125 182.1328125 C61.7853125 182.1328125 61.1253125 182.1328125 60.4453125 182.1328125 C60.3009375 182.7309375 60.1565625 183.3290625 60.0078125 183.9453125 C59.5580686 185.69431654 59.01638909 187.41958273 58.4453125 189.1328125 C57.7853125 189.1328125 57.1253125 189.1328125 56.4453125 189.1328125 C56.4453125 189.7928125 56.4453125 190.4528125 56.4453125 191.1328125 C55.7853125 191.1328125 55.1253125 191.1328125 54.4453125 191.1328125 C54.4453125 191.7928125 54.4453125 192.4528125 54.4453125 193.1328125 C53.7853125 193.1328125 53.1253125 193.1328125 52.4453125 193.1328125 C52.1153125 194.1228125 51.7853125 195.1128125 51.4453125 196.1328125 C49.5078125 198.3203125 49.5078125 198.3203125 47.4453125 200.1328125 C46.7853125 200.1328125 46.1253125 200.1328125 45.4453125 200.1328125 C45.4453125 200.7928125 45.4453125 201.4528125 45.4453125 202.1328125 C33.96003087 207.18633642 24.05236292 208.3006081 11.5703125 208.2578125 C9.89001953 208.26361328 9.89001953 208.26361328 8.17578125 208.26953125 C-9.45900197 208.24895391 -9.45900197 208.24895391 -16.6796875 205.5703125 C-17.79730469 205.16619141 -17.79730469 205.16619141 -18.9375 204.75390625 C-19.73800781 204.44646484 -19.73800781 204.44646484 -20.5546875 204.1328125 C-20.5546875 203.4728125 -20.5546875 202.8128125 -20.5546875 202.1328125 C-21.2146875 202.1328125 -21.8746875 202.1328125 -22.5546875 202.1328125 C-22.5546875 201.4728125 -22.5546875 200.8128125 -22.5546875 200.1328125 C-23.8746875 200.1328125 -25.1946875 200.1328125 -26.5546875 200.1328125 C-26.5546875 199.4728125 -26.5546875 198.8128125 -26.5546875 198.1328125 C-27.2146875 198.1328125 -27.8746875 198.1328125 -28.5546875 198.1328125 C-28.5546875 197.4728125 -28.5546875 196.8128125 -28.5546875 196.1328125 C-29.5446875 195.8028125 -30.5346875 195.4728125 -31.5546875 195.1328125 C-31.5546875 194.4728125 -31.5546875 193.8128125 -31.5546875 193.1328125 C-32.5446875 193.1328125 -33.5346875 193.1328125 -34.5546875 193.1328125 C-37.5546875 187.5078125 -37.5546875 187.5078125 -37.5546875 184.1328125 C-38.2146875 184.1328125 -38.8746875 184.1328125 -39.5546875 184.1328125 C-40.0496875 179.1828125 -40.0496875 179.1828125 -40.5546875 174.1328125 C-41.5446875 174.1328125 -42.5346875 174.1328125 -43.5546875 174.1328125 C-44.54719295 168.42590616 -44.65946262 162.91872761 -44.5546875 157.1328125 C-45.2146875 157.1328125 -45.8746875 157.1328125 -46.5546875 157.1328125 C-46.577808 143.45978688 -46.59560109 129.78676586 -46.60649967 116.11372471 C-46.61172914 109.76550674 -46.61882794 103.4173021 -46.63012695 97.0690918 C-46.64095356 90.94832668 -46.64696385 84.82757441 -46.64956474 78.70680046 C-46.6514194 76.36590307 -46.65504079 74.02500641 -46.66041756 71.68411446 C-46.66762498 68.41773048 -46.66867857 65.15140035 -46.66821289 61.88500977 C-46.67180817 60.9067775 -46.67540344 59.92854523 -46.67910767 58.92066956 C-46.677733 58.03580872 -46.67635834 57.15094788 -46.67494202 56.23927307 C-46.67586381 55.46588876 -46.6767856 54.69250444 -46.67773533 53.89568424 C-46.5546875 52.1328125 -46.5546875 52.1328125 -45.5546875 51.1328125 C-45.32897566 49.72160348 -45.16080401 48.30105207 -45.01953125 46.87890625 C-44.93251953 46.02490234 -44.84550781 45.17089844 -44.75585938 44.29101562 C-44.6253418 42.94426758 -44.6253418 42.94426758 -44.4921875 41.5703125 C-44.35586914 40.21776367 -44.35586914 40.21776367 -44.21679688 38.83789062 C-43.99214827 36.60322816 -43.77162981 34.36823411 -43.5546875 32.1328125 C-42.5646875 32.1328125 -41.5746875 32.1328125 -40.5546875 32.1328125 C-40.0596875 27.6778125 -40.0596875 27.6778125 -39.5546875 23.1328125 C-38.8946875 23.1328125 -38.2346875 23.1328125 -37.5546875 23.1328125 C-37.5546875 21.8128125 -37.5546875 20.4928125 -37.5546875 19.1328125 C-36.8946875 19.1328125 -36.2346875 19.1328125 -35.5546875 19.1328125 C-35.2865625 18.5759375 -35.0184375 18.0190625 -34.7421875 17.4453125 C-34.3503125 16.6821875 -33.9584375 15.9190625 -33.5546875 15.1328125 C-33.1009375 14.2253125 -32.6471875 13.3178125 -32.1796875 12.3828125 C-31.6434375 11.6403125 -31.1071875 10.8978125 -30.5546875 10.1328125 C-29.2346875 10.1328125 -27.9146875 10.1328125 -26.5546875 10.1328125 C-26.5546875 9.4728125 -26.5546875 8.8128125 -26.5546875 8.1328125 C-25.8946875 8.1328125 -25.2346875 8.1328125 -24.5546875 8.1328125 C-24.5546875 7.4728125 -24.5546875 6.8128125 -24.5546875 6.1328125 C-22.5746875 5.8028125 -20.5946875 5.4728125 -18.5546875 5.1328125 C-18.5546875 4.4728125 -18.5546875 3.8128125 -18.5546875 3.1328125 C-16.9046875 3.1328125 -15.2546875 3.1328125 -13.5546875 3.1328125 C-13.5546875 2.4728125 -13.5546875 1.8128125 -13.5546875 1.1328125 C-9.04525274 0.00461354 -4.61745964 -0.0119305 0 0 Z M3.4453125 29.1328125 C3.1153125 29.7928125 2.7853125 30.4528125 2.4453125 31.1328125 C0.46642289 31.85975154 -1.53423308 32.53097501 -3.5546875 33.1328125 C-3.5546875 33.7928125 -3.5546875 34.4528125 -3.5546875 35.1328125 C-4.2146875 35.1328125 -4.8746875 35.1328125 -5.5546875 35.1328125 C-5.5546875 35.7928125 -5.5546875 36.4528125 -5.5546875 37.1328125 C-6.2146875 37.1328125 -6.8746875 37.1328125 -7.5546875 37.1328125 C-9.97154462 41.36231245 -10.90301894 44.25617241 -10.5546875 49.1328125 C-11.2146875 49.1328125 -11.8746875 49.1328125 -12.5546875 49.1328125 C-12.5546875 84.7728125 -12.5546875 120.4128125 -12.5546875 157.1328125 C-11.8946875 157.1328125 -11.2346875 157.1328125 -10.5546875 157.1328125 C-10.6165625 158.1434375 -10.6784375 159.1540625 -10.7421875 160.1953125 C-10.52279397 164.80257671 -9.7599682 167.11605122 -7.5546875 171.1328125 C-5.5195114 172.6147089 -5.5195114 172.6147089 -3.5546875 173.1328125 C-3.5546875 173.7928125 -3.5546875 174.4528125 -3.5546875 175.1328125 C-0.59555338 176.11919054 1.35930148 176.2617002 4.4453125 176.265625 C5.4146875 176.26691406 6.3840625 176.26820313 7.3828125 176.26953125 C8.3934375 176.26566406 9.4040625 176.26179687 10.4453125 176.2578125 C11.96125 176.26361328 11.96125 176.26361328 13.5078125 176.26953125 C14.4771875 176.26824219 15.4465625 176.26695312 16.4453125 176.265625 C17.3321875 176.26449707 18.2190625 176.26336914 19.1328125 176.26220703 C21.60532535 176.2254381 21.60532535 176.2254381 24.4453125 175.1328125 C24.4453125 174.4728125 24.4453125 173.8128125 24.4453125 173.1328125 C25.1053125 173.1328125 25.7653125 173.1328125 26.4453125 173.1328125 C26.4453125 172.4728125 26.4453125 171.8128125 26.4453125 171.1328125 C27.4353125 170.8028125 28.4253125 170.4728125 29.4453125 170.1328125 C29.4453125 168.8128125 29.4453125 167.4928125 29.4453125 166.1328125 C30.4353125 166.1328125 31.4253125 166.1328125 32.4453125 166.1328125 C33.21307725 162.0575491 33.56433284 158.22275803 33.54296875 154.078125 C33.53974609 152.96953125 33.53652344 151.8609375 33.53320312 150.71875 C33.52482422 149.57664062 33.51644531 148.43453125 33.5078125 147.2578125 C33.50330078 146.0925 33.49878906 144.9271875 33.49414062 143.7265625 C33.48240031 140.86192605 33.4659782 137.99739617 33.4453125 135.1328125 C34.1053125 135.1328125 34.7653125 135.1328125 35.4453125 135.1328125 C35.4453125 114.0128125 35.4453125 92.8928125 35.4453125 71.1328125 C34.7853125 71.1328125 34.1253125 71.1328125 33.4453125 71.1328125 C33.45054932 70.4622583 33.45578613 69.7917041 33.46118164 69.10083008 C33.48202855 66.0490005 33.49499719 62.99718594 33.5078125 59.9453125 C33.52038086 58.36266602 33.52038086 58.36266602 33.53320312 56.74804688 C33.53642578 55.72646484 33.53964844 54.70488281 33.54296875 53.65234375 C33.54820557 52.71495361 33.55344238 51.77756348 33.55883789 50.81176758 C33.44493537 48.12391293 33.16879588 45.72508057 32.4453125 43.1328125 C31.7853125 42.8028125 31.1253125 42.4728125 30.4453125 42.1328125 C29.86622433 40.66789144 29.33058694 39.18559999 28.8203125 37.6953125 C27.42257207 34.20704043 27.42257207 34.20704043 24.44140625 32.1640625 C22.45853701 31.73840184 20.45163566 31.42882739 18.4453125 31.1328125 C18.1153125 30.4728125 17.7853125 29.8128125 17.4453125 29.1328125 C12.8253125 29.1328125 8.2053125 29.1328125 3.4453125 29.1328125 Z " fill="#FEFEFE" transform="translate(1512.5546875,39.8671875)"/>
<path d="M0 0 C0.84388275 -0.00095673 1.6877655 -0.00191345 2.55722046 -0.00289917 C4.33046545 -0.0035761 6.10371298 -0.00175599 7.87695312 0.00244141 C10.58469203 0.00781003 13.2922661 0.00247297 16 -0.00390625 C17.72916703 -0.00324564 19.45833396 -0.00196484 21.1875 0 C22.39546738 -0.00303635 22.39546738 -0.00303635 23.62783813 -0.00613403 C27.53970625 0.01013704 31.14064009 0.17033077 34.9609375 1.1328125 C34.9609375 1.7928125 34.9609375 2.4528125 34.9609375 3.1328125 C35.9509375 3.1328125 36.9409375 3.1328125 37.9609375 3.1328125 C37.9609375 3.7928125 37.9609375 4.4528125 37.9609375 5.1328125 C40.2709375 5.4628125 42.5809375 5.7928125 44.9609375 6.1328125 C44.9609375 6.7928125 44.9609375 7.4528125 44.9609375 8.1328125 C45.6209375 8.1328125 46.2809375 8.1328125 46.9609375 8.1328125 C46.9609375 8.7928125 46.9609375 9.4528125 46.9609375 10.1328125 C47.6209375 10.1328125 48.2809375 10.1328125 48.9609375 10.1328125 C48.9609375 10.7928125 48.9609375 11.4528125 48.9609375 12.1328125 C49.6209375 12.1328125 50.2809375 12.1328125 50.9609375 12.1328125 C52.5859375 13.5078125 52.5859375 13.5078125 53.9609375 15.1328125 C53.9609375 15.7928125 53.9609375 16.4528125 53.9609375 17.1328125 C55.4459375 17.6278125 55.4459375 17.6278125 56.9609375 18.1328125 C59.17845149 21.82866916 59.9609375 23.76289623 59.9609375 28.1328125 C61.4459375 28.6278125 61.4459375 28.6278125 62.9609375 29.1328125 C64.16661803 33.80482455 64.05476176 38.34777542 63.9609375 43.1328125 C64.6209375 43.1328125 65.2809375 43.1328125 65.9609375 43.1328125 C66.02152344 43.98746094 66.08210938 44.84210938 66.14453125 45.72265625 C66.22832031 46.82738281 66.31210938 47.93210938 66.3984375 49.0703125 C66.47964844 50.17246094 66.56085938 51.27460937 66.64453125 52.41015625 C66.66511834 55.04391153 66.66511834 55.04391153 67.9609375 56.1328125 C68.05754702 58.05642877 68.08280918 59.98364316 68.08119202 61.90968323 C68.08325401 63.79230865 68.08325401 63.79230865 68.08535767 65.71296692 C68.08181805 67.11666894 68.07818324 68.52037072 68.07446289 69.92407227 C68.07418103 71.39218138 68.07433874 72.86029063 68.0749054 74.32839966 C68.0751934 78.32615907 68.06929624 82.32388874 68.06233144 86.32164121 C68.05609835 90.49501983 68.05549414 94.66839906 68.05430603 98.84178162 C68.05119258 106.75014042 68.04297901 114.65848547 68.03295654 122.5668382 C68.02179582 131.56789744 68.01628506 140.56895732 68.01126111 149.57002175 C68.00079641 168.09096139 67.98245076 186.61188217 67.9609375 205.1328125 C56.7409375 205.1328125 45.5209375 205.1328125 33.9609375 205.1328125 C33.9609375 155.6328125 33.9609375 106.1328125 33.9609375 55.1328125 C33.3009375 55.1328125 32.6409375 55.1328125 31.9609375 55.1328125 C31.9609375 51.5028125 31.9609375 47.8728125 31.9609375 44.1328125 C31.3009375 44.1328125 30.6409375 44.1328125 29.9609375 44.1328125 C29.9609375 42.8128125 29.9609375 41.4928125 29.9609375 40.1328125 C29.3009375 40.1328125 28.6409375 40.1328125 27.9609375 40.1328125 C24.9609375 35.74819712 24.9609375 35.74819712 24.9609375 33.1328125 C22.3209375 32.4728125 19.6809375 31.8128125 16.9609375 31.1328125 C16.9609375 30.4728125 16.9609375 29.8128125 16.9609375 29.1328125 C12.0109375 29.1328125 7.0609375 29.1328125 1.9609375 29.1328125 C1.9609375 29.7928125 1.9609375 30.4528125 1.9609375 31.1328125 C-1.12715945 32.89743933 -2.27218386 33.1328125 -6.0390625 33.1328125 C-6.3278125 33.7309375 -6.6165625 34.3290625 -6.9140625 34.9453125 C-8.0390625 37.1328125 -8.0390625 37.1328125 -10.0390625 40.1328125 C-12.37502493 45.62919468 -12.64083459 51.24323138 -13.0390625 57.1328125 C-13.6990625 57.1328125 -14.3590625 57.1328125 -15.0390625 57.1328125 C-15.0390625 105.9728125 -15.0390625 154.8128125 -15.0390625 205.1328125 C-25.5990625 205.1328125 -36.1590625 205.1328125 -47.0390625 205.1328125 C-47.0390625 152.3328125 -47.0390625 99.5328125 -47.0390625 45.1328125 C-46.3790625 45.1328125 -45.7190625 45.1328125 -45.0390625 45.1328125 C-45.0390625 42.1628125 -45.0390625 39.1928125 -45.0390625 36.1328125 C-44.3790625 36.1328125 -43.7190625 36.1328125 -43.0390625 36.1328125 C-43.0390625 34.1528125 -43.0390625 32.1728125 -43.0390625 30.1328125 C-42.3790625 30.1328125 -41.7190625 30.1328125 -41.0390625 30.1328125 C-40.5440625 25.6778125 -40.5440625 25.6778125 -40.0390625 21.1328125 C-39.3790625 21.1328125 -38.7190625 21.1328125 -38.0390625 21.1328125 C-38.0390625 20.4728125 -38.0390625 19.8128125 -38.0390625 19.1328125 C-37.3790625 19.1328125 -36.7190625 19.1328125 -36.0390625 19.1328125 C-36.0390625 17.8128125 -36.0390625 16.4928125 -36.0390625 15.1328125 C-34.7190625 14.8028125 -33.3990625 14.4728125 -32.0390625 14.1328125 C-32.0390625 13.4728125 -32.0390625 12.8128125 -32.0390625 12.1328125 C-31.3790625 12.1328125 -30.7190625 12.1328125 -30.0390625 12.1328125 C-30.0390625 11.4728125 -30.0390625 10.8128125 -30.0390625 10.1328125 C-29.3790625 10.1328125 -28.7190625 10.1328125 -28.0390625 10.1328125 C-28.0390625 9.4728125 -28.0390625 8.8128125 -28.0390625 8.1328125 C-27.3790625 8.1328125 -26.7190625 8.1328125 -26.0390625 8.1328125 C-26.0390625 7.4728125 -26.0390625 6.8128125 -26.0390625 6.1328125 C-22.5740625 5.6378125 -22.5740625 5.6378125 -19.0390625 5.1328125 C-19.0390625 4.4728125 -19.0390625 3.8128125 -19.0390625 3.1328125 C-18.0490625 3.1328125 -17.0590625 3.1328125 -16.0390625 3.1328125 C-16.0390625 2.4728125 -16.0390625 1.8128125 -16.0390625 1.1328125 C-10.6480353 0.22967419 -5.46064015 -0.01379521 0 0 Z " fill="#FEFEFE" transform="translate(1352.0390625,39.8671875)"/>
<path d="M0 0 C11.55 0 23.1 0 35 0 C35 21.78 35 43.56 35 66 C54.47 66 73.94 66 94 66 C94 44.22 94 22.44 94 0 C105.22 0 116.44 0 128 0 C128 43.56 128 87.12 128 132 C127.67 131.34 127.34 130.68 127 130 C126.34 130 125.68 130 125 130 C125 129.34 125 128.68 125 128 C120.59175441 126.5305848 115.42208811 125.82983507 111.1484375 127.89453125 C109.71382044 128.85660857 108.34882941 129.92093647 107 131 C106.67 129.68 106.34 128.36 106 127 C104.68 127 103.36 127 102 127 C102 140.2 102 153.4 102 167 C99.69 167.33 97.38 167.66 95 168 C92.54458956 164.31688434 92.7860004 162.61977784 92.86474609 158.23364258 C92.87893837 157.20886055 92.87893837 157.20886055 92.89341736 156.16337585 C92.92707626 153.90682092 92.97519566 151.65081764 93.0234375 149.39453125 C93.04960662 147.82941629 93.07487347 146.264286 93.09927368 144.69914246 C93.1659053 140.58078613 93.2448021 136.46275228 93.32623291 132.34466553 C93.42140392 127.40303886 93.5013787 122.46114584 93.58389282 117.51929474 C93.71093804 110.01259422 93.857313 102.50649294 94 95 C74.53 95 55.06 95 35 95 C35.11824888 107.42976699 35.11824888 107.42976699 35.27026367 119.85913086 C35.27903871 121.4360289 35.28668023 123.01293383 35.29296875 124.58984375 C35.3159906 125.78389832 35.3159906 125.78389832 35.33947754 127.0020752 C35.34184439 132.16418016 34.47819915 136.33559573 32.64595032 141.16676331 C31.88922382 142.99043623 31.88922382 142.99043623 32 145 C31.34 145 30.68 145 30 145 C29.731875 145.721875 29.46375 146.44375 29.1875 147.1875 C28.00098638 149.99766383 26.72514361 152.48416557 25 155 C24.34 155 23.68 155 23 155 C22.79375 155.556875 22.5875 156.11375 22.375 156.6875 C18.91432365 162.50772841 12.96499151 165.31575382 7 168 C5.7315625 168.5878125 5.7315625 168.5878125 4.4375 169.1875 C-2.77208185 171.59069395 -10.42951805 171.18327491 -17.9375 171.1875 C-19.07896484 171.19974609 -20.22042969 171.21199219 -21.39648438 171.22460938 C-30.24970244 171.23995291 -37.20024755 169.93085419 -45.4375 166.5625 C-46.46746094 166.15128906 -47.49742187 165.74007812 -48.55859375 165.31640625 C-51 164 -51 164 -52 161 C-52.825 160.690625 -53.65 160.38125 -54.5 160.0625 C-55.325 159.711875 -56.15 159.36125 -57 159 C-57.625 156.9375 -57.625 156.9375 -58 155 C-58.99 154.67 -59.98 154.34 -61 154 C-65.35973331 146.96674067 -69 139.35893307 -69 131 C-67.865625 130.73445312 -66.73125 130.46890625 -65.5625 130.1953125 C-64.04165952 129.83857214 -62.52082659 129.48179958 -61 129.125 C-60.25621094 128.95097656 -59.51242187 128.77695313 -58.74609375 128.59765625 C-58.00488281 128.42363281 -57.26367188 128.24960938 -56.5 128.0703125 C-55.75234375 127.89516113 -55.0046875 127.72000977 -54.234375 127.53955078 C-52.06380961 127.01540857 -49.90846596 126.44656747 -47.75 125.875 C-44.64212071 125.14982817 -42.15784008 124.7763175 -39 124.875 C-38.236875 124.89304687 -37.47375 124.91109375 -36.6875 124.9296875 C-36.130625 124.95289063 -35.57375 124.97609375 -35 125 C-33 130.625 -33 130.625 -33 134 C-32.01 134.33 -31.02 134.66 -30 135 C-29.29875 135.804375 -28.5975 136.60875 -27.875 137.4375 C-24.14478828 140.76225392 -20.96506052 141.7867242 -16 142 C-10.83566938 140.70891735 -7.88845787 138.59189738 -5.14381886 134.14542198 C-0.99035473 126.3549111 -0.55637735 118.32630091 -0.56762695 109.66552734 C-0.5574353 108.47413147 -0.54724365 107.2827356 -0.53674316 106.05523682 C-0.51190015 102.82033041 -0.49991973 99.5856973 -0.49388909 96.35071135 C-0.48444615 92.95807279 -0.4582385 89.56556252 -0.43388367 86.17300415 C-0.39037656 79.76307281 -0.36173306 73.35316659 -0.33856028 66.943133 C-0.31142342 59.63945893 -0.26751754 52.33591492 -0.22227156 45.03233409 C-0.12965167 30.02161287 -0.06008075 15.01089335 0 0 Z " fill="#FEFEFE" transform="translate(429,61)"/>
<path d="M0 0 C1.21330742 -0.00855011 1.21330742 -0.00855011 2.4511261 -0.01727295 C4.15807809 -0.0266837 5.86504793 -0.03324124 7.57202148 -0.03710938 C10.15056039 -0.04678041 12.72828948 -0.07782649 15.30664062 -0.109375 C24.12467196 -0.16440172 32.10804057 0.06186729 40.48828125 3.203125 C40.48828125 3.863125 40.48828125 4.523125 40.48828125 5.203125 C43.45828125 5.698125 43.45828125 5.698125 46.48828125 6.203125 C46.98328125 8.183125 46.98328125 8.183125 47.48828125 10.203125 C48.80828125 10.533125 50.12828125 10.863125 51.48828125 11.203125 C51.48828125 12.193125 51.48828125 13.183125 51.48828125 14.203125 C52.10703125 14.265 52.72578125 14.326875 53.36328125 14.390625 C55.48828125 15.203125 55.48828125 15.203125 56.61328125 17.640625 C56.90203125 18.48625 57.19078125 19.331875 57.48828125 20.203125 C58.47828125 21.193125 58.47828125 21.193125 59.48828125 22.203125 C59.90234375 24.5859375 59.90234375 24.5859375 60.11328125 27.328125 C60.22542969 28.69324219 60.22542969 28.69324219 60.33984375 30.0859375 C60.38882813 30.78460938 60.4378125 31.48328125 60.48828125 32.203125 C61.14828125 32.203125 61.80828125 32.203125 62.48828125 32.203125 C62.48828125 35.173125 62.48828125 38.143125 62.48828125 41.203125 C63.14828125 41.203125 63.80828125 41.203125 64.48828125 41.203125 C64.56910219 43.16078781 64.62738903 45.11939228 64.67578125 47.078125 C64.72798828 48.71394531 64.72798828 48.71394531 64.78125 50.3828125 C64.68457031 51.31351563 64.58789062 52.24421875 64.48828125 53.203125 C61.17457125 55.412265 60.14367915 55.42794053 56.30078125 55.328125 C55.39972656 55.31007812 54.49867188 55.29203125 53.5703125 55.2734375 C52.88324219 55.25023437 52.19617188 55.22703125 51.48828125 55.203125 C51.48828125 55.863125 51.48828125 56.523125 51.48828125 57.203125 C49.84279297 57.40228516 49.84279297 57.40228516 48.1640625 57.60546875 C46.70962324 57.78375485 45.25519683 57.9621458 43.80078125 58.140625 C42.71893555 58.27114258 42.71893555 58.27114258 41.61523438 58.40429688 C40.5565918 58.53481445 40.5565918 58.53481445 39.4765625 58.66796875 C38.83243408 58.746521 38.18830566 58.82507324 37.5246582 58.90600586 C35.16466735 59.25034213 32.82694546 59.73539216 30.48828125 60.203125 C30.48828125 56.243125 30.48828125 52.283125 30.48828125 48.203125 C29.82828125 48.203125 29.16828125 48.203125 28.48828125 48.203125 C28.48828125 45.563125 28.48828125 42.923125 28.48828125 40.203125 C27.82828125 40.203125 27.16828125 40.203125 26.48828125 40.203125 C26.15828125 38.553125 25.82828125 36.903125 25.48828125 35.203125 C24.58078125 34.935 23.67328125 34.666875 22.73828125 34.390625 C19.48828125 33.203125 19.48828125 33.203125 17.73828125 31.671875 C14.59355749 29.61906922 11.95930308 29.68789453 8.23828125 29.515625 C6.34335937 29.41701172 6.34335937 29.41701172 4.41015625 29.31640625 C3.4459375 29.27902344 2.48171875 29.24164063 1.48828125 29.203125 C0.99328125 30.688125 0.99328125 30.688125 0.48828125 32.203125 C-2.48171875 32.698125 -2.48171875 32.698125 -5.51171875 33.203125 C-5.51171875 33.863125 -5.51171875 34.523125 -5.51171875 35.203125 C-6.17171875 35.203125 -6.83171875 35.203125 -7.51171875 35.203125 C-7.84171875 36.853125 -8.17171875 38.503125 -8.51171875 40.203125 C-9.17171875 40.203125 -9.83171875 40.203125 -10.51171875 40.203125 C-10.51171875 42.843125 -10.51171875 45.483125 -10.51171875 48.203125 C-11.17171875 48.203125 -11.83171875 48.203125 -12.51171875 48.203125 C-12.51171875 53.813125 -12.51171875 59.423125 -12.51171875 65.203125 C-11.85171875 65.203125 -11.19171875 65.203125 -10.51171875 65.203125 C-10.51171875 67.513125 -10.51171875 69.823125 -10.51171875 72.203125 C-9.85171875 72.203125 -9.19171875 72.203125 -8.51171875 72.203125 C-8.18171875 73.853125 -7.85171875 75.503125 -7.51171875 77.203125 C-6.85171875 77.203125 -6.19171875 77.203125 -5.51171875 77.203125 C-5.51171875 77.863125 -5.51171875 78.523125 -5.51171875 79.203125 C-4.85171875 79.203125 -4.19171875 79.203125 -3.51171875 79.203125 C-3.51171875 79.863125 -3.51171875 80.523125 -3.51171875 81.203125 C-1.20171875 81.533125 1.10828125 81.863125 3.48828125 82.203125 C3.48828125 82.863125 3.48828125 83.523125 3.48828125 84.203125 C4.54015625 84.38488281 4.54015625 84.38488281 5.61328125 84.5703125 C11.3079823 85.57617002 16.89722144 86.72624128 22.48828125 88.203125 C22.48828125 88.863125 22.48828125 89.523125 22.48828125 90.203125 C23.27203125 90.120625 24.05578125 90.038125 24.86328125 89.953125 C29.86455031 90.29804011 33.93984005 92.18958581 38.48828125 94.203125 C38.48828125 94.863125 38.48828125 95.523125 38.48828125 96.203125 C40.79828125 96.533125 43.10828125 96.863125 45.48828125 97.203125 C45.48828125 97.863125 45.48828125 98.523125 45.48828125 99.203125 C46.14828125 99.203125 46.80828125 99.203125 47.48828125 99.203125 C47.48828125 99.863125 47.48828125 100.523125 47.48828125 101.203125 C48.80828125 101.203125 50.12828125 101.203125 51.48828125 101.203125 C51.48828125 101.863125 51.48828125 102.523125 51.48828125 103.203125 C52.97328125 103.698125 52.97328125 103.698125 54.48828125 104.203125 C54.48828125 104.863125 54.48828125 105.523125 54.48828125 106.203125 C55.14828125 106.203125 55.80828125 106.203125 56.48828125 106.203125 C56.48828125 107.193125 56.48828125 108.183125 56.48828125 109.203125 C57.14828125 109.203125 57.80828125 109.203125 58.48828125 109.203125 C58.48828125 110.193125 58.48828125 111.183125 58.48828125 112.203125 C59.14828125 112.203125 59.80828125 112.203125 60.48828125 112.203125 C60.48828125 113.193125 60.48828125 114.183125 60.48828125 115.203125 C61.14828125 115.203125 61.80828125 115.203125 62.48828125 115.203125 C62.48828125 117.183125 62.48828125 119.163125 62.48828125 121.203125 C63.14828125 121.203125 63.80828125 121.203125 64.48828125 121.203125 C64.48828125 123.183125 64.48828125 125.163125 64.48828125 127.203125 C65.14828125 127.203125 65.80828125 127.203125 66.48828125 127.203125 C66.48828125 141.063125 66.48828125 154.923125 66.48828125 169.203125 C65.82828125 169.203125 65.16828125 169.203125 64.48828125 169.203125 C64.48828125 171.513125 64.48828125 173.823125 64.48828125 176.203125 C63.82828125 176.203125 63.16828125 176.203125 62.48828125 176.203125 C62.57078125 177.069375 62.65328125 177.935625 62.73828125 178.828125 C62.42954748 182.99603088 61.09067546 184.98840274 58.48828125 188.203125 C57.82828125 188.203125 57.16828125 188.203125 56.48828125 188.203125 C56.48828125 189.193125 56.48828125 190.183125 56.48828125 191.203125 C55.82828125 191.203125 55.16828125 191.203125 54.48828125 191.203125 C54.22015625 191.80125 53.95203125 192.399375 53.67578125 193.015625 C52.48910719 195.20160354 51.39229012 196.61645094 49.48828125 198.203125 C48.82828125 198.203125 48.16828125 198.203125 47.48828125 198.203125 C47.48828125 198.863125 47.48828125 199.523125 47.48828125 200.203125 C46.49828125 200.203125 45.50828125 200.203125 44.48828125 200.203125 C44.48828125 200.863125 44.48828125 201.523125 44.48828125 202.203125 C43.82828125 202.203125 43.16828125 202.203125 42.48828125 202.203125 C42.48828125 202.863125 42.48828125 203.523125 42.48828125 204.203125 C38.85828125 204.533125 35.22828125 204.863125 31.48828125 205.203125 C31.48828125 205.863125 31.48828125 206.523125 31.48828125 207.203125 C23.98417231 208.21221542 16.61672364 208.35319162 9.05078125 208.328125 C7.88740234 208.33199219 6.72402344 208.33585938 5.52539062 208.33984375 C-1.21620923 208.33225613 -7.82081332 208.04151732 -14.51171875 207.203125 C-14.51171875 206.543125 -14.51171875 205.883125 -14.51171875 205.203125 C-17.81171875 204.873125 -21.11171875 204.543125 -24.51171875 204.203125 C-24.51171875 203.543125 -24.51171875 202.883125 -24.51171875 202.203125 C-25.83171875 202.203125 -27.15171875 202.203125 -28.51171875 202.203125 C-29.00671875 200.223125 -29.00671875 200.223125 -29.51171875 198.203125 C-30.06859375 198.161875 -30.62546875 198.120625 -31.19921875 198.078125 C-34.76346855 196.72948994 -36.32774475 194.23642222 -38.51171875 191.203125 C-38.51171875 190.213125 -38.51171875 189.223125 -38.51171875 188.203125 C-39.17171875 188.203125 -39.83171875 188.203125 -40.51171875 188.203125 C-40.51171875 187.543125 -40.51171875 186.883125 -40.51171875 186.203125 C-41.17171875 186.203125 -41.83171875 186.203125 -42.51171875 186.203125 C-42.51171875 184.223125 -42.51171875 182.243125 -42.51171875 180.203125 C-43.17171875 180.203125 -43.83171875 180.203125 -44.51171875 180.203125 C-44.51171875 178.223125 -44.51171875 176.243125 -44.51171875 174.203125 C-45.17171875 174.203125 -45.83171875 174.203125 -46.51171875 174.203125 C-47.75011474 167.54674657 -47.60311011 160.9559314 -47.51171875 154.203125 C-45.86171875 154.203125 -44.21171875 154.203125 -42.51171875 154.203125 C-42.51171875 153.213125 -42.51171875 152.223125 -42.51171875 151.203125 C-41.36832031 151.07035156 -40.22492187 150.93757812 -39.046875 150.80078125 C-37.55596255 150.6226219 -36.06507857 150.44422418 -34.57421875 150.265625 C-33.81947266 150.17861328 -33.06472656 150.09160156 -32.28710938 150.00195312 C-28.58984417 149.85988401 -28.58984417 149.85988401 -25.51171875 148.203125 C-23.17874442 148.16219563 -20.8446665 148.16070777 -18.51171875 148.203125 C-18.18171875 147.213125 -17.85171875 146.223125 -17.51171875 145.203125 C-16.19171875 145.533125 -14.87171875 145.863125 -13.51171875 146.203125 C-13.01671875 155.113125 -13.01671875 155.113125 -12.51171875 164.203125 C-11.85171875 164.203125 -11.19171875 164.203125 -10.51171875 164.203125 C-10.51171875 165.523125 -10.51171875 166.843125 -10.51171875 168.203125 C-9.85171875 168.203125 -9.19171875 168.203125 -8.51171875 168.203125 C-8.01671875 170.678125 -8.01671875 170.678125 -7.51171875 173.203125 C-6.85171875 173.203125 -6.19171875 173.203125 -5.51171875 173.203125 C-5.51171875 173.863125 -5.51171875 174.523125 -5.51171875 175.203125 C-1.42844518 175.2612022 2.65472208 175.29674749 6.73828125 175.328125 C7.89714844 175.34488281 9.05601562 175.36164063 10.25 175.37890625 C11.36503906 175.38535156 12.48007812 175.39179688 13.62890625 175.3984375 C14.65532227 175.40891113 15.68173828 175.41938477 16.73925781 175.43017578 C19.54581121 175.19837341 21.05168823 174.52463376 23.48828125 173.203125 C24.47828125 173.203125 25.46828125 173.203125 26.48828125 173.203125 C26.48828125 172.213125 26.48828125 171.223125 26.48828125 170.203125 C27.14828125 170.203125 27.80828125 170.203125 28.48828125 170.203125 C28.48828125 169.543125 28.48828125 168.883125 28.48828125 168.203125 C29.14828125 168.203125 29.80828125 168.203125 30.48828125 168.203125 C30.54886719 167.05972656 30.60945312 165.91632813 30.671875 164.73828125 C30.75626553 163.24738195 30.84091427 161.75649725 30.92578125 160.265625 C30.96509766 159.51087891 31.00441406 158.75613281 31.04492188 157.97851562 C31.375 152.31640625 31.375 152.31640625 32.48828125 151.203125 C32.71903207 149.85565416 32.89981188 148.49934935 33.05078125 147.140625 C33.19515625 145.84125 33.33953125 144.541875 33.48828125 143.203125 C32.82828125 143.203125 32.16828125 143.203125 31.48828125 143.203125 C30.99328125 137.263125 30.99328125 137.263125 30.48828125 131.203125 C29.82828125 131.203125 29.16828125 131.203125 28.48828125 131.203125 C28.48828125 130.213125 28.48828125 129.223125 28.48828125 128.203125 C27.82828125 128.203125 27.16828125 128.203125 26.48828125 128.203125 C25.82828125 127.213125 25.16828125 126.223125 24.48828125 125.203125 C23.00328125 124.708125 23.00328125 124.708125 21.48828125 124.203125 C21.48828125 123.543125 21.48828125 122.883125 21.48828125 122.203125 C17.19828125 121.213125 12.90828125 120.223125 8.48828125 119.203125 C8.48828125 118.213125 8.48828125 117.223125 8.48828125 116.203125 C7.29203125 116.22375 6.09578125 116.244375 4.86328125 116.265625 C1.30823256 116.27195071 -2.01727499 115.90201375 -5.51171875 115.203125 C-5.51171875 114.543125 -5.51171875 113.883125 -5.51171875 113.203125 C-6.25421875 113.244375 -6.99671875 113.285625 -7.76171875 113.328125 C-10.59930827 113.19914366 -12.09945813 112.63261278 -14.51171875 111.203125 C-14.51171875 110.543125 -14.51171875 109.883125 -14.51171875 109.203125 C-16.49171875 109.203125 -18.47171875 109.203125 -20.51171875 109.203125 C-20.51171875 108.543125 -20.51171875 107.883125 -20.51171875 107.203125 C-22.49171875 106.873125 -24.47171875 106.543125 -26.51171875 106.203125 C-26.84171875 104.883125 -27.17171875 103.563125 -27.51171875 102.203125 C-28.17171875 102.203125 -28.83171875 102.203125 -29.51171875 102.203125 C-29.51171875 101.543125 -29.51171875 100.883125 -29.51171875 100.203125 C-30.37796875 99.831875 -30.37796875 99.831875 -31.26171875 99.453125 C-33.89875976 97.98810222 -35.58530739 96.52810423 -37.51171875 94.203125 C-38.26171875 91.453125 -38.26171875 91.453125 -38.51171875 89.203125 C-39.50171875 89.203125 -40.49171875 89.203125 -41.51171875 89.203125 C-41.84171875 85.903125 -42.17171875 82.603125 -42.51171875 79.203125 C-43.17171875 79.203125 -43.83171875 79.203125 -44.51171875 79.203125 C-44.57230469 78.42066406 -44.63289062 77.63820313 -44.6953125 76.83203125 C-44.77910156 75.82011719 -44.86289062 74.80820313 -44.94921875 73.765625 C-45.07103516 72.25162109 -45.07103516 72.25162109 -45.1953125 70.70703125 C-45.24383343 68.26671721 -45.24383343 68.26671721 -46.51171875 67.203125 C-46.59857478 65.64139755 -46.61874094 64.07583156 -46.609375 62.51171875 C-46.60615234 61.56748047 -46.60292969 60.62324219 -46.59960938 59.65039062 C-46.59123047 58.65716797 -46.58285156 57.66394531 -46.57421875 56.640625 C-46.56970703 55.64353516 -46.56519531 54.64644531 -46.56054688 53.61914062 C-46.54871882 51.14707651 -46.53223724 48.67512982 -46.51171875 46.203125 C-45.85171875 46.203125 -45.19171875 46.203125 -44.51171875 46.203125 C-44.51171875 42.903125 -44.51171875 39.603125 -44.51171875 36.203125 C-43.85171875 36.203125 -43.19171875 36.203125 -42.51171875 36.203125 C-42.55296875 34.965625 -42.59421875 33.728125 -42.63671875 32.453125 C-42.64830166 29.18674538 -42.36858895 26.9884303 -40.51171875 24.203125 C-39.85171875 24.203125 -39.19171875 24.203125 -38.51171875 24.203125 C-38.42921875 23.295625 -38.34671875 22.388125 -38.26171875 21.453125 C-37.41477701 17.78304412 -36.43264612 16.50446172 -33.51171875 14.203125 C-32.85171875 14.203125 -32.19171875 14.203125 -31.51171875 14.203125 C-31.18171875 13.213125 -30.85171875 12.223125 -30.51171875 11.203125 C-29.52171875 10.873125 -28.53171875 10.543125 -27.51171875 10.203125 C-26.77848079 8.18804142 -26.77848079 8.18804142 -26.51171875 6.203125 C-23.87171875 5.873125 -21.23171875 5.543125 -18.51171875 5.203125 C-18.51171875 4.543125 -18.51171875 3.883125 -18.51171875 3.203125 C-17.19171875 3.203125 -15.87171875 3.203125 -14.51171875 3.203125 C-14.51171875 2.543125 -14.51171875 1.883125 -14.51171875 1.203125 C-9.66262312 0.24568164 -4.92641956 0.02734218 0 0 Z " fill="#FEFEFE" transform="translate(756.51171875,39.796875)"/>
<path d="M0 0 C6.27 0 12.54 0 19 0 C19.02293495 4.52073372 19.04285442 9.04126621 19.05493164 13.56201172 C19.05996552 15.10043013 19.06679308 16.63884375 19.07543945 18.17724609 C19.08754639 20.38640526 19.09323769 22.59550126 19.09765625 24.8046875 C19.10281754 25.49432587 19.10797882 26.18396423 19.11329651 26.89450073 C19.11387171 31.77225659 19.11387171 31.77225659 18 34 C11.73 34 5.46 34 -1 34 C-1 34.66 -1 35.32 -1 36 C-3.97 36 -6.94 36 -10 36 C-10 36.66 -10 37.32 -10 38 C-16.435 38.495 -16.435 38.495 -23 39 C-23 39.99 -23 40.98 -23 42 C-24.134375 42.309375 -25.26875 42.61875 -26.4375 42.9375 C-29.78775099 43.62924531 -29.78775099 43.62924531 -31 45 C-31.10904838 47.03728055 -31.14691105 49.07837991 -31.15821838 51.11854553 C-31.16315636 51.76460123 -31.16809434 52.41065693 -31.17318195 53.07629007 C-31.18862786 55.25666787 -31.19693661 57.43701607 -31.20532227 59.61743164 C-31.21489523 61.17421228 -31.22490496 62.73099028 -31.23532104 64.2877655 C-31.26243926 68.52722373 -31.28341124 72.76669316 -31.30332303 77.00619054 C-31.32514008 81.43183659 -31.35254964 85.85744781 -31.37937927 90.2830658 C-31.42936424 98.66951453 -31.47428146 107.05598253 -31.51740164 115.44246906 C-31.56672452 124.98767822 -31.62166094 134.53285244 -31.67708123 144.07802784 C-31.79099034 163.71865429 -31.89706867 183.35931274 -32 203 C-43.22 203 -54.44 203 -66 203 C-66 136.67 -66 70.34 -66 2 C-57.42 2 -48.84 2 -40 2 C-39.67 4.31 -39.34 6.62 -39 9 C-38.34 9 -37.68 9 -37 9 C-36.67 9.66 -36.34 10.32 -36 11 C-35.01 10.34 -34.02 9.68 -33 9 C-31.68 9 -30.36 9 -29 9 C-29 8.34 -29 7.68 -29 7 C-27.02 7 -25.04 7 -23 7 C-23 6.34 -23 5.68 -23 5 C-18.59085217 3.89771304 -14.51617599 3.92345464 -10 4 C-10 3.34 -10 2.68 -10 2 C-6.7 2 -3.4 2 0 2 C0 1.34 0 0.68 0 0 Z " fill="#FEFEFE" transform="translate(1095,41)"/>
<path d="M0 0 C8.58 0 17.16 0 26 0 C26 94.05 26 188.1 26 285 C17.42 285 8.84 285 0 285 C0 190.95 0 96.9 0 0 Z " fill="#FEFEFE" transform="translate(621,1)"/>
<path d="M0 0 C1.35626088 -0.00128164 1.35626088 -0.00128164 2.73992097 -0.00258917 C5.78784592 -0.00424416 8.83571655 0.00127773 11.88363647 0.00672913 C14.06124368 0.00701102 16.23885098 0.00685322 18.41645813 0.00628662 C24.34384488 0.00599873 30.27121155 0.0118941 36.19859362 0.01886058 C42.38725719 0.02509552 48.57592118 0.02569803 54.7645874 0.02688599 C65.82343576 0.02982174 76.88227577 0.03705031 87.94112031 0.0465287 C101.95526523 0.05847654 115.969409 0.06465622 129.98355794 0.06993091 C157.44553606 0.08039436 184.90750528 0.09819353 212.36947632 0.12025452 C212.36947632 10.68025452 212.36947632 21.24025452 212.36947632 32.12025452 C183.44154307 32.14336982 154.51361204 32.16123184 125.58567142 32.17206669 C122.91570599 32.17309322 120.24574057 32.17412791 117.57577515 32.17518616 C116.91212098 32.17544847 116.24846681 32.17571078 115.56470191 32.17598104 C104.80507462 32.18033774 94.04545266 32.18822529 83.28582854 32.19740731 C72.25351291 32.20674384 61.22120023 32.21223522 50.18888086 32.21434301 C43.98881568 32.21565053 37.78876257 32.21873899 31.58870125 32.22598457 C25.76036446 32.23274096 19.93204479 32.23487226 14.10370445 32.2333622 C11.95780977 32.2336387 9.81191456 32.23564607 7.66602325 32.23945999 C4.74989714 32.24439128 1.8338368 32.2432549 -1.08229065 32.24050903 C-1.94316833 32.24342187 -2.80404601 32.24633472 -3.69101089 32.24933583 C-9.51640247 32.23437573 -9.51640247 32.23437573 -10.63052368 31.12025452 C-10.7183591 28.90170187 -10.73746977 26.68036955 -10.72817993 24.46009827 C-10.72676498 23.79563187 -10.72535004 23.13116547 -10.72389221 22.44656372 C-10.71827886 20.31691553 -10.70572422 18.18737112 -10.69302368 16.05775452 C-10.6880104 14.61700082 -10.68344719 13.17624549 -10.67935181 11.73548889 C-10.66830513 8.1970435 -10.6510316 4.65865913 -10.63052368 1.12025452 C-7.32338874 -0.53331295 -3.63507557 -0.01239752 0 0 Z " fill="#FEFEFE" transform="translate(1638.6305236816406,126.87974548339844)"/>
<path d="M0 0 C0.33 0 0.66 0 1 0 C1 6.6 1 13.2 1 20 C-3.97548966 20.62193621 -8.43648148 21.15576145 -13.375 21.1875 C-14.39335938 21.20167969 -15.41171875 21.21585938 -16.4609375 21.23046875 C-19 21 -19 21 -21 19 C-21.17201285 16.45770841 -21.23257617 14.03850004 -21.1875 11.5 C-21.18685547 10.81035156 -21.18621094 10.12070313 -21.18554688 9.41015625 C-21.14055525 4.28111049 -21.14055525 4.28111049 -20 2 C-19.43152344 2.31324219 -18.86304688 2.62648437 -18.27734375 2.94921875 C-14.64299586 4.62613055 -10.98890907 5.08547662 -7 5 C-4.10960374 3.70208018 -4.10960374 3.70208018 -2 2 C-1.34 2 -0.68 2 0 2 C0 1.34 0 0.68 0 0 Z " fill="#FEFEFE" transform="translate(556,208)"/>
<path d="M0 0 C2.74495944 1.67084488 4.55355001 2.78380865 5.6796875 5.8515625 C6.05087015 8.34120221 5.79166812 10.17107928 5.25 12.625 C5.01023437 13.78902344 5.01023437 13.78902344 4.765625 14.9765625 C4 17 4 17 1 19 C-3.46817575 19.43240411 -5.9079999 19.53438303 -9.9375 17.5625 C-12.81830145 13.98332245 -13.12243863 10.53022942 -13 6 C-12.67 5.34 -12.34 4.68 -12 4 C-11.34 4 -10.68 4 -10 4 C-10 3.01 -10 2.02 -10 1 C-6.39427296 -0.20190901 -3.7897565 -0.32670315 0 0 Z " fill="#FEFEFE" transform="translate(548,191)"/>
</svg>
